<svg width="100" height="100" viewBox="0 0 100 100" fill="none" xmlns="http://www.w3.org/2000/svg">
<rect width="100" height="100" rx="4" fill="white"/>
<path d="M88 50.5C88 71.2109 71.2109 88 50.5 88C29.7891 88 13 71.2109 13 50.5C13 29.7891 29.7891 13 50.5 13C71.2109 13 88 29.7891 88 50.5Z" fill="url(#paint0_linear)"/>
<path d="M64.7164 40.3851C64.7164 32.5545 58.3455 26.1836 50.5143 26.1836C42.6837 26.1836 36.3128 32.5545 36.3128 40.3851C36.3128 45.0194 38.5438 49.1416 41.9885 51.736C32.7657 55.1978 26.1836 64.1059 26.1836 74.5234H30.5781C30.5781 63.5302 39.5217 54.5873 50.5143 54.5873C58.3455 54.5873 64.7164 48.2163 64.7164 40.3851ZM50.5143 50.1927C45.1064 50.1927 40.7073 45.793 40.7073 40.3851C40.7073 34.9772 45.1064 30.5781 50.5143 30.5781C55.9222 30.5781 60.3219 34.9772 60.3219 40.3851C60.3219 45.793 55.9222 50.1927 50.5143 50.1927Z" fill="white"/>
<path d="M74.9388 62.5724H67.0607V54.6943H62.6662V62.5724H54.7881V66.967H62.6662V74.8451H67.0607V66.967H74.9388V62.5724Z" fill="white"/>
<defs>
<linearGradient id="paint0_linear" x1="92.1748" y1="1.13477" x2="30.3662" y2="80.3841" gradientUnits="userSpaceOnUse">
<stop stop-color="#0A0A0E"/>
<stop offset="1" stop-color="#213F7D"/>
</linearGradient>
</defs>
</svg>
