<svg width="50" height="50" viewBox="0 0 50 50" fill="none" xmlns="http://www.w3.org/2000/svg">
<circle opacity="0.5" cx="25" cy="25" r="25" fill="#99B7F5" fill-opacity="0.5"/>
<path opacity="0.2" d="M28.667 16.125H19.292V16.6458H28.667V16.125Z" fill="white"/>
<path opacity="0.2" d="M14.0841 16.6458H18.2508V16.125H14.0841C13.5094 16.125 13.0425 16.5924 13.0425 17.1666V17.6875C13.0424 17.1133 13.5094 16.6458 14.0841 16.6458Z" fill="white"/>
<path opacity="0.2" d="M32.8315 16.125H29.7065V16.6458H32.8315C33.4063 16.6458 33.8732 17.1133 33.8732 17.6875V17.1666C33.8732 16.5924 33.4063 16.125 32.8315 16.125Z" fill="white"/>
<path d="M34.9165 17.1666C34.9165 16.0177 33.9817 15.0833 32.8332 15.0833H29.7082V13.5208C29.7083 13.233 29.4753 13 29.1874 13C28.8995 13 28.6666 13.233 28.6666 13.5208V15.0833H19.2916V13.5208C19.2916 13.233 19.0587 13 18.7708 13C18.4829 13 18.25 13.233 18.25 13.5208V15.0833H14.0833C12.9349 15.0833 12 16.0177 12 17.1666V33.8332C12 34.9822 12.9349 35.9165 14.0833 35.9165H29.1864V35.9164L29.1875 35.9165C29.3228 35.9165 29.456 35.8637 29.5557 35.764L34.7641 30.5556C34.8634 30.4559 34.8963 30.3229 34.8964 30.1874H34.9166V17.1666H34.9165Z" fill="#213F7D"/>
<path d="M14.0842 16.125H18.2508V17.1666C17.6761 17.1666 17.2092 17.6341 17.2092 18.2083C17.2092 18.7825 17.6761 19.25 18.2508 19.25C18.8256 19.25 19.2925 18.7826 19.2925 18.2083V16.125H28.6674V17.1666C28.0927 17.1666 27.6258 17.6341 27.6258 18.2083C27.6258 18.7825 28.0927 19.25 28.6674 19.25C29.2421 19.25 29.7091 18.7826 29.7091 18.2083V16.125H32.834C33.4088 16.125 33.8757 16.5924 33.8757 17.1666V20.2916H13.0425V17.1666C13.0425 16.5924 13.5094 16.125 14.0842 16.125Z" fill="#8FADEB"/>
<path d="M28.6674 31.7506V34.8756H14.0841C13.5094 34.8756 13.0425 34.4081 13.0425 33.8339V21.334H33.8757V29.6673H30.7507C29.6022 29.6672 28.6674 30.6016 28.6674 31.7506Z" fill="white"/>
<path d="M29.707 34.1382V31.7497C29.707 31.1754 30.174 30.708 30.7487 30.708H33.1372L29.707 34.1382Z" fill="#E6E6E6"/>
<path d="M28.6674 34.8756V31.7506C28.6674 30.6016 29.6023 29.6672 30.7507 29.6672H33.8757V21.334H13.0425L26.5841 34.8756H28.6674Z" fill="url(#paint0_linear)"/>
<path d="M31.2716 37.9998C34.4357 37.9998 37.0007 35.4347 37.0007 32.2706C37.0007 29.1065 34.4357 26.5415 31.2716 26.5415C28.1075 26.5415 25.5425 29.1065 25.5425 32.2706C25.5425 35.4347 28.1075 37.9998 31.2716 37.9998Z" fill="#213F7D"/>
<path d="M31.2695 36.958C33.8583 36.958 35.957 34.8593 35.957 32.2705C35.957 29.6817 33.8583 27.583 31.2695 27.583C28.6807 27.583 26.582 29.6817 26.582 32.2705C26.582 34.8593 28.6807 36.958 31.2695 36.958Z" fill="#FEFEFE"/>
<path d="M31.7917 32.0552V29.1458C31.7917 28.858 31.5587 28.625 31.2708 28.625C30.983 28.625 30.75 28.858 30.75 29.1458V32.2708C30.75 32.4092 30.8049 32.5414 30.9026 32.6391L32.4651 34.2016C32.5668 34.3033 32.7001 34.3542 32.8333 34.3542C32.9666 34.3542 33.0998 34.3033 33.2016 34.2016C33.4051 33.9981 33.4051 33.6685 33.2016 33.4651L31.7917 32.0552Z" fill="#213F7D"/>
<defs>
<linearGradient id="paint0_linear" x1="18.2509" y1="16.1267" x2="32.8341" y2="30.7099" gradientUnits="userSpaceOnUse">
<stop stop-opacity="0.1"/>
<stop offset="1" stop-opacity="0"/>
</linearGradient>
</defs>
</svg>
