<svg width="59" height="60" viewBox="0 0 59 60" fill="none" xmlns="http://www.w3.org/2000/svg">
<path d="M44.296 27C40.955 27 39.282 22.961 41.644 20.598L42.849 19.393L38.606 15.15L37.401 16.355C35.039 18.718 31 17.045 31 13.704V12H24V20.838C25.226 20.302 26.577 20 28 20C33.523 20 38 24.477 38 30C38 35.523 33.523 40 28 40C26.577 40 25.226 39.698 24 39.162V48H31V46.296C31 42.955 35.039 41.282 37.402 43.644L38.607 44.849L42.85 40.606L41.645 39.401C39.282 37.039 40.955 33 44.296 33H46V30V27H44.296Z" fill="#B5B2AA"/>
<path d="M24 39.1621V48.0001H28V40.0001C26.577 40.0001 25.226 39.6981 24 39.1621Z" fill="#A6A39C"/>
<path d="M28 12H24V20.838C25.226 20.302 26.577 20 28 20V12Z" fill="#A6A39C"/>
<path d="M35.264 17.422C33.534 17.183 32 15.762 32 13.704V12H31V13.704C31 16.155 33.173 17.7 35.264 17.422Z" fill="#8C8A84"/>
<path d="M46.0005 27V30V33H47.0005V30V27H46.0005Z" fill="#8C8A84"/>
<path d="M31.0005 46.2961V48.0001H32.0005V46.2961C32.0005 44.2381 33.5345 42.8171 35.2645 42.5781C33.1735 42.3001 31.0005 43.8451 31.0005 46.2961Z" fill="#8C8A84"/>
<path d="M45.2964 33H44.2964C40.9554 33 39.2824 37.039 41.6444 39.402L42.8494 40.607L39.1064 44.35L38.6064 44.85H39.6064L43.8494 40.607L42.6444 39.402C40.2824 37.039 41.9554 33 45.2964 33Z" fill="#8C8A84"/>
<path d="M42.6444 20.5984L43.8494 19.3934L39.6064 15.1504H38.6064L39.1064 15.6504L42.8494 19.3934L41.6444 20.5984C39.2824 22.9614 40.9554 27.0004 44.2964 27.0004H45.2964C41.9554 27.0004 40.2824 22.9614 42.6444 20.5984Z" fill="#8C8A84"/>
<path d="M53 31H47C46.448 31 46 30.552 46 30C46 29.448 46.448 29 47 29H53C53.552 29 54 29.448 54 30C54 30.552 53.552 31 53 31Z" fill="#DD6A2A"/>
<path d="M34 8C33.447 8 33 7.552 33 7V3C33 2.448 33.448 2 34 2H53C53.552 2 54 2.448 54 3C54 3.552 53.552 4 53 4H36C35.448 4 35 4.448 35 5V7C35 7.552 34.552 8 34 8Z" fill="#DD6A2A"/>
<path d="M45 18C44.558 17.669 44.469 17.042 44.8 16.6L47.2 13.399C47.389 13.147 47.685 12.999 48 12.999H53C53.552 12.999 54 13.447 54 13.999V14C54 14.552 53.552 15 53 15H49C48.685 15 48.389 15.148 48.2 15.4L46.399 17.8C46.068 18.242 45.442 18.331 45 18Z" fill="#DD6A2A"/>
<path d="M53 58H34C33.448 58 33 57.552 33 57V53C33 52.448 33.448 52 34 52C34.552 52 35 52.448 35 53V55C35 55.552 35.448 56 36 56H53C53.552 56 54 56.448 54 57C54 57.552 53.552 58 53 58Z" fill="#DD6A2A"/>
<path d="M53 46.9998H48C47.685 46.9998 47.389 46.8518 47.2 46.5998L44.8 43.3988C44.469 42.9568 44.558 42.3308 45 41.9988C45.442 41.6678 46.068 41.7568 46.399 42.1988L48.2 44.5988C48.389 44.8508 48.685 44.9988 49 44.9988H53C53.552 44.9988 54 45.4468 54 45.9988V45.9998C54 46.5518 53.552 46.9998 53 46.9998Z" fill="#DD6A2A"/>
<path d="M56 33C57.6569 33 59 31.6569 59 30C59 28.3431 57.6569 27 56 27C54.3431 27 53 28.3431 53 30C53 31.6569 54.3431 33 56 33Z" fill="#396CAA"/>
<path d="M56 17C57.6569 17 59 15.6569 59 14C59 12.3431 57.6569 11 56 11C54.3431 11 53 12.3431 53 14C53 15.6569 54.3431 17 56 17Z" fill="#396CAA"/>
<path d="M56 6C57.6569 6 59 4.65685 59 3C59 1.34315 57.6569 0 56 0C54.3431 0 53 1.34315 53 3C53 4.65685 54.3431 6 56 6Z" fill="#396CAA"/>
<path d="M56 49C57.6569 49 59 47.6569 59 46C59 44.3431 57.6569 43 56 43C54.3431 43 53 44.3431 53 46C53 47.6569 54.3431 49 56 49Z" fill="#396CAA"/>
<path d="M56 60C57.6569 60 59 58.6569 59 57C59 55.3431 57.6569 54 56 54C54.3431 54 53 55.3431 53 57C53 58.6569 54.3431 60 56 60Z" fill="#396CAA"/>
<path d="M8 12C8 13.105 8.895 14 10 14H14C15.105 14 16 13.105 16 12C16 10.895 16.895 10 18 10H6C7.105 10 8 10.895 8 12Z" fill="#396CAA"/>
<path d="M24 20.838V12C24 10.895 23.105 10 22 10H18C16.895 10 16 10.895 16 12C16 13.105 15.105 14 14 14H10C8.895 14 8 13.105 8 12C8 10.895 7.105 10 6 10H5H2C0.895 10 0 10.895 0 12V48C0 49.105 0.895 50 2 50H22C23.105 50 24 49.105 24 48V39.162V20.838Z" fill="url(#paint0_linear)"/>
<path d="M4 16H20V20H4V16Z" fill="#DD6A2A"/>
<path d="M4 20H20V45H4V20Z" fill="#FFFCF5"/>
<path d="M9 27H7C6.447 27 6 26.553 6 26C6 25.447 6.447 25 7 25H9C9.553 25 10 25.447 10 26C10 26.553 9.553 27 9 27Z" fill="#DD6A2A"/>
<path d="M15 27H13C12.447 27 12 26.553 12 26C12 25.447 12.447 25 13 25H15C15.553 25 16 25.447 16 26C16 26.553 15.553 27 15 27Z" fill="#DD6A2A"/>
<path d="M17 41H7C6.447 41 6 40.553 6 40C6 39.447 6.447 39 7 39H17C17.553 39 18 39.447 18 40C18 40.553 17.553 41 17 41Z" fill="#DD6A2A"/>
<path d="M6 29H18V36H6V29Z" fill="#DD6A2A"/>
<defs>
<linearGradient id="paint0_linear" x1="24" y1="10" x2="-10.9738" y2="34.0254" gradientUnits="userSpaceOnUse">
<stop stop-color="#000341"/>
<stop offset="1" stop-color="#213F7D"/>
</linearGradient>
</defs>
</svg>
