<svg width="59" height="60" viewBox="0 0 59 60" fill="none" xmlns="http://www.w3.org/2000/svg">
<path d="M56.0253 30C56.0253 27.6877 55.7306 25.4006 55.1482 23.1841L58.5349 20.6927L51.9615 9.30738L48.1046 10.9972C44.8071 7.72324 40.7693 5.39016 36.3051 4.17926L35.8408 0H29.2675L26.7676 30L29.2675 60H35.8408L36.3051 55.8207C40.7694 54.6098 44.8072 52.2768 48.1046 49.0028L51.9615 50.6926L58.5349 39.3073L55.1482 36.8159C55.7307 34.5994 56.0253 32.3123 56.0253 30Z" fill="url(#paint0_linear)"/>
<path d="M22.6942 0L22.2299 4.17914C17.7656 5.39004 13.7278 7.72313 10.4304 10.9971L6.57352 9.30727L0 20.6926L3.38672 23.184C2.80418 25.4005 2.50957 27.6877 2.50957 29.9999C2.50957 32.3121 2.8043 34.5993 3.38672 36.8157L0 39.3071L6.5734 50.6925L10.4303 49.0027C13.7278 52.2766 17.7656 54.6097 22.2298 55.8206L22.6942 60H29.2675V0H22.6942Z" fill="url(#paint1_linear)"/>
<path d="M29.2677 10L26.6011 30L29.2677 50.0001C40.3134 50.0001 49.2677 41.0458 49.2677 30C49.2677 18.9543 40.3134 10 29.2677 10Z" fill="#E2E2E7"/>
<path d="M9.26758 30C9.26758 41.0458 18.2219 50.0001 29.2676 50.0001V10C18.2219 10 9.26758 18.9543 9.26758 30Z" fill="#F5F5F5"/>
<path d="M19.9128 36.5095L13.3481 30.0804L19.7772 23.5156L22.289 25.9754L18.3197 30.0284L22.3726 33.9978L19.9128 36.5095Z" fill="#0B1755"/>
<path d="M38.6225 36.5096L36.1626 33.9978L40.2156 30.0284L36.2463 25.9754L38.7581 23.5156L45.1872 30.0804L38.6225 36.5096Z" fill="#0B1755"/>
<path d="M33.4878 18.487L30.0475 17.7627L29.2676 21.467L28.0176 33.7499L29.2676 38.5327L33.4878 18.487Z" fill="#DD6A2A"/>
<path d="M28.4876 42.2368L29.2675 38.5325V21.4668L25.0474 41.5125L28.4876 42.2368Z" fill="#DD6A2A"/>
<defs>
<linearGradient id="paint0_linear" x1="58.5349" y1="6.2472e-06" x2="8.70645" y2="30.2053" gradientUnits="userSpaceOnUse">
<stop stop-color="#000341"/>
<stop offset="1" stop-color="#213F7D"/>
</linearGradient>
<linearGradient id="paint1_linear" x1="29.2675" y1="6.2472e-06" x2="-18.584" y2="26.7242" gradientUnits="userSpaceOnUse">
<stop stop-color="#000341"/>
<stop offset="1" stop-color="#213F7D"/>
</linearGradient>
</defs>
</svg>
