<svg width="64" height="60" viewBox="0 0 64 60" fill="none" xmlns="http://www.w3.org/2000/svg">
<path d="M52.3637 18.5449L31.6365 6.54492L10.9092 18.5449H52.3637Z" fill="#213F7D"/>
<path d="M60.0002 26.1819V22.9092H56.7275H54.5457H51.2729V26.1819C51.2729 26.7841 51.7617 27.2728 52.3639 27.2728C52.966 27.2728 53.4548 27.7615 53.4548 28.3637V45.8183C53.4548 46.4205 52.966 46.9092 52.3639 46.9092C51.7617 46.9092 51.2729 47.3979 51.2729 48.0001V51.2728H54.5457H56.7275H60.0002V48.0001C60.0002 47.3979 59.5115 46.9092 58.9093 46.9092C58.3071 46.9092 57.8184 46.4205 57.8184 45.8183V28.3637C57.8184 27.7615 58.3071 27.2728 58.9093 27.2728C59.5115 27.2728 60.0002 26.7841 60.0002 26.1819Z" fill="#213F7D"/>
<path d="M48.0002 26.1819V22.9092H44.7275H42.5457H39.2729V26.1819C39.2729 26.7841 39.7617 27.2728 40.3639 27.2728C40.966 27.2728 41.4548 27.7615 41.4548 28.3637V45.8183C41.4548 46.4205 40.966 46.9092 40.3639 46.9092C39.7617 46.9092 39.2729 47.3979 39.2729 48.0001V51.2728H42.5457H44.7275H48.0002V48.0001C48.0002 47.3979 47.5115 46.9092 46.9093 46.9092C46.3071 46.9092 45.8184 46.4205 45.8184 45.8183V28.3637C45.8184 27.7615 46.3071 27.2728 46.9093 27.2728C47.5115 27.2728 48.0002 26.7841 48.0002 26.1819Z" fill="#213F7D"/>
<path d="M36.0002 26.1819V22.9092H32.7275H30.5457H27.2729V26.1819C27.2729 26.7841 27.7617 27.2728 28.3639 27.2728C28.966 27.2728 29.4548 27.7615 29.4548 28.3637V45.8183C29.4548 46.4205 28.966 46.9092 28.3639 46.9092C27.7617 46.9092 27.2729 47.3979 27.2729 48.0001V51.2728H30.5457H32.7275H36.0002V48.0001C36.0002 47.3979 35.5115 46.9092 34.9093 46.9092C34.3071 46.9092 33.8184 46.4205 33.8184 45.8183V28.3637C33.8184 27.7615 34.3071 27.2728 34.9093 27.2728C35.5115 27.2728 36.0002 26.7841 36.0002 26.1819Z" fill="#213F7D"/>
<path d="M24.0002 26.1819V22.9092H20.7275H18.5457H15.2729V26.1819C15.2729 26.7841 15.7617 27.2728 16.3639 27.2728C16.966 27.2728 17.4548 27.7615 17.4548 28.3637V45.8183C17.4548 46.4205 16.966 46.9092 16.3639 46.9092C15.7617 46.9092 15.2729 47.3979 15.2729 48.0001V51.2728H18.5457H20.7275H24.0002V48.0001C24.0002 47.3979 23.5115 46.9092 22.9093 46.9092C22.3071 46.9092 21.8184 46.4205 21.8184 45.8183V28.3637C21.8184 27.7615 22.3071 27.2728 22.9093 27.2728C23.5115 27.2728 24.0002 26.7841 24.0002 26.1819Z" fill="#213F7D"/>
<path d="M12.0002 26.1819V22.9092H8.72749H6.54568H3.27295V26.1819C3.27295 26.7841 3.76168 27.2728 4.36386 27.2728C4.96604 27.2728 5.45477 27.7615 5.45477 28.3637V45.8183C5.45477 46.4205 4.96604 46.9092 4.36386 46.9092C3.76168 46.9092 3.27295 47.3979 3.27295 48.0001V51.2728H6.54568H8.72749H12.0002V48.0001C12.0002 47.3979 11.5115 46.9092 10.9093 46.9092C10.3071 46.9092 9.8184 46.4205 9.8184 45.8183V28.3637C9.8184 27.7615 10.3071 27.2728 10.9093 27.2728C11.5115 27.2728 12.0002 26.7841 12.0002 26.1819Z" fill="#213F7D"/>
<path d="M63.2727 55.6367H0V60.0004H63.2727V55.6367Z" fill="#213F7D"/>
<path d="M62.1817 51.2725H1.09082V55.6361H62.1817V51.2725Z" fill="#213F7D"/>
<path d="M62.1817 22.9086H1.09082L3.27264 18.5449H59.9999L62.1817 22.9086Z" fill="#213F7D"/>
<path d="M13.091 12L10.9092 18.4702C10.9092 18.504 10.9452 18.5247 10.9746 18.5073L22.2154 12H13.091Z" fill="#213F7D"/>
<path d="M41.0581 12L52.2988 18.5073C52.3283 18.5247 52.3643 18.504 52.3643 18.4702L50.1814 12H41.0581Z" fill="#213F7D"/>
<path d="M31.7037 6.54545L41.1247 12H48.6127C48.6127 5.45455 41.0789 0 31.7037 0C22.3273 0 14.6582 5.45455 14.6582 12H22.2826L31.7037 6.54545Z" fill="#213F7D"/>
</svg>
