<svg width="20" height="21" viewBox="0 0 20 21" fill="none" xmlns="http://www.w3.org/2000/svg">
<g opacity="0.8">
<path d="M19.1425 10.2503C19.1425 9.4603 19.0418 8.67879 18.8428 7.92147L20 7.07018L17.754 3.18007L16.4362 3.75745C15.3095 2.63881 13.9299 1.84165 12.4046 1.42791L12.246 0H7.75402L7.59539 1.42791C6.07001 1.84165 4.69043 2.63881 3.56378 3.75745L2.24598 3.18007L0 7.07018L1.15716 7.92147C0.958162 8.67879 0.857501 9.4603 0.857501 10.2503C0.857501 11.0403 0.958202 11.8218 1.15716 12.5791L0 13.4304L2.24598 17.3205L3.56378 16.7431C4.69047 17.8618 6.07005 18.6589 7.59539 19.0726L7.75402 20.5006H12.246L12.4046 19.0726C13.93 18.6589 15.3096 17.8617 16.4362 16.7431L17.754 17.3205L20 13.4304L18.8428 12.5791C19.0418 11.8218 19.1425 11.0403 19.1425 10.2503ZM11.7242 18.0034L11.3045 18.0963L11.1708 19.2994H8.82918L8.69549 18.0963L8.27583 18.0034C6.68467 17.6512 5.25752 16.8267 4.14873 15.6188L3.85843 15.3026L2.74868 15.7888L1.57786 13.7609L2.55184 13.0444L2.42307 12.6348C2.18131 11.8658 2.05871 11.0635 2.05871 10.2503C2.05871 9.43703 2.18131 8.63475 2.42307 7.86574L2.55184 7.4562L1.57786 6.73973L2.74868 4.71181L3.85843 5.19802L4.14873 4.88178C5.25752 3.67393 6.68467 2.84934 8.27583 2.49719L8.69549 2.40429L8.82918 1.20121H11.1708L11.3045 2.40429L11.7242 2.49719C13.3153 2.84938 14.7425 3.67397 15.8513 4.88178L16.1416 5.19802L17.2513 4.71181L18.4221 6.73973L17.4482 7.4562L17.5769 7.86574C17.8187 8.63479 17.9413 9.43707 17.9413 10.2503C17.9413 11.0635 17.8187 11.8658 17.5769 12.6348L17.4482 13.0444L18.4221 13.7609L17.2513 15.7888L16.1416 15.3026L15.8513 15.6188C14.7425 16.8267 13.3154 17.6512 11.7242 18.0034Z" fill="#A0A1BB"/>
<path d="M7.61545 8.8756L6.75727 8.03516L4.56055 10.2782L6.8036 12.4749L7.64404 11.6167L6.25921 10.2604L7.61545 8.8756Z" fill="#A0A1BB"/>
<path d="M12.3836 8.8756L13.7398 10.2604L12.355 11.6167L13.1954 12.4749L15.4385 10.2782L13.2417 8.03516L12.3836 8.8756Z" fill="#A0A1BB"/>
<path d="M8.56299 14.1812L10.2713 6.06261L11.4473 6.31007L9.73901 14.4286L8.56299 14.1812Z" fill="#A0A1BB"/>
</g>
</svg>
