<svg width="587" height="300" viewBox="0 0 587 300" fill="none" xmlns="http://www.w3.org/2000/svg">
<path opacity="0.05" d="M586.409 228.139C586.12 230.083 585.556 232.008 584.725 233.892C582.84 238.245 579.988 242.418 576.25 246.294C554.607 269.478 512.264 282.872 469.607 288.322C426.95 293.771 382.935 292.6 339.391 293.833C280.693 295.487 222.084 301.564 163.319 299.621C135.462 298.669 107.845 295.923 80.9235 291.429C-48.866 291.429 14.5806 169.775 22.0456 123.654C25.2673 103.784 29.0279 82.9559 47.5051 66.5236C69.3612 47.0529 108.056 37.352 145.919 33.1354C183.783 28.9188 222.724 29.1324 260.42 24.2888C321.924 16.3655 381.386 -5.01373 443.396 1.0769C504.272 7.0504 553.664 42.6296 553.63 80.4549C553.63 107.008 533.997 133.41 545.267 159.853C555.067 182.824 590.226 203.163 586.409 228.139Z" fill="#213F7D"/>
<path opacity="0.05" d="M576.606 249.541C574.765 252.863 571.98 256.049 568.33 259.007C547.195 276.703 505.846 286.926 464.19 291.086C422.534 295.246 379.552 294.352 337.03 295.293C279.665 296.555 222.432 301.193 165.046 299.71C137.843 298.984 110.874 296.888 84.584 293.458C66.9679 291.154 30.5629 288.151 19.9077 280.311C13.2428 275.425 12.1465 266.269 11.9273 258.56C15.9175 258.86 19.8639 259.312 23.3498 259.47C35.145 259.996 47.0827 260.053 58.9108 260.227C83.9555 260.616 109.018 260.874 134.1 261C233.935 261.508 333.69 259.931 433.365 256.267C481.203 254.5 528.95 252.258 576.606 249.541Z" fill="#213F7D"/>
<path opacity="0.24" d="M248.742 126.059C242.163 127.202 235.547 128.551 229.474 131.327C224.928 133.397 220.783 136.231 216.69 139.096C204.353 147.74 191.738 157.659 186.56 171.807C184.387 177.758 183.673 184.144 184.478 190.429C185.283 196.713 187.584 202.713 191.187 207.924C194.79 213.136 199.591 217.407 205.186 220.379C210.781 223.352 217.007 224.94 223.343 225.008C219.571 221.947 216.473 218.138 214.244 213.821C212.016 209.504 210.704 204.773 210.392 199.925C210.08 195.077 210.774 190.216 212.43 185.649C214.087 181.082 216.671 176.908 220.019 173.387C223.98 169.221 228.91 166.081 234.078 163.558C250.596 155.499 269.501 153.613 287.869 154.335C306.237 155.056 313.258 150.711 331.589 152.228C327.496 142.041 333.659 139.728 327.839 130.415C319.284 116.72 310.056 119.027 295.459 120.302C279.826 121.719 264.202 123.373 248.742 126.059Z" fill="#213F7D"/>
<path d="M245.765 123.746C239.186 124.889 232.57 126.237 226.497 129.013C221.957 131.083 217.806 133.917 213.718 136.782C201.382 145.432 188.766 155.35 183.594 169.499C181.421 175.45 180.707 181.835 181.512 188.119C182.317 194.403 184.617 200.402 188.219 205.614C191.822 210.825 196.622 215.096 202.216 218.069C207.81 221.042 214.036 222.63 220.371 222.7C216.603 219.638 213.509 215.831 211.283 211.516C209.056 207.201 207.746 202.473 207.435 197.628C207.123 192.783 207.817 187.926 209.472 183.362C211.127 178.797 213.708 174.625 217.052 171.105C221.008 166.939 225.939 163.799 231.106 161.276C247.63 153.217 266.535 151.331 284.903 152.053C303.27 152.775 313.937 154.76 332.252 156.267C328.159 146.08 330.672 137.436 324.878 128.123C316.323 114.427 307.1 116.735 292.504 118.009C276.849 119.405 261.231 121.059 245.765 123.746Z" fill="url(#paint0_linear)"/>
<path d="M237.691 223.237H230.522V267.462H237.691V223.237Z" fill="#213F7D"/>
<path d="M237.691 223.237H230.522V267.462H237.691V223.237Z" fill="url(#paint1_linear)"/>
<path d="M254.512 209.663V227.188H205.382V209.663C205.383 208.463 205.62 207.275 206.08 206.167C206.54 205.058 207.214 204.052 208.063 203.204C208.912 202.356 209.92 201.684 211.029 201.226C212.138 200.768 213.327 200.533 214.527 200.534H245.373C247.795 200.534 250.118 201.496 251.831 203.207C253.545 204.919 254.509 207.241 254.512 209.663Z" fill="#1A305F"/>
<path d="M214.571 202.057C215.609 202.057 216.636 202.261 217.595 202.658C218.553 203.055 219.424 203.637 220.158 204.371C220.892 205.105 221.474 205.976 221.871 206.934C222.268 207.893 222.472 208.92 222.472 209.958V227.088H206.67V209.968C206.668 208.93 206.872 207.901 207.268 206.941C207.665 205.982 208.246 205.109 208.98 204.375C209.714 203.64 210.586 203.057 211.545 202.659C212.504 202.261 213.533 202.057 214.571 202.057Z" fill="#8D1A00" fill-opacity="0.5"/>
<path d="M254.534 209.663V227.182H224.262V208.636C223.356 203.789 219.942 201.561 217.14 200.534H245.39C247.812 200.533 250.137 201.494 251.852 203.205C253.566 204.917 254.531 207.24 254.534 209.663Z" fill="url(#paint2_linear)"/>
<path d="M223.027 224.675H190.906C190.21 224.675 189.647 225.238 189.647 225.932C189.647 226.625 190.21 227.188 190.906 227.188H223.027C223.722 227.188 224.286 226.625 224.286 225.932C224.286 225.238 223.722 224.675 223.027 224.675Z" fill="#213F7D"/>
<path d="M223.027 224.675H190.906C190.21 224.675 189.647 225.238 189.647 225.932C189.647 226.625 190.21 227.188 190.906 227.188H223.027C223.722 227.188 224.286 226.625 224.286 225.932C224.286 225.238 223.722 224.675 223.027 224.675Z" fill="#14264A"/>
<path opacity="0.24" d="M215.077 263.585C210.9 264.333 206.76 265.296 202.54 265.692C199.801 265.955 196.778 266.092 194.792 267.999C194.319 268.404 194.006 268.964 193.907 269.579C193.796 270.896 195.171 271.818 196.404 272.302C200.001 273.724 203.905 274.13 207.766 274.378C214.045 274.773 220.344 274.783 226.644 274.788H245.397C250.938 274.788 257.08 274.562 261.046 270.701C261.884 269.977 262.452 268.991 262.658 267.904C262.879 266.145 261.541 264.485 259.924 263.748C257.127 262.473 252.94 262.736 249.916 262.399C245.93 261.988 241.943 261.753 237.954 261.693C230.286 261.603 222.626 262.236 215.077 263.585Z" fill="#213F7D"/>
<path d="M241.405 212.325C241.337 212.551 241.137 213.231 241.079 213.478L240.41 215.959C240.377 216.068 240.361 216.182 240.362 216.296C240.359 216.335 240.364 216.374 240.378 216.411C240.391 216.448 240.413 216.481 240.442 216.508C240.47 216.534 240.504 216.555 240.542 216.566C240.579 216.578 240.618 216.581 240.657 216.575C240.915 216.554 241.16 216.453 241.358 216.286C241.652 216.021 241.886 215.696 242.042 215.332C242.199 214.968 242.274 214.575 242.264 214.179C242.276 213.698 242.164 213.223 241.939 212.798C241.714 212.374 241.383 212.015 240.979 211.756C240.364 211.426 239.674 211.264 238.977 211.287C236.617 211.287 234.963 212.867 234.963 215.064C234.963 217.26 236.454 218.593 238.708 218.593C239.288 218.593 239.864 218.509 240.42 218.345C240.864 218.208 241.286 218.01 241.674 217.755L242.353 218.74C241.92 219.02 241.45 219.238 240.957 219.388C240.189 219.622 239.39 219.741 238.587 219.741C237.915 219.78 237.241 219.682 236.608 219.454C235.974 219.226 235.393 218.872 234.9 218.414C234.475 217.976 234.142 217.458 233.92 216.89C233.697 216.322 233.59 215.716 233.604 215.106C233.587 214.463 233.699 213.823 233.934 213.224C234.168 212.625 234.52 212.08 234.968 211.619C235.512 211.095 236.158 210.689 236.866 210.425C237.574 210.161 238.328 210.046 239.082 210.086C241.69 210.086 243.544 211.761 243.544 214.1C243.554 214.596 243.467 215.089 243.286 215.551C243.105 216.013 242.835 216.434 242.49 216.791C242.217 217.076 241.89 217.303 241.529 217.461C241.167 217.618 240.778 217.702 240.383 217.708C240.2 217.721 240.016 217.687 239.849 217.611C239.681 217.534 239.535 217.418 239.425 217.271C239.363 217.167 239.328 217.049 239.325 216.928C239.147 217.155 238.919 217.337 238.658 217.458C238.397 217.58 238.111 217.639 237.823 217.629C236.717 217.629 236.017 216.802 236.017 215.522C236.017 213.636 237.254 212.072 238.74 212.072C238.986 212.039 239.236 212.082 239.458 212.194C239.68 212.306 239.863 212.481 239.983 212.699L240.094 212.303L241.405 212.325ZM239.103 215.648C239.372 215.112 239.522 214.525 239.546 213.926C239.546 213.468 239.293 213.152 238.898 213.152C238.658 213.171 238.429 213.257 238.236 213.399C238.042 213.542 237.892 213.735 237.802 213.957C237.529 214.475 237.376 215.048 237.354 215.633C237.354 216.228 237.581 216.539 238.008 216.539C238.434 216.539 238.808 216.217 239.103 215.648Z" fill="white"/>
<path d="M400.772 132.583L332.221 156.292L321.739 133.679L400.772 132.583Z" fill="#213F7D"/>
<path d="M400.772 132.583L332.221 156.292L321.739 133.679L400.772 132.583Z" fill="url(#paint3_linear)"/>
<path d="M325.231 141.501L384.938 137.535L400.772 132.583L321.739 133.679L325.231 141.501Z" fill="url(#paint4_linear)"/>
<path d="M307.907 108.642L405.187 133.304L320.565 123.207L307.907 108.642Z" fill="#213F7D"/>
<path d="M263.841 137.578L320.571 123.208L405.193 133.306L263.841 137.578Z" fill="#213F7D"/>
<path d="M307.907 108.642L405.187 133.304L320.565 123.207L307.907 108.642Z" fill="url(#paint5_linear)"/>
<path d="M280.525 146.39L260.144 145.767L259.76 158.329L280.141 158.952L280.525 146.39Z" fill="#213F7D"/>
<path d="M280.133 158.948L259.753 158.327L260.132 145.764L280.912 146.232L280.133 158.948Z" fill="url(#paint6_linear)"/>
<path d="M260.144 145.764L270.052 156.451L280.598 146.575L260.144 145.764Z" fill="url(#paint7_linear)"/>
<path d="M243.934 137.129L225.539 128.332L220.116 139.67L238.511 148.467L243.934 137.129Z" fill="#213F7D"/>
<path d="M238.5 148.469L220.106 139.667L225.532 128.332L244.347 137.155L238.5 148.469Z" fill="url(#paint8_linear)"/>
<path d="M225.539 128.332L230.285 142.111L243.917 137.328L225.539 128.332Z" fill="url(#paint9_linear)"/>
<path d="M215.402 165.888L202.748 170.265L205.446 178.066L218.101 173.689L215.402 165.888Z" fill="#213F7D"/>
<path d="M218.103 173.697L205.445 178.075L202.748 170.274L215.611 165.712L218.103 173.697Z" fill="url(#paint10_linear)"/>
<path d="M202.748 170.273L211.323 174.518L215.49 165.996L202.748 170.273Z" fill="url(#paint11_linear)"/>
<path d="M194.95 157.587L182.59 161.862L185.224 169.479L197.585 165.203L194.95 157.587Z" fill="#213F7D"/>
<path d="M197.581 165.212L185.223 169.484L182.59 161.867L195.147 157.411L197.581 165.212Z" fill="url(#paint12_linear)"/>
<path d="M182.59 161.864L190.965 166.015L195.031 157.687L182.59 161.864Z" fill="url(#paint13_linear)"/>
<path d="M198.389 193.709L188.806 190.595L186.887 196.502L196.47 199.615L198.389 193.709Z" fill="#213F7D"/>
<path d="M196.428 199.613L186.846 196.505L188.769 190.595L198.556 193.692L196.428 199.613Z" fill="url(#paint14_linear)"/>
<path d="M188.806 190.595L192.024 197.037L198.392 193.808L188.806 190.595Z" fill="url(#paint15_linear)"/>
<path d="M284.155 110.537L267.199 117.206L271.309 127.657L288.265 120.988L284.155 110.537Z" fill="#213F7D"/>
<path d="M288.269 120.994L271.313 127.662L267.199 117.212L284.429 110.28L288.269 120.994Z" fill="url(#paint16_linear)"/>
<path d="M267.199 117.212L279.103 122.501L284.281 110.675L267.199 117.212Z" fill="url(#paint17_linear)"/>
<path d="M354.273 110.822L332.267 108.656L330.932 122.223L352.938 124.388L354.273 110.822Z" fill="#213F7D"/>
<path d="M352.935 124.383L330.922 122.218L332.26 108.649L354.704 110.682L352.935 124.383Z" fill="url(#paint18_linear)"/>
<path d="M332.267 108.649L342.207 120.938L354.338 111.025L332.267 108.649Z" fill="url(#paint19_linear)"/>
<path d="M263.841 137.578L320.571 123.208L405.193 133.306L263.841 137.578Z" fill="url(#paint20_linear)"/>
<defs>
<linearGradient id="paint0_linear" x1="263.027" y1="203.448" x2="237.922" y2="75.9432" gradientUnits="userSpaceOnUse">
<stop stop-color="white" stop-opacity="0"/>
<stop offset="0.95" stop-color="white"/>
</linearGradient>
<linearGradient id="paint1_linear" x1="234.293" y1="261.679" x2="233.756" y2="214.524" gradientUnits="userSpaceOnUse">
<stop stop-color="#010101" stop-opacity="0"/>
<stop offset="0.95" stop-color="#010101"/>
</linearGradient>
<linearGradient id="paint2_linear" x1="235.837" y1="200.534" x2="235.837" y2="227.182" gradientUnits="userSpaceOnUse">
<stop stop-color="#DD6A2A"/>
<stop offset="1" stop-color="#8D1A00"/>
</linearGradient>
<linearGradient id="paint3_linear" x1="29969.4" y1="3904.19" x2="30075.2" y2="1516.36" gradientUnits="userSpaceOnUse">
<stop stop-color="white" stop-opacity="0"/>
<stop offset="0.95" stop-color="white"/>
</linearGradient>
<linearGradient id="paint4_linear" x1="30363" y1="1315.27" x2="30369.7" y2="477.892" gradientUnits="userSpaceOnUse">
<stop stop-color="#010101" stop-opacity="0"/>
<stop offset="0.95" stop-color="#010101"/>
</linearGradient>
<linearGradient id="paint5_linear" x1="36922" y1="1676.67" x2="36856.2" y2="3633.69" gradientUnits="userSpaceOnUse">
<stop stop-color="white" stop-opacity="0"/>
<stop offset="0.95" stop-color="white"/>
</linearGradient>
<linearGradient id="paint6_linear" x1="2518.75" y1="2359.01" x2="2358.58" y2="3472.24" gradientUnits="userSpaceOnUse">
<stop stop-color="white" stop-opacity="0"/>
<stop offset="0.95" stop-color="white"/>
</linearGradient>
<linearGradient id="paint7_linear" x1="3986.82" y1="-17214.1" x2="4571.91" y2="-16515.1" gradientUnits="userSpaceOnUse">
<stop stop-color="white" stop-opacity="0"/>
<stop offset="0.95" stop-color="white"/>
</linearGradient>
<linearGradient id="paint8_linear" x1="-8679.87" y1="3278.39" x2="-9594.45" y2="4732.22" gradientUnits="userSpaceOnUse">
<stop stop-color="white" stop-opacity="0"/>
<stop offset="0.95" stop-color="white"/>
</linearGradient>
<linearGradient id="paint9_linear" x1="740.397" y1="-16227.1" x2="1062.83" y2="-15096.7" gradientUnits="userSpaceOnUse">
<stop stop-color="white" stop-opacity="0"/>
<stop offset="0.95" stop-color="white"/>
</linearGradient>
<linearGradient id="paint10_linear" x1="5115.71" y1="459.151" x2="5265.54" y2="1135.29" gradientUnits="userSpaceOnUse">
<stop stop-color="white" stop-opacity="0"/>
<stop offset="0.95" stop-color="white"/>
</linearGradient>
<linearGradient id="paint11_linear" x1="2730.14" y1="-10560.6" x2="3146.18" y2="-10326.4" gradientUnits="userSpaceOnUse">
<stop stop-color="white" stop-opacity="0"/>
<stop offset="0.95" stop-color="white"/>
</linearGradient>
<linearGradient id="paint12_linear" x1="4415.78" y1="291.794" x2="4558.56" y2="936.546" gradientUnits="userSpaceOnUse">
<stop stop-color="white" stop-opacity="0"/>
<stop offset="0.95" stop-color="white"/>
</linearGradient>
<linearGradient id="paint13_linear" x1="2493.37" y1="-10299.8" x2="2890.34" y2="-10076.3" gradientUnits="userSpaceOnUse">
<stop stop-color="white" stop-opacity="0"/>
<stop offset="0.95" stop-color="white"/>
</linearGradient>
<linearGradient id="paint14_linear" x1="-3495.62" y1="2746.69" x2="-3653.6" y2="3092.38" gradientUnits="userSpaceOnUse">
<stop stop-color="white" stop-opacity="0"/>
<stop offset="0.95" stop-color="white"/>
</linearGradient>
<linearGradient id="paint15_linear" x1="1822.04" y1="-2315.46" x2="1930.5" y2="-2066.54" gradientUnits="userSpaceOnUse">
<stop stop-color="white" stop-opacity="0"/>
<stop offset="0.95" stop-color="white"/>
</linearGradient>
<linearGradient id="paint16_linear" x1="10166.6" y1="-2412.62" x2="10506.5" y2="-1132.21" gradientUnits="userSpaceOnUse">
<stop stop-color="white" stop-opacity="0"/>
<stop offset="0.95" stop-color="white"/>
</linearGradient>
<linearGradient id="paint17_linear" x1="1078.97" y1="-19076.9" x2="1881.97" y2="-18667.7" gradientUnits="userSpaceOnUse">
<stop stop-color="white" stop-opacity="0"/>
<stop offset="0.95" stop-color="white"/>
</linearGradient>
<linearGradient id="paint18_linear" x1="4484.68" y1="2375.02" x2="4179.73" y2="3798.49" gradientUnits="userSpaceOnUse">
<stop stop-color="white" stop-opacity="0"/>
<stop offset="0.95" stop-color="white"/>
</linearGradient>
<linearGradient id="paint19_linear" x1="5816.86" y1="-21277.3" x2="6485.56" y2="-20357.9" gradientUnits="userSpaceOnUse">
<stop stop-color="white" stop-opacity="0"/>
<stop offset="0.95" stop-color="white"/>
</linearGradient>
<linearGradient id="paint20_linear" x1="334.894" y1="118.33" x2="333.903" y2="163.42" gradientUnits="userSpaceOnUse">
<stop stop-color="white" stop-opacity="0"/>
<stop offset="0.39" stop-color="white"/>
</linearGradient>
</defs>
</svg>
