<svg width="70" height="70" viewBox="0 0 70 70" fill="none" xmlns="http://www.w3.org/2000/svg">
<circle opacity="0.5" cx="35" cy="35" r="35" fill="#C1DFFF"/>
<path d="M18.9239 24.1816H47.9954C49.7305 24.1816 51.1372 25.5883 51.1372 27.3235V46.8522C51.1372 48.5874 49.7306 49.9941 47.9954 49.9941H18.9239C17.1887 49.994 15.782 48.5874 15.782 46.8522V27.3235C15.782 25.5883 17.1887 24.1816 18.9239 24.1816Z" fill="#ADCBEB"/>
<path d="M39.4275 30.4551L42.2776 27.605L30.4549 15.7822L15.782 30.4551H39.4275Z" fill="#46C373"/>
<path d="M47.148 45.4574V51.0892C47.148 52.8171 45.7471 54.218 44.0192 54.218H18.9108C17.1829 54.218 15.782 52.8171 15.782 51.0892V27.5624V27.3105C15.782 29.0385 17.1829 30.4393 18.9108 30.4393H44.0192C45.7471 30.4393 47.148 31.8401 47.148 33.5681V38.887V45.4574Z" fill="#CBE9FF"/>
<path d="M54.2661 36.3059V42.3287C54.2661 44.0567 52.8653 45.4575 51.1373 45.4575H36.9014C35.1735 45.4575 33.7726 44.0567 33.7726 42.3287C33.7726 40.6008 35.1735 39.2 36.9014 39.2H51.2155C52.9003 39.2 54.2661 37.8342 54.2661 36.1494" fill="#ADCBEB"/>
<path d="M44.1704 30.4551L47.0205 27.605L35.1978 15.7822L20.525 30.4551H44.1704Z" fill="#D7FA91"/>
<path d="M32.3475 18.6324C33.0769 19.3618 34.0846 19.8129 35.1976 19.8129C36.3107 19.8129 37.3183 19.3618 38.0478 18.6324L35.1976 15.7822L32.3475 18.6324Z" fill="#46C373"/>
<path d="M44.1702 30.4552L47.0204 27.605L44.1702 24.7549C43.4408 25.4843 42.9897 26.492 42.9897 27.605C42.9897 28.7182 43.4407 29.7258 44.1702 30.4552Z" fill="#46C373"/>
<path d="M35.2842 30.4556C35.0087 29.8285 34.6158 29.2405 34.1023 28.727C31.8869 26.5116 28.2951 26.5116 26.0798 28.727C25.5662 29.2405 25.1733 29.8285 24.8979 30.4556H35.2842Z" fill="#46C373"/>
<path d="M30.9904 53.4355C30.7839 53.4355 30.5829 53.5192 30.4374 53.6647C30.2919 53.8103 30.2082 54.012 30.2082 54.2177C30.2082 54.4235 30.2919 54.6253 30.4374 54.7707C30.5829 54.9162 30.7847 54.9999 30.9904 54.9999C31.1961 54.9999 31.3979 54.9162 31.5434 54.7707C31.6889 54.6253 31.7726 54.4235 31.7726 54.2177C31.7726 54.012 31.6889 53.8102 31.5434 53.6647C31.3979 53.5192 31.1961 53.4355 30.9904 53.4355Z" fill="#213F7D"/>
<path d="M18.7547 40.2539V47.5152C18.7547 47.9471 19.1049 48.2974 19.5369 48.2974C19.9689 48.2974 20.3191 47.9471 20.3191 47.5152V40.2539C20.3191 39.8219 19.9689 39.4717 19.5369 39.4717C19.1049 39.4717 18.7547 39.8219 18.7547 40.2539Z" fill="#213F7D"/>
<path d="M20.0899 36.4422C19.9444 36.2967 19.7426 36.2129 19.5369 36.2129C19.3312 36.2129 19.1294 36.2966 18.9839 36.4422C18.8384 36.5876 18.7547 36.7887 18.7547 36.9951C18.7547 37.2008 18.8384 37.4026 18.9839 37.5481C19.1294 37.6936 19.3312 37.7773 19.5369 37.7773C19.7426 37.7773 19.9444 37.6937 20.0899 37.5481C20.2354 37.4025 20.3191 37.2008 20.3191 36.9951C20.3191 36.7894 20.2354 36.5876 20.0899 36.4422Z" fill="#213F7D"/>
<path d="M55.0483 36.1491C55.0483 34.2763 53.6976 32.7139 51.9195 32.3823V27.3103C51.9195 25.1538 50.165 23.3993 48.0085 23.3993H43.9211L35.7508 15.229C35.4453 14.9237 34.9501 14.9237 34.6445 15.229L32.8263 17.0472L31.0081 15.229C30.7027 14.9237 30.2074 14.9237 29.9019 15.229L21.6831 23.4479C21.599 23.4171 21.5087 23.3994 21.414 23.3994H18.911C16.7545 23.3994 15 25.1539 15 27.3104C15 27.3674 15.0019 27.424 15.0043 27.4804C15.0015 27.5073 15 27.5346 15 27.5622V51.089C15 53.2455 16.7545 54.9999 18.911 54.9999H27.6976C28.1296 54.9999 28.4798 54.6497 28.4798 54.2177C28.4798 53.7858 28.1296 53.4355 27.6976 53.4355H18.911C17.6171 53.4355 16.5644 52.3829 16.5644 51.089V30.437C17.2185 30.9291 18.0312 31.2213 18.911 31.2213L35.2843 31.2371H44.1703C44.1958 31.2371 44.2213 31.2358 44.2467 31.2334C44.2481 31.2332 44.2496 31.233 44.2511 31.2328C45.4366 31.3496 46.3659 32.3522 46.3659 33.5679V38.4175H36.9014C34.7449 38.4175 32.9904 40.172 32.9904 42.3285C32.9904 44.485 34.7449 46.2394 36.9014 46.2394H46.3659V51.089C46.3659 52.3829 45.3132 53.4356 44.0193 53.4356H34.268C33.836 53.4356 33.4858 53.7859 33.4858 54.2178C33.4858 54.6497 33.836 55 34.268 55H44.0193C46.1758 55 47.9303 53.2455 47.9303 51.089V50.7762H48.0085C50.165 50.7762 51.9195 49.0217 51.9195 46.8652V46.1608C53.7025 45.7973 55.0483 44.2172 55.0483 42.3285V36.3056C55.0483 36.2892 55.0478 36.273 55.0468 36.2569C55.0478 36.221 55.0483 36.1851 55.0483 36.1491ZM32.3932 19.6928C33.2281 20.2922 34.2126 20.5928 35.1977 20.5928C36.1828 20.5928 37.1673 20.2922 38.0022 19.6928L43.1097 24.8004C42.0831 26.2304 41.9353 28.1004 42.6672 29.6569H35.7624C35.4671 29.1123 35.0968 28.6145 34.6555 28.1732C33.4363 26.954 31.8153 26.2826 30.0911 26.2826C28.3669 26.2826 26.7459 26.954 25.5267 28.1732C25.0853 28.6145 24.715 29.1123 24.4197 29.6569H22.429L32.3932 19.6928ZM33.8891 29.6569H26.2932C26.3996 29.5259 26.5126 29.3998 26.633 29.2795C27.5567 28.3557 28.7849 27.847 30.0912 27.847C31.3974 27.847 32.6256 28.3558 33.5493 29.2795C33.6697 29.3999 33.7827 29.5259 33.8891 29.6569ZM44.238 25.9287L45.9142 27.6049L44.238 29.281C43.6193 28.2539 43.6193 26.956 44.238 25.9287ZM35.1977 16.8884L36.8739 18.5645C35.874 19.1667 34.6179 19.1825 33.6043 18.6123C33.6394 18.5469 33.6643 18.4776 33.6795 18.4066L35.1977 16.8884ZM18.911 24.9637H20.1672L16.7989 28.3321C16.6488 28.023 16.5644 27.6764 16.5644 27.3103C16.5644 26.0164 17.6171 24.9637 18.911 24.9637ZM17.9109 29.4325L30.455 16.8884L31.7201 18.1535L20.2167 29.6569H18.911C18.5534 29.6569 18.2144 29.5762 17.9109 29.4325ZM45.6961 30.0354L47.5735 28.158C47.8789 27.8526 47.8789 27.3573 47.5735 27.0518L45.4855 24.9638H48.0085C49.3024 24.9638 50.3551 26.0165 50.3551 27.3104V38.4175H47.9303V33.5679C47.9303 32.0111 47.0159 30.6643 45.6961 30.0354ZM48.0085 49.2117H47.9303V46.2394H50.3551V46.8651C50.3551 48.159 49.3024 49.2117 48.0085 49.2117ZM53.4839 42.3284C53.4839 43.6223 52.4312 44.675 51.1373 44.675H36.9014C35.6075 44.675 34.5548 43.6223 34.5548 42.3284C34.5548 41.0345 35.6075 39.9818 36.9014 39.9818H51.2155C52.0636 39.9818 52.8483 39.7049 53.4839 39.2368V42.3284ZM51.9195 38.305V33.9931C52.8266 34.29 53.4839 35.144 53.4839 36.1491C53.4839 37.1541 52.8266 38.0081 51.9195 38.305Z" fill="#213F7D"/>
<path d="M37.058 41.5459C36.8523 41.5459 36.6505 41.6295 36.505 41.7751C36.3595 41.9206 36.2758 42.1224 36.2758 42.3281C36.2758 42.5338 36.3595 42.7356 36.505 42.881C36.6505 43.0265 36.8523 43.1103 37.058 43.1103C37.2637 43.1103 37.4655 43.0266 37.611 42.881C37.7565 42.7356 37.8402 42.5338 37.8402 42.3281C37.8402 42.1224 37.7565 41.9206 37.611 41.7751C37.4655 41.6296 37.2637 41.5459 37.058 41.5459Z" fill="#213F7D"/>
<path d="M36.0509 27.5342C36.2511 27.5342 36.4513 27.4577 36.604 27.3051L37.9635 25.9456C38.2689 25.6402 38.269 25.1449 37.9635 24.8393C37.658 24.5341 37.1627 24.534 36.8573 24.8393L35.4979 26.1988C35.1924 26.5042 35.1923 26.9995 35.4979 27.3051C35.6505 27.4578 35.8507 27.5342 36.0509 27.5342Z" fill="#213F7D"/>
</svg>
