<svg width="20" height="20" viewBox="0 0 20 20" fill="none" xmlns="http://www.w3.org/2000/svg">
<path d="M19.569 9.01693L18.9067 8.93327L19.3164 8.40674C19.4683 8.21061 19.451 7.93213 19.276 7.75635L18.576 7.05631C18.4004 6.88118 18.1219 6.86393 17.9259 7.01595L17.4001 7.42659L17.3171 6.76432C17.286 6.5179 17.0763 6.33317 16.828 6.33333H15.8387C15.6818 6.33529 15.5355 6.41292 15.4456 6.54167L15.0086 5.81331C15.1162 5.64144 15.106 5.4209 14.9831 5.2596L14.5734 4.7334L15.2357 4.65039C15.4821 4.6193 15.6668 4.40967 15.6667 4.1613V3.17204C15.6665 2.92399 15.4818 2.71468 15.2357 2.68359L14.5734 2.59993L14.9831 2.07341C15.1349 1.87728 15.1177 1.5988 14.9427 1.42301L14.2427 0.722982C14.0671 0.548014 13.7886 0.530762 13.5926 0.682617L13.0667 1.09326L12.9837 0.43099C12.9526 0.18457 12.743 -0.000162653 12.4946 1.07467e-07H11.5054C11.2573 0.000162868 11.048 0.184896 11.0169 0.43099L10.9333 1.09326L10.4067 0.683594C10.2106 0.531738 9.93213 0.548991 9.75635 0.723958L9.05631 1.42399C8.88135 1.59961 8.86409 1.87809 9.01595 2.07406L9.42659 2.59993L8.76432 2.68294C8.5179 2.71403 8.33317 2.92367 8.33333 3.17204V3.44108L5.34326 4.63867L4.78304 4.07829C4.54525 3.84049 4.16748 3.81706 3.90202 4.0236L2.48568 5.12533C2.40674 5.09017 2.33008 5.05827 2.2557 5.0293L2.03337 3.25374C1.99316 2.91943 1.70996 2.66764 1.37337 2.66667H0.666667V1.07467e-07H0V20H0.666667V17.3333H1.37337C1.70947 17.3325 1.99235 17.0815 2.03337 16.748L2.25505 14.9707C2.32943 14.9417 2.40609 14.9098 2.48503 14.8747L3.89827 15.9746C4.16553 16.1825 4.54557 16.1589 4.78499 15.9196L5.47266 15.2334L8.33333 16.4567V16.8267C8.33333 17.0762 8.51921 17.2866 8.7666 17.3177L9.42692 17.3989L9.01937 17.9237C8.86507 18.1195 8.882 18.3999 9.05859 18.5757L9.75863 19.2757C9.93392 19.4517 10.2131 19.4692 10.409 19.3167L10.9333 18.9074L11.015 19.568C11.0465 19.8153 11.2573 20.0005 11.5067 20H12.4933C12.7428 20 12.9533 19.8141 12.9844 19.5667L13.0656 18.9064L13.5903 19.314C13.7863 19.4679 14.0664 19.4512 14.2423 19.2747L14.9424 18.5747C15.1187 18.3996 15.1362 18.1203 14.9834 17.9243L14.5741 17.4001L15.2347 17.3184C15.4819 17.2868 15.6672 17.076 15.6667 16.8267V15.84C15.6665 15.5907 15.4808 15.3802 15.2334 15.3493L14.5741 15.2666L14.9816 14.742C15.1066 14.5807 15.1173 14.3586 15.0083 14.186L15.4456 13.4574C15.5352 13.5864 15.6815 13.6644 15.8387 13.6667H16.828C17.076 13.6665 17.2853 13.4818 17.3164 13.2357L17.4001 12.5734L17.9266 12.9831C18.1227 13.1353 18.4014 13.118 18.577 12.9427L19.277 12.2427C19.452 12.0671 19.4692 11.7886 19.3174 11.5926L18.9067 11.0667L19.569 10.9837C19.8154 10.9526 20.0002 10.743 20 10.4946V9.50537C19.9998 9.25732 19.8151 9.04801 19.569 9.01693ZM13.7993 7.35026L13.1937 6.34098L13.5936 6.65137C13.7897 6.80355 14.0684 6.7863 14.244 6.611L14.535 6.31966L15.1406 7.32894L14.7407 7.01872C14.5446 6.86686 14.2663 6.88411 14.0903 7.05892L13.7993 7.35026ZM9 3.32601L9.79036 3.22607C9.91683 3.21012 10.0231 3.12353 10.0643 3.00293C10.0926 2.92171 10.126 2.84245 10.1644 2.7653C10.2204 2.65088 10.2062 2.51449 10.1279 2.41406L9.63802 1.78597L10.1193 1.30469L10.7487 1.79362C10.8493 1.87191 10.9855 1.88607 11.0999 1.83008C11.1771 1.79167 11.2563 1.7583 11.3377 1.72998C11.4583 1.6888 11.5448 1.58252 11.5607 1.45605L11.6593 0.666667H12.3407L12.4406 1.45703C12.4565 1.5835 12.5431 1.68978 12.6637 1.73096C12.745 1.75928 12.8244 1.79264 12.9014 1.83105C13.0158 1.88704 13.1522 1.87288 13.2526 1.7946L13.882 1.30566L14.3633 1.78695L13.873 2.41536C13.7948 2.51595 13.7806 2.65218 13.8366 2.7666C13.875 2.84375 13.9084 2.92301 13.9367 3.00439C13.9779 3.125 14.0841 3.21143 14.2106 3.22738L15.001 3.32731V4.00863L14.2106 4.10872C14.0841 4.12451 13.9779 4.2111 13.9367 4.33171C13.9084 4.41292 13.875 4.49235 13.8366 4.56934C13.7806 4.68376 13.7948 4.82015 13.873 4.92074L14.362 5.54997L13.8807 6.03141L13.2513 5.54232C13.1514 5.46322 13.015 5.44808 12.9001 5.50325C12.8229 5.54167 12.7437 5.57503 12.6623 5.60335C12.5417 5.64453 12.4552 5.75081 12.4393 5.87728L12.3407 6.66667H11.6593L11.5594 5.8763C11.5435 5.74984 11.4569 5.64355 11.3363 5.60238C11.255 5.57406 11.1758 5.54069 11.0986 5.50228C10.9842 5.44629 10.8478 5.46045 10.7474 5.53874L10.118 6.02767L9.63672 5.54639L10.1257 4.91699C10.2039 4.81689 10.2186 4.68115 10.1634 4.56673C10.125 4.48958 10.0916 4.41032 10.0633 4.32894C10.0221 4.20833 9.91585 4.12191 9.78939 4.10596L9 4.00732V3.32601ZM0.666667 7.21501C1.92139 7.45719 2.82796 8.5555 2.82796 9.83333C2.82796 11.1112 1.92139 12.2095 0.666667 12.4517V7.21501ZM4.30859 15.4484L2.7334 14.2236C2.63346 14.1458 2.49805 14.1313 2.38395 14.1864C2.20882 14.2725 2.02816 14.3473 1.84326 14.4103C1.72135 14.451 1.63379 14.5581 1.618 14.6857L1.37337 16.6667H0.666667V13.13C2.29899 12.8859 3.507 11.4839 3.507 9.83333C3.507 8.18278 2.29899 6.78076 0.666667 6.53662V3.33333H1.37272L1.6193 5.31331C1.63509 5.44092 1.72282 5.54801 1.84473 5.5887C2.02946 5.65169 2.21012 5.72656 2.38525 5.81266C2.49935 5.86751 2.63477 5.85319 2.7347 5.77539L4.31169 4.54867L5.78141 6.0236L4.55697 7.59993C4.47917 7.69987 4.46468 7.83529 4.51969 7.94938C4.60579 8.12451 4.68066 8.30517 4.74365 8.49007C4.78434 8.61198 4.89144 8.69954 5.01904 8.71533L7 8.95996V11.0394L5.02002 11.286C4.89242 11.3018 4.78532 11.3895 4.74463 11.5114C4.68164 11.6961 4.60677 11.8768 4.52067 12.0519C4.46582 12.166 4.48014 12.3014 4.55794 12.4014L5.78467 13.9784L4.30859 15.4484ZM6.30859 13.569L5.20866 12.1527C5.24381 12.0737 5.27572 11.9971 5.30469 11.9227L7.0804 11.7013C7.41488 11.6608 7.6665 11.377 7.66667 11.04V8.95996C7.66585 8.62386 7.41488 8.34098 7.08138 8.29997L5.30404 8.07829C5.27506 8.00407 5.24316 7.92741 5.20801 7.84831L6.30794 6.43506C6.51562 6.16781 6.49202 5.78776 6.25293 5.54834L5.85661 5.15234L8.33333 4.15934V4.1613C8.3335 4.40934 8.51823 4.61865 8.76432 4.64974L9.42659 4.73275L9.01693 5.25928C8.86507 5.4554 8.88232 5.73389 9.05729 5.90967L9.75732 6.6097C9.93294 6.78483 10.2114 6.80208 10.4074 6.65006L10.9333 6.24007L11.0163 6.90234C11.0474 7.14876 11.257 7.3335 11.5054 7.33333H12.4946C12.6515 7.33138 12.7979 7.25374 12.8877 7.125L13.3247 7.85335C13.2171 8.02523 13.2274 8.24577 13.3503 8.40706L13.7599 8.93327L13.0977 9.01628C12.8512 9.04736 12.6665 9.257 12.6667 9.50537V10.4946C12.6668 10.7427 12.8516 10.952 13.0977 10.9831L13.7599 11.0661L13.3503 11.5926C13.2274 11.7541 13.2171 11.9746 13.3247 12.1466L12.8877 12.8747C12.7972 12.7459 12.6506 12.6686 12.4933 12.6667H11.5067C11.2572 12.6667 11.0467 12.8525 11.0156 13.0999L10.9333 13.7593L10.4087 13.3517C10.2129 13.1974 9.93262 13.2144 9.75667 13.3909L9.05664 14.091C8.88037 14.2661 8.86279 14.5454 9.01562 14.7414L9.42594 15.2666L8.7653 15.3483C8.55827 15.3765 8.39209 15.5332 8.35205 15.7383L5.98063 14.723L6.25505 14.4487C6.49235 14.2109 6.51579 13.8338 6.30973 13.5687L6.30859 13.569ZM14.242 13.3913C14.0667 13.2152 13.7876 13.1976 13.5916 13.3503L13.1943 13.6597L13.8 12.6514L14.091 12.9427C14.2666 13.118 14.5451 13.1353 14.741 12.9831L15.1409 12.6727L14.5334 13.6823L14.242 13.3913ZM15 15.992V16.6746L14.209 16.7723C14.0786 16.7887 13.9701 16.88 13.9316 17.0057C13.9058 17.085 13.8739 17.1621 13.8363 17.2367C13.7816 17.3506 13.7961 17.4858 13.8737 17.5856L14.3623 18.214L13.8797 18.6966L13.2513 18.208C13.1515 18.1304 13.0163 18.1159 12.9023 18.1707C12.8278 18.2082 12.7507 18.2401 12.6714 18.2659C12.5457 18.3044 12.4543 18.4129 12.438 18.5433L12.3413 19.3333H11.6587L11.561 18.5423C11.5446 18.4119 11.4533 18.3034 11.3276 18.265C11.2484 18.2391 11.1712 18.2072 11.0967 18.1696C10.9827 18.1149 10.8475 18.1294 10.7477 18.207L10.1193 18.6956L9.63672 18.2131L10.1253 17.5846C10.203 17.4849 10.2174 17.3496 10.1626 17.2357C10.1252 17.1611 10.0933 17.084 10.0674 17.0047C10.029 16.8791 9.92041 16.7876 9.79004 16.7713L9 16.6746V15.992L9.79101 15.8944C9.92139 15.8779 10.0299 15.7866 10.0684 15.661C10.0942 15.5817 10.1261 15.5046 10.1637 15.43C10.2184 15.3161 10.2039 15.1808 10.1263 15.0811L9.63769 14.4526L10.1203 13.9701L10.7487 14.4587C10.8485 14.5363 10.9837 14.5508 11.0977 14.4959C11.1722 14.4585 11.2493 14.4266 11.3286 14.4007C11.4543 14.3623 11.5457 14.2537 11.562 14.1234L11.6587 13.3333H12.3416L12.439 14.1234C12.4549 14.2541 12.5464 14.3631 12.6724 14.4017C12.7516 14.4276 12.8288 14.4595 12.9033 14.4971C13.0173 14.5518 13.1525 14.5373 13.2523 14.4596L13.8807 13.971L14.3633 14.4536L13.8747 15.082C13.797 15.1818 13.7826 15.3171 13.8374 15.431C13.8748 15.5055 13.9067 15.5827 13.9326 15.6619C13.971 15.7876 14.0796 15.8791 14.21 15.8953L15 15.992ZM19.3333 10.3407L18.543 10.4406C18.4165 10.4565 18.3102 10.5431 18.269 10.6637C18.2407 10.745 18.2074 10.8242 18.1689 10.9014C18.113 11.0158 18.1271 11.1522 18.2054 11.2526L18.6943 11.882L18.2131 12.3633L17.5837 11.8743C17.4836 11.7961 17.3478 11.7814 17.2334 11.8366C17.1562 11.875 17.077 11.9084 16.9956 11.9367C16.875 11.9779 16.7886 12.0841 16.7726 12.2106L16.674 13H15.9927L15.8927 12.2096C15.8768 12.0832 15.7902 11.9769 15.6696 11.9357C15.5884 11.9074 15.5091 11.874 15.432 11.8356C15.3175 11.7796 15.1812 11.7938 15.0807 11.8721L14.4513 12.361L13.9701 11.8797L14.459 11.2503C14.5373 11.1502 14.5519 11.0145 14.4967 10.9001C14.4583 10.8229 14.425 10.7437 14.3966 10.6623C14.3555 10.5417 14.2492 10.4552 14.1227 10.4393L13.3333 10.3407V9.65934L14.1237 9.55941C14.2502 9.54346 14.3564 9.45687 14.3976 9.33626C14.4259 9.25504 14.4593 9.17578 14.4977 9.09863C14.5537 8.98421 14.5395 8.84782 14.4613 8.7474L13.9723 8.118L14.4536 7.63672L15.083 8.12565C15.1836 8.20394 15.3198 8.2181 15.4344 8.16195C15.5114 8.1237 15.5908 8.09033 15.672 8.06201C15.7926 8.02083 15.8792 7.91439 15.895 7.78792L15.995 6.99772H16.6763L16.7764 7.78792C16.7922 7.91439 16.8787 8.02083 16.9993 8.06201C17.0806 8.09033 17.16 8.1237 17.237 8.16195C17.3514 8.2181 17.4878 8.20394 17.5884 8.12565L18.2176 7.63672L18.6991 8.118L18.21 8.7474C18.13 8.84749 18.1144 8.98454 18.1699 9.09993C18.2083 9.17708 18.2417 9.25635 18.27 9.33773C18.3112 9.45833 18.4175 9.54476 18.5439 9.56071L19.3343 9.66064L19.3333 10.3407Z" fill="white"/>
<path d="M16.3334 8.33301C15.413 8.33301 14.6667 9.07926 14.6667 9.99967C14.6667 10.9201 15.413 11.6663 16.3334 11.6663C17.2538 11.6663 18.0001 10.9201 18.0001 9.99967C17.9989 9.07959 17.2535 8.33415 16.3334 8.33301ZM16.3334 10.9997C15.7812 10.9997 15.3334 10.5519 15.3334 9.99967C15.3334 9.44743 15.7812 8.99967 16.3334 8.99967C16.8857 8.99967 17.3334 9.44743 17.3334 9.99967C17.3334 10.5519 16.8857 10.9997 16.3334 10.9997Z" fill="white"/>
<path d="M11.9999 5.33333C12.9203 5.33333 13.6666 4.58708 13.6666 3.66667C13.6666 2.74626 12.9203 2 11.9999 2C11.0795 2 10.3333 2.74626 10.3333 3.66667C10.3344 4.58675 11.0798 5.33219 11.9999 5.33333ZM11.9999 2.66667C12.5522 2.66667 12.9999 3.11442 12.9999 3.66667C12.9999 4.21891 12.5522 4.66667 11.9999 4.66667C11.4477 4.66667 10.9999 4.21891 10.9999 3.66667C10.9999 3.11442 11.4477 2.66667 11.9999 2.66667Z" fill="white"/>
<path d="M12 14.667C11.3341 14.6678 10.7329 15.0649 10.4704 15.6768C10.208 16.2887 10.3349 16.998 10.7933 17.481L10.7954 17.4826C11.3192 18.033 12.1489 18.1595 12.8128 17.7902C13.4767 17.4207 13.807 16.6491 13.6155 15.9139C13.4241 15.1786 12.7598 14.6659 12 14.667ZM12 17.3337C11.7275 17.3363 11.4665 17.2248 11.2799 17.026L11.0366 17.2536L11.2773 17.023C11.0989 16.8379 10.9995 16.5907 11 16.3337C11 15.7814 11.4477 15.3337 12 15.3337C12.5522 15.3337 13 15.7814 13 16.3337C13 16.8859 12.5522 17.3337 12 17.3337Z" fill="white"/>
</svg>
