<svg width="70" height="70" viewBox="0 0 70 70" fill="none" xmlns="http://www.w3.org/2000/svg">
<circle opacity="0.5" cx="35" cy="35" r="35" fill="#C1DFFF"/>
<path d="M54.138 33.0339L52.8135 32.8665L53.6328 31.8135C53.9365 31.4212 53.902 30.8643 53.5521 30.5127L52.152 29.1126C51.8008 28.7624 51.2438 28.7279 50.8519 29.0319L49.8001 29.8532L49.6341 28.5286C49.5719 28.0358 49.1527 27.6663 48.6559 27.6667H46.6774C46.3636 27.6706 46.071 27.8258 45.8913 28.0833L45.0173 26.6266C45.2324 26.2829 45.2119 25.8418 44.9661 25.5192L44.1468 24.4668L45.4714 24.3008C45.9642 24.2386 46.3337 23.8193 46.3333 23.3226V21.3441C46.333 20.848 45.9635 20.4294 45.4714 20.3672L44.1468 20.1999L44.9661 19.1468C45.2699 18.7546 45.2353 18.1976 44.8854 17.846L43.4853 16.446C43.1341 16.096 42.5771 16.0615 42.1852 16.3652L41.1335 17.1865L40.9674 15.862C40.9053 15.3691 40.486 14.9997 39.9893 15H38.0107C37.5146 15.0003 37.096 15.3698 37.0339 15.862L36.8665 17.1865L35.8135 16.3672C35.4212 16.0635 34.8643 16.098 34.5127 16.4479L33.1126 17.848C32.7627 18.1992 32.7282 18.7562 33.0319 19.1481L33.8532 20.1999L32.5286 20.3659C32.0358 20.4281 31.6663 20.8473 31.6667 21.3441V21.8822L25.6865 24.2773L24.5661 23.1566C24.0905 22.681 23.335 22.6341 22.804 23.0472L19.9714 25.2507C19.8135 25.1803 19.6602 25.1165 19.5114 25.0586L19.0667 21.5075C18.9863 20.8389 18.4199 20.3353 17.7467 20.3333H16.3333V15H15V55H16.3333V49.6667H17.7467C18.4189 49.665 18.9847 49.1631 19.0667 48.4961L19.5101 44.9414C19.6589 44.8835 19.8122 44.8197 19.9701 44.7493L22.7965 46.9492C23.3311 47.3649 24.0911 47.3177 24.57 46.8392L25.9453 45.4668L31.6667 47.9134V48.6533C31.6667 49.1523 32.0384 49.5732 32.5332 49.6354L33.8538 49.7978L33.0387 50.8473C32.7301 51.2389 32.764 51.7998 33.1172 52.1514L34.5173 53.5514C34.8678 53.9033 35.4261 53.9385 35.818 53.6335L36.8665 52.8148L37.0299 54.1361C37.0931 54.6305 37.5146 55.001 38.0133 55H39.9867C40.4857 55 40.9066 54.6283 40.9687 54.1335L41.1312 52.8128L42.1807 53.6279C42.5726 53.9359 43.1328 53.9023 43.4847 53.5495L44.8848 52.1494C45.2373 51.7992 45.2725 51.2406 44.9668 50.8486L44.1481 49.8001L45.4694 49.6367C45.9639 49.5736 46.3343 49.152 46.3333 48.6533V46.68C46.333 46.1813 45.9616 45.7604 45.4668 45.6986L44.1481 45.5332L44.9632 44.484C45.2132 44.1615 45.2347 43.7171 45.0166 43.3721L45.8913 41.9147C46.0703 42.1728 46.363 42.3288 46.6774 42.3333H48.6559C49.152 42.333 49.5706 41.9635 49.6328 41.4714L49.8001 40.1468L50.8532 40.9661C51.2454 41.2705 51.8027 41.236 52.154 40.8854L53.554 39.4853C53.904 39.1341 53.9385 38.5771 53.6348 38.1852L52.8135 37.1335L54.138 36.9674C54.6309 36.9053 55.0003 36.486 55 35.9893V34.0107C54.9997 33.5146 54.6302 33.096 54.138 33.0339ZM42.5986 29.7005L41.3874 27.682L42.1872 28.3027C42.5794 28.6071 43.1367 28.5726 43.488 28.222L44.07 27.6393L45.2812 29.6579L44.4814 29.0374C44.0892 28.7337 43.5326 28.7682 43.1807 29.1178L42.5986 29.7005ZM33 21.652L34.5807 21.4521C34.8337 21.4202 35.0462 21.2471 35.1286 21.0059C35.1852 20.8434 35.252 20.6849 35.3288 20.5306C35.4408 20.3018 35.4124 20.029 35.2559 19.8281L34.276 18.5719L35.2386 17.6094L36.4974 18.5872C36.6986 18.7438 36.971 18.7721 37.1999 18.6602C37.3542 18.5833 37.5127 18.5166 37.6755 18.46C37.9167 18.3776 38.0895 18.165 38.1214 17.9121L38.3187 16.3333H39.6813L39.8812 17.9141C39.9131 18.167 40.0863 18.3796 40.3275 18.4619C40.4899 18.5186 40.6488 18.5853 40.8027 18.6621C41.0316 18.7741 41.3044 18.7458 41.5052 18.5892L42.764 17.6113L43.7266 18.5739L42.7461 19.8307C42.5895 20.0319 42.5612 20.3044 42.6732 20.5332C42.75 20.6875 42.8167 20.846 42.8734 21.0088C42.9557 21.25 43.1683 21.4229 43.4212 21.4548L45.002 21.6546V23.0173L43.4212 23.2174C43.1683 23.249 42.9557 23.4222 42.8734 23.6634C42.8167 23.8258 42.75 23.9847 42.6732 24.1387C42.5612 24.3675 42.5895 24.6403 42.7461 24.8415L43.724 26.0999L42.7614 27.0628L41.5026 26.0846C41.3027 25.9264 41.0299 25.8962 40.8001 26.0065C40.6458 26.0833 40.4873 26.1501 40.3245 26.2067C40.0833 26.2891 39.9105 26.5016 39.8786 26.7546L39.6813 28.3333H38.3187L38.1188 26.7526C38.0869 26.4997 37.9137 26.2871 37.6725 26.2048C37.5101 26.1481 37.3516 26.0814 37.1973 26.0046C36.9684 25.8926 36.6956 25.9209 36.4948 26.0775L35.236 27.0553L34.2734 26.0928L35.2513 24.834C35.4079 24.6338 35.4372 24.3623 35.3268 24.1335C35.25 23.9792 35.1833 23.8206 35.1266 23.6579C35.0443 23.4167 34.8317 23.2438 34.5788 23.2119L33 23.0146V21.652ZM16.3333 29.43C18.8428 29.9144 20.6559 32.111 20.6559 34.6667C20.6559 37.2223 18.8428 39.4189 16.3333 39.9033V29.43ZM23.6172 45.8968L20.4668 43.4473C20.2669 43.2917 19.9961 43.2627 19.7679 43.3727C19.4176 43.5449 19.0563 43.6947 18.6865 43.8206C18.4427 43.902 18.2676 44.1162 18.236 44.3714L17.7467 48.3333H16.3333V41.2601C19.598 40.7718 22.014 37.9678 22.014 34.6667C22.014 31.3656 19.598 28.5615 16.3333 28.0732V21.6667H17.7454L18.2386 25.6266C18.2702 25.8818 18.4456 26.096 18.6895 26.1774C19.0589 26.3034 19.4202 26.4531 19.7705 26.6253C19.9987 26.735 20.2695 26.7064 20.4694 26.5508L23.6234 24.0973L26.5628 27.0472L24.1139 30.1999C23.9583 30.3997 23.9294 30.6706 24.0394 30.8988C24.2116 31.249 24.3613 31.6103 24.4873 31.9801C24.5687 32.224 24.7829 32.3991 25.0381 32.4307L29 32.9199V37.0788L25.04 37.5719C24.7848 37.6035 24.5706 37.779 24.4893 38.0228C24.3633 38.3923 24.2135 38.7536 24.0413 39.1038C23.9316 39.332 23.9603 39.6029 24.1159 39.8027L26.5693 42.9567L23.6172 45.8968ZM27.6172 42.138L25.4173 39.3053C25.4876 39.1475 25.5514 38.9941 25.6094 38.8454L29.1608 38.4027C29.8298 38.3216 30.333 37.7539 30.3333 37.0801V32.9199C30.3317 32.2477 29.8298 31.682 29.1628 31.5999L25.6081 31.1566C25.5501 31.0081 25.4863 30.8548 25.416 30.6966L27.6159 27.8701C28.0312 27.3356 27.984 26.5755 27.5059 26.0967L26.7132 25.3047L31.6667 23.3187V23.3226C31.667 23.8187 32.0365 24.2373 32.5286 24.2995L33.8532 24.4655L33.0339 25.5186C32.7301 25.9108 32.7646 26.4678 33.1146 26.8193L34.5146 28.2194C34.8659 28.5697 35.4228 28.6042 35.8148 28.3001L36.8665 27.4801L37.0326 28.8047C37.0947 29.2975 37.514 29.667 38.0107 29.6667H39.9893C40.3031 29.6628 40.5957 29.5075 40.7754 29.25L41.6494 30.7067C41.4342 31.0505 41.4548 31.4915 41.7005 31.8141L42.5199 32.8665L41.1953 33.0326C40.7025 33.0947 40.333 33.514 40.3333 34.0107V35.9893C40.3337 36.4853 40.7031 36.904 41.1953 36.9661L42.5199 37.1322L41.7005 38.1852C41.4548 38.5081 41.4342 38.9492 41.6494 39.2933L40.7754 40.7493C40.5944 40.4919 40.3011 40.3372 39.9867 40.3333H38.0133C37.5143 40.3333 37.0934 40.7051 37.0312 41.1999L36.8665 42.5186L35.8174 41.7034C35.4258 41.3949 34.8652 41.4287 34.5133 41.7819L33.1133 43.182C32.7607 43.5322 32.7256 44.0908 33.0312 44.4827L33.8519 45.5332L32.5306 45.6966C32.1165 45.7529 31.7842 46.0664 31.7041 46.4766L26.9613 44.446L27.5101 43.8975C27.9847 43.4219 28.0316 42.6676 27.6195 42.1374L27.6172 42.138ZM43.484 41.7826C43.1335 41.4303 42.5752 41.3952 42.1833 41.7005L41.3887 42.3193L42.5999 40.3027L43.182 40.8854C43.5332 41.236 44.0902 41.2705 44.4821 40.9661L45.2819 40.3454L44.0667 42.3646L43.484 41.7826ZM45 46.984V48.3493L43.418 48.5446C43.1572 48.5775 42.9401 48.7601 42.8633 49.0114C42.8115 49.1699 42.7477 49.3242 42.6725 49.4733C42.5631 49.7012 42.5921 49.9717 42.7474 50.1712L43.7246 51.4281L42.7594 52.3932L41.5026 51.416C41.3031 51.2607 41.0326 51.2318 40.8047 51.3415C40.6556 51.4163 40.5013 51.4801 40.3428 51.5319C40.0915 51.6087 39.9085 51.8258 39.876 52.0866L39.6826 53.6667H38.3174L38.1221 52.0846C38.0892 51.8239 37.9066 51.6068 37.6553 51.5299C37.4967 51.4782 37.3424 51.4144 37.1934 51.3392C36.9655 51.2298 36.695 51.2588 36.4954 51.4141L35.2386 52.3913L34.2734 51.4261L35.2507 50.1693C35.4059 49.9697 35.4349 49.6992 35.3252 49.4714C35.2503 49.3223 35.1865 49.168 35.1348 49.0094C35.0579 48.7581 34.8408 48.5752 34.5801 48.5426L33 48.3493V46.984L34.582 46.7887C34.8428 46.7559 35.0599 46.5732 35.1367 46.3219C35.1885 46.1634 35.2523 46.0091 35.3275 45.86C35.4368 45.6322 35.4079 45.3617 35.2526 45.1621L34.2754 43.9053L35.2406 42.9401L36.4974 43.9173C36.6969 44.0726 36.9674 44.1016 37.1953 43.9919C37.3444 43.917 37.4987 43.8532 37.6572 43.8014C37.9085 43.7246 38.0915 43.5075 38.124 43.2467L38.3174 41.6667H39.6833L39.8779 43.2467C39.9098 43.5081 40.0928 43.7262 40.3447 43.8034C40.5033 43.8551 40.6576 43.9189 40.8066 43.9941C41.0345 44.1035 41.305 44.0745 41.5046 43.9193L42.7614 42.9421L43.7266 43.9072L42.7493 45.1641C42.5941 45.3636 42.5651 45.6341 42.6748 45.862C42.7497 46.0111 42.8135 46.1654 42.8652 46.3239C42.9421 46.5752 43.1592 46.7581 43.4199 46.7907L45 46.984ZM53.6667 35.6813L52.0859 35.8812C51.833 35.9131 51.6204 36.0863 51.5381 36.3275C51.4814 36.4899 51.4147 36.6484 51.3379 36.8027C51.2259 37.0316 51.2542 37.3044 51.4108 37.5052L52.3887 38.764L51.4261 39.7266L50.1673 38.7487C49.9671 38.5921 49.6956 38.5628 49.4668 38.6732C49.3125 38.75 49.154 38.8167 48.9912 38.8734C48.75 38.9557 48.5771 39.1683 48.5452 39.4212L48.348 41H46.9853L46.7855 39.4193C46.7536 39.1663 46.5804 38.9538 46.3392 38.8714C46.1768 38.8148 46.0182 38.748 45.8639 38.6712C45.6351 38.5592 45.3623 38.5876 45.1615 38.7441L43.9027 39.722L42.9401 38.7594L43.918 37.5007C44.0745 37.3005 44.1038 37.029 43.9935 36.8001C43.9167 36.6458 43.8499 36.4873 43.7933 36.3245C43.7109 36.0833 43.4984 35.9105 43.2454 35.8786L41.6667 35.6813V34.3187L43.2474 34.1188C43.5003 34.0869 43.7129 33.9137 43.7952 33.6725C43.8519 33.5101 43.9186 33.3516 43.9954 33.1973C44.1074 32.9684 44.0791 32.6956 43.9225 32.4948L42.9447 31.236L43.9072 30.2734L45.166 31.2513C45.3672 31.4079 45.6396 31.4362 45.8688 31.3239C46.0228 31.2474 46.1816 31.1807 46.3441 31.124C46.5853 31.0417 46.7585 30.8288 46.79 30.5758L46.9899 28.9954H48.3525L48.5527 30.5758C48.5843 30.8288 48.7575 31.0417 48.9987 31.124C49.1611 31.1807 49.32 31.2474 49.474 31.3239C49.7028 31.4362 49.9756 31.4079 50.1768 31.2513L51.4352 30.2734L52.3981 31.236L51.4199 32.4948C51.2601 32.695 51.2288 32.9691 51.3398 33.1999C51.4167 33.3542 51.4834 33.5127 51.54 33.6755C51.6224 33.9167 51.835 34.0895 52.0879 34.1214L53.6686 34.3213L53.6667 35.6813Z" fill="#1D3774"/>
<path d="M47.6662 31.667C45.8253 31.667 44.3328 33.1595 44.3328 35.0003C44.3328 36.8411 45.8253 38.3337 47.6662 38.3337C49.507 38.3337 50.9995 36.8411 50.9995 35.0003C50.9972 33.1602 49.5063 31.6693 47.6662 31.667ZM47.6662 37.0003C46.5617 37.0003 45.6662 36.1048 45.6662 35.0003C45.6662 33.8958 46.5617 33.0003 47.6662 33.0003C48.7706 33.0003 49.6662 33.8958 49.6662 35.0003C49.6662 36.1048 48.7706 37.0003 47.6662 37.0003Z" fill="#1D3774"/>
<path d="M39.0005 25.6667C40.8413 25.6667 42.3338 24.1742 42.3338 22.3333C42.3338 20.4925 40.8413 19 39.0005 19C37.1597 19 35.6672 20.4925 35.6672 22.3333C35.6695 24.1735 37.1603 25.6644 39.0005 25.6667ZM39.0005 20.3333C40.105 20.3333 41.0005 21.2288 41.0005 22.3333C41.0005 23.4378 40.105 24.3333 39.0005 24.3333C37.896 24.3333 37.0005 23.4378 37.0005 22.3333C37.0005 21.2288 37.896 20.3333 39.0005 20.3333Z" fill="#1D3774"/>
<path d="M39.0002 44.333C37.6685 44.3346 36.466 45.1289 35.9409 46.3525C35.4162 47.5765 35.6701 48.9951 36.5867 49.9609L36.591 49.9642C37.6385 51.0651 39.298 51.318 40.6258 50.5794C41.9536 49.8405 42.6141 48.2972 42.2313 46.8268C41.8485 45.3561 40.5197 44.3307 39.0002 44.333ZM39.0002 49.6663C38.4552 49.6716 37.9331 49.4486 37.5601 49.0511L37.0734 49.5062L37.5548 49.0449C37.1981 48.6748 36.9992 48.1803 37.0002 47.6663C37.0002 46.5619 37.8957 45.6663 39.0002 45.6663C40.1046 45.6663 41.0002 46.5619 41.0002 47.6663C41.0002 48.7708 40.1046 49.6663 39.0002 49.6663Z" fill="#1D3774"/>
</svg>
