<svg width="16" height="22" viewBox="0 0 16 22" fill="none" xmlns="http://www.w3.org/2000/svg">
<g opacity="0.8">
<path d="M8.00035 10.4182C10.8775 10.4182 13.2094 8.0858 13.2094 5.20909C13.2094 2.33199 10.8775 0 8.00035 0C5.12325 0 2.79126 2.33199 2.79126 5.20909C2.7948 8.08423 5.12482 10.4142 8.00035 10.4182ZM8.00035 2.02499C9.7644 2.02499 11.1943 3.45488 11.1943 5.21893C11.1943 6.98298 9.7644 8.41326 8.00035 8.41326C6.23631 8.41326 4.80641 6.98298 4.80641 5.21893C4.80681 3.45528 6.2367 2.02578 8.00035 2.02499Z" fill="#A0A1BB"/>
<path d="M8 12.343C5.86874 12.3272 3.82328 13.1825 2.3375 14.7108C0.826134 16.252 0 18.3479 0 20.6251C0.00157444 21.1809 0.451442 21.6311 1.00758 21.6327H14.9924C15.5486 21.6311 15.9984 21.1809 16 20.6251C16 18.3479 15.1739 16.252 13.6625 14.7108C12.1767 13.1825 10.1313 12.3272 8 12.343ZM2.0856 19.6176C2.25799 18.3003 2.85191 17.0739 3.77841 16.1214C4.89344 14.993 6.41385 14.3581 8 14.3581C9.58615 14.3581 11.1066 14.993 12.2216 16.1214C13.1461 17.075 13.7396 18.3006 13.9144 19.6176H2.0856Z" fill="#A0A1BB"/>
</g>
</svg>
