<svg width="70" height="70" viewBox="0 0 70 70" fill="none" xmlns="http://www.w3.org/2000/svg">
<circle opacity="0.5" cx="35" cy="35" r="35" fill="#C1DFFF"/>
<path d="M21 30.6992C21 23.1454 27.1452 17 34.6992 17C40.9526 17 46.2275 21.2157 47.8643 26.9514C47.565 27.2754 47.3556 27.6862 47.2969 28.1513L47.1473 29.3467L46.8934 30.7006L45.4935 30.6992C45.4935 24.7467 40.6505 19.9043 34.6992 19.9043C28.7464 19.9043 23.9036 24.7468 23.9036 30.6992C23.9036 34.7368 26.1359 38.2578 29.427 40.1095L27.316 42.2203C23.5234 39.7808 21 35.5332 21 30.6992ZM34.6992 22.0949C33.8967 22.0949 33.2475 22.7454 33.2475 23.5469V30.6992C33.2475 31.5008 33.8968 32.151 34.6992 32.151H42.9142C43.7165 32.151 44.3662 31.5008 44.3662 30.6992C44.3662 29.897 43.7165 29.2467 42.9142 29.2467H36.1513V23.5469C36.1513 22.7454 35.5006 22.0949 34.6992 22.0949ZM49.8211 28.4956C49.8111 28.1158 49.51 27.808 49.1316 27.7885C48.7689 27.7677 48.4222 28.045 48.3744 28.4233L48.2194 29.6618L47.948 31.1079C47.8358 31.6094 47.7202 32.1278 47.5048 32.6914L47.1794 33.6433L46.7181 34.658C46.5532 35.074 46.3032 35.4929 46.038 35.9367C45.9035 36.1612 45.7676 36.3881 45.6402 36.6201C45.5066 36.8005 45.3759 36.9838 45.2461 37.1685C44.9042 37.6502 44.5822 38.1053 44.1497 38.5585C43.7741 39.0274 43.3233 39.4466 42.8479 39.8898C42.7077 40.0206 42.5684 40.1503 42.4306 40.282C42.2762 40.3995 42.1232 40.5183 41.9721 40.6362C41.4664 41.0303 40.9903 41.4016 40.423 41.7274C39.9854 42.0324 39.4853 42.2792 39.0026 42.5164C38.8009 42.6159 38.6006 42.7144 38.4064 42.8157C38.1602 42.9042 37.9206 42.9995 37.6842 43.0942C37.2418 43.2709 36.8245 43.4371 36.3822 43.5347L35.4223 43.8008L34.4787 43.9619C33.9984 44.0651 33.576 44.0888 33.1668 44.1134L32.3977 44.1721L32.289 44.1693V40.7817C32.289 40.4886 32.1123 40.2233 31.8407 40.1106C31.5684 39.9988 31.2575 40.0604 31.0489 40.2678L24.8023 46.5144C24.6664 46.6508 24.5899 46.8355 24.5899 47.0278C24.5899 47.2201 24.6664 47.4047 24.8023 47.5411L31.049 53.7879C31.1883 53.9262 31.3739 54 31.5626 54C31.6561 54 31.7509 53.982 31.8409 53.945C32.1125 53.8323 32.2892 53.5671 32.2892 53.2734V49.7333L33.6261 49.4884C34.2444 49.3606 35.0142 49.2005 35.7513 48.9272L36.6107 48.6387L38.0353 48.0363C38.6358 47.7995 39.2046 47.4671 39.7544 47.1455C39.9894 47.0076 40.227 46.8689 40.4695 46.7359C40.4961 46.7211 40.5207 46.705 40.5463 46.6875C40.7357 46.5511 40.928 46.4166 41.1218 46.2817C41.7085 45.8744 42.3142 45.4523 42.8328 44.965C43.4731 44.455 44.0324 43.864 44.5733 43.2918L44.9659 42.8788C44.9825 42.8608 44.999 42.8424 45.0151 42.8225L45.3703 42.3731C45.8539 41.765 46.3554 41.1342 46.7333 40.4873C47.1577 39.8811 47.4769 39.2493 47.7857 38.6374C47.8918 38.4261 47.9979 38.2168 48.1059 38.0122C48.12 37.9838 48.1338 37.9554 48.1446 37.926C48.2413 37.6665 48.3445 37.4132 48.4468 37.1645C48.6722 36.6132 48.9048 36.044 49.0359 35.4851L49.3713 34.294L49.5617 33.2464C49.7136 32.5559 49.7577 31.9239 49.7966 31.3667L49.8668 30.419L49.8211 28.4956Z" fill="#1D3774"/>
</svg>
