<svg width="70" height="70" viewBox="0 0 70 70" fill="none" xmlns="http://www.w3.org/2000/svg">
<circle opacity="0.5" cx="35" cy="35" r="35" fill="#C1DFFF"/>
<path d="M34.6318 37.2636C39.9516 37.2636 44.2636 32.9509 44.2636 27.6318C44.2636 22.3119 39.9516 18 34.6318 18C29.3119 18 25 22.3119 25 27.6318C25.0065 32.948 29.3148 37.2563 34.6318 37.2636ZM34.6318 21.7443C37.8936 21.7443 40.5375 24.3882 40.5375 27.65C40.5375 30.9117 37.8936 33.5564 34.6318 33.5564C31.37 33.5564 28.7261 30.9117 28.7261 27.65C28.7268 24.3889 31.3707 21.7457 34.6318 21.7443Z" fill="#1D3774"/>
<path d="M34.7923 37.8227C30.8515 37.7936 27.0694 39.3749 24.3221 42.2008C21.5275 45.0506 20 48.9259 20 53.1366C20.0029 54.1642 20.8347 54.9968 21.863 54.9997H47.7215C48.7498 54.9968 49.5816 54.1642 49.5845 53.1366C49.5845 48.9259 48.057 45.0506 45.2624 42.2008C42.5151 39.3749 38.733 37.7936 34.7923 37.8227ZM23.8564 51.2736C24.1751 48.8378 25.2733 46.5702 26.9864 44.809C29.0481 42.7226 31.8594 41.5487 34.7923 41.5487C37.7251 41.5487 40.5364 42.7226 42.5981 44.809C44.3076 46.5724 45.405 48.8386 45.7282 51.2736H23.8564Z" fill="#1D3774"/>
</svg>
