<svg width="50" height="50" viewBox="0 0 50 50" fill="none" xmlns="http://www.w3.org/2000/svg">
<circle opacity="0.5" cx="25" cy="25" r="25" fill="#99B7F5" fill-opacity="0.5"/>
<path d="M21.0371 37.1538H29.4973V37.9998H21.0371V37.1538Z" fill="#DD6A2A"/>
<path d="M32.4586 20.2335C32.4586 16.2573 29.2438 13.0423 25.3097 13C21.3334 13 18.1185 16.2149 18.0762 20.1488C18.0762 21.3334 18.3724 22.5178 18.9222 23.5753L25.2674 34.9966L31.6125 23.5753C32.1626 22.5601 32.4586 21.4179 32.4586 20.2335Z" fill="url(#paint0_linear)"/>
<path d="M30.3437 20.2334C30.3437 23.0368 28.071 25.3095 25.2675 25.3095C22.4641 25.3095 20.1914 23.0368 20.1914 20.2334C20.1914 17.4299 22.4641 15.1572 25.2675 15.1572C28.071 15.1572 30.3437 17.4299 30.3437 20.2334Z" fill="#FEFEFE"/>
<path d="M37.1111 22.3483H36.2651V20.6562C36.2651 20.4024 36.096 20.2332 35.8421 20.2332H33.7271V19.3872H35.8421C36.5613 19.3872 37.1111 19.937 37.1111 20.6562V22.3483Z" fill="#213F7D"/>
<path d="M36.2649 32.5005H33.3039C32.5849 32.5005 32.0348 31.9504 32.0348 31.2314V29.9624C32.0348 29.7085 31.8657 29.5394 31.6118 29.5394H30.3428V28.6934H31.6118C32.331 28.6934 32.8808 29.2432 32.8808 29.9624V31.2314C32.8808 31.4853 33.0502 31.6544 33.3039 31.6544H36.2649V32.5005Z" fill="#213F7D"/>
<path d="M36.2649 28.2703H35.4189V26.1553C35.4189 25.9014 35.2498 25.7323 34.9959 25.7323H32.8809V24.8862H34.9959C35.7151 24.8862 36.2649 25.4361 36.2649 26.1553V28.2703Z" fill="#213F7D"/>
<path d="M34.996 35.8846H28.6509C27.9319 35.8846 27.3818 35.3345 27.3818 34.6156V33.7695H28.2279V34.6156C28.2279 34.8694 28.3972 35.0386 28.6509 35.0386H34.996V35.8846Z" fill="#213F7D"/>
<path d="M36.2658 35.4617C36.2658 35.929 35.8872 36.3078 35.4198 36.3078C34.9525 36.3078 34.5737 35.929 34.5737 35.4617C34.5737 34.9945 34.9525 34.6157 35.4198 34.6157C35.8872 34.6157 36.2658 34.9945 36.2658 35.4617Z" fill="#DD6A2A"/>
<path d="M37.5348 32.078C37.5348 32.5452 37.1562 32.924 36.6888 32.924C36.2216 32.924 35.8428 32.5452 35.8428 32.078C35.8428 31.6107 36.2216 31.2319 36.6888 31.2319C37.1562 31.2319 37.5348 31.6107 37.5348 32.078Z" fill="#DD6A2A"/>
<path d="M36.6886 28.6937C36.6886 29.1609 36.31 29.5397 35.8426 29.5397C35.3754 29.5397 34.9966 29.1609 34.9966 28.6937C34.9966 28.2265 35.3754 27.8477 35.8426 27.8477C36.31 27.8477 36.6886 28.2265 36.6886 28.6937Z" fill="#DD6A2A"/>
<path d="M35.8426 18.1186H33.7275V17.2726H35.8426C36.0964 17.2726 36.2656 17.1034 36.2656 16.8496V14.3115H37.1116V16.8496C37.1116 17.5686 36.5618 18.1186 35.8426 18.1186Z" fill="#213F7D"/>
<path d="M37.5348 13.8885C37.5348 14.3557 37.1562 14.7345 36.6888 14.7345C36.2216 14.7345 35.8428 14.3557 35.8428 13.8885C35.8428 13.4213 36.2216 13.0425 36.6888 13.0425C37.1562 13.0425 37.5348 13.4213 37.5348 13.8885Z" fill="#DD6A2A"/>
<path d="M37.5348 22.7718C37.5348 23.239 37.1562 23.6178 36.6888 23.6178C36.2216 23.6178 35.8428 23.239 35.8428 22.7718C35.8428 22.3046 36.2216 21.9258 36.6888 21.9258C37.1562 21.9258 37.5348 22.3046 37.5348 22.7718Z" fill="#DD6A2A"/>
<path d="M14.2689 21.9254H13.4229V20.2334C13.4229 19.5142 13.9729 18.9644 14.6919 18.9644H16.8069V19.8104H14.6919C14.4382 19.8104 14.2689 19.9795 14.2689 20.2334V21.9254Z" fill="#213F7D"/>
<path d="M17.2301 32.5009H14.269V31.6549H17.2301C17.484 31.6549 17.6531 31.4858 17.6531 31.2319V29.9629C17.6531 29.2437 18.2032 28.6938 18.9222 28.6938H20.1912V29.5399H18.9222C18.6685 29.5399 18.4992 29.709 18.4992 29.9629V31.2319C18.4992 31.9509 17.9493 32.5009 17.2301 32.5009Z" fill="#213F7D"/>
<path d="M15.1151 28.271H14.269V25.7329C14.269 25.0137 14.8191 24.4639 15.5381 24.4639H17.6531V25.3099H15.5381C15.2844 25.3099 15.1151 25.4791 15.1151 25.7329V28.271Z" fill="#213F7D"/>
<path d="M21.8833 35.8851H15.5381V35.0391H21.8833C22.1371 35.0391 22.3063 34.8699 22.3063 34.616V33.77H23.1523V34.616C23.1523 35.335 22.6025 35.8851 21.8833 35.8851Z" fill="#213F7D"/>
<path d="M15.9611 35.4617C15.9611 35.929 15.5825 36.3078 15.1151 36.3078C14.6479 36.3078 14.269 35.929 14.269 35.4617C14.269 34.9945 14.6479 34.6157 15.1151 34.6157C15.5825 34.6157 15.9611 34.9945 15.9611 35.4617Z" fill="#DD6A2A"/>
<path d="M14.692 32.078C14.692 32.5452 14.3134 32.924 13.846 32.924C13.3788 32.924 13 32.5452 13 32.078C13 31.6107 13.3788 31.2319 13.846 31.2319C14.3134 31.2319 14.692 31.6107 14.692 32.078Z" fill="#DD6A2A"/>
<path d="M15.5382 28.6937C15.5382 29.1609 15.1596 29.5397 14.6922 29.5397C14.225 29.5397 13.8462 29.1609 13.8462 28.6937C13.8462 28.2265 14.225 27.8477 14.6922 27.8477C15.1596 27.8477 15.5382 28.2265 15.5382 28.6937Z" fill="#DD6A2A"/>
<path d="M16.8069 18.1186H14.6919C13.9729 18.1186 13.4229 17.5686 13.4229 16.8496V14.3115H14.2689V16.8496C14.2689 17.1034 14.4382 17.2726 14.6919 17.2726H16.8069V18.1186Z" fill="#213F7D"/>
<path d="M14.692 13.8885C14.692 14.3557 14.3134 14.7345 13.846 14.7345C13.3788 14.7345 13 14.3557 13 13.8885C13 13.4213 13.3788 13.0425 13.846 13.0425C14.3134 13.0425 14.692 13.4213 14.692 13.8885Z" fill="#DD6A2A"/>
<path d="M14.692 22.3485C14.692 22.8157 14.3134 23.1945 13.846 23.1945C13.3788 23.1945 13 22.8157 13 22.3485C13 21.8813 13.3788 21.5024 13.846 21.5024C14.3134 21.5024 14.692 21.8813 14.692 22.3485Z" fill="#DD6A2A"/>
<defs>
<linearGradient id="paint0_linear" x1="32.4586" y1="13" x2="12.6886" y2="27.7998" gradientUnits="userSpaceOnUse">
<stop stop-color="#0A0A0E"/>
<stop offset="1" stop-color="#213F7D"/>
</linearGradient>
</defs>
</svg>
