<svg width="17" height="17" viewBox="0 0 17 17" fill="none" xmlns="http://www.w3.org/2000/svg">
<g opacity="0.8">
<path d="M8.00002 15.5168H1.99999C1.63198 15.5168 1.33334 15.2181 1.33334 14.8501V2.85012C1.33334 2.48211 1.63202 2.18347 1.99999 2.18347H8.00002C8.36868 2.18347 8.66667 1.88547 8.66667 1.51681C8.66667 1.14815 8.36868 0.850098 8.00002 0.850098H1.99999C0.897325 0.850098 0 1.74745 0 2.85012V14.8501C0 15.9528 0.897325 16.8501 1.99999 16.8501H8.00002C8.36868 16.8501 8.66667 16.5521 8.66667 16.1834C8.66667 15.8148 8.36868 15.5168 8.00002 15.5168Z" fill="black"/>
<path d="M15.8548 8.37553L11.8015 4.37552C11.5401 4.11685 11.1175 4.12021 10.8588 4.3822C10.6001 4.6442 10.6028 5.06619 10.8655 5.32486L13.7622 8.18352H6.00015C5.63149 8.18352 5.3335 8.48151 5.3335 8.85017C5.3335 9.21883 5.63149 9.51685 6.00015 9.51685H13.7622L10.8655 12.3755C10.6028 12.6342 10.6008 13.0562 10.8588 13.3182C10.9895 13.4502 11.1615 13.5168 11.3335 13.5168C11.5028 13.5168 11.6721 13.4528 11.8015 13.3248L15.8548 9.32481C15.9815 9.19949 16.0535 9.02879 16.0535 8.85014C16.0535 8.67155 15.9822 8.50154 15.8548 8.37553Z" fill="black"/>
</g>
</svg>
