<svg width="843" height="732" viewBox="0 0 843 732" fill="none" xmlns="http://www.w3.org/2000/svg">
<path opacity="0.05" d="M961.527 546.359C961.053 551.38 960.129 556.353 958.766 561.221C955.675 572.465 950.999 583.246 944.87 593.258C909.382 653.151 839.953 687.752 770.009 701.831C700.065 715.91 627.894 712.884 556.495 716.07C460.249 720.342 364.149 736.04 267.792 731.021C222.115 728.561 176.833 721.468 132.689 709.858C-80.125 709.858 23.9077 395.585 36.1479 276.44C41.4305 225.108 47.5967 171.303 77.8935 128.853C113.731 78.5532 177.177 53.4926 239.262 42.5997C301.347 31.7069 365.198 32.2586 427.007 19.7461C527.855 -0.722511 625.354 -55.9521 727.03 -40.218C826.848 -24.7865 907.836 67.1264 907.781 164.842C907.781 233.438 875.588 301.643 894.068 369.955C910.137 429.296 967.785 481.838 961.527 546.359Z" fill="#213F7D"/>
<path opacity="0.5" d="M546.92 638.501L365.674 532.897C362.813 531.23 362.813 527.065 365.674 525.4L537.187 425.479L728.783 537.114C731.643 538.779 731.643 542.946 728.783 544.612L567.621 638.501C561.216 642.233 553.325 642.232 546.92 638.501Z" fill="#173D7A"/>
<path d="M541.421 362.755C541.431 351.079 533.213 346.321 523.101 352.15L351.217 451.235C348.437 452.837 346.18 456.74 346.177 459.95C346.175 463.16 348.426 464.464 351.207 462.861L523.09 363.777C527.651 361.148 531.357 363.293 531.353 368.559L531.336 387.792C534.671 387.583 538.019 387.581 541.4 387.639L541.421 362.755Z" fill="#D4ECFF"/>
<path d="M351.143 497.445L523.027 434.777C533.139 428.948 541.374 414.706 541.384 403.03L541.399 387.639C538.018 387.581 534.671 387.583 531.335 387.792L531.316 408.834C531.311 414.101 527.598 420.522 523.037 423.151L351.153 485.819C348.373 487.421 346.117 491.324 346.113 494.534C346.111 497.743 348.362 499.046 351.143 497.445Z" fill="#5793CE"/>
<path d="M347.415 497.675L556.505 618.726L733.53 513.098L747.576 492.126L746.118 499.556L742.344 480.102L413.737 492.643L355.842 488.912L347.415 497.675Z" fill="#5793CE"/>
<path d="M354.348 461.145L354.292 486.896L556.376 603.872L561.836 579.329L354.348 461.145Z" fill="#86B8E0"/>
<path d="M744.97 471.823L536.213 350.983L347.997 460.496L347.607 463.185L556.673 584.201L744.97 471.823Z" fill="#D4ECFF"/>
<path d="M678.419 533.877L727.502 504.747C731.638 501.839 734.88 495.963 734.884 491.05L734.92 487.193C734.923 484.073 733.617 482.061 731.609 481.475L634.987 535.255L556.303 577.834L556.375 603.872L678.419 533.877Z" fill="white"/>
<path d="M563.359 580.211L355.926 460.139L351.529 457.594L347.513 455.27C346.691 456.778 346.177 458.438 346.176 459.95C346.174 461.528 346.721 462.638 347.606 463.176L347.608 463.185L347.64 463.204L347.656 463.214L556.672 584.203L563.359 580.211Z" fill="#5793CE"/>
<path d="M553.898 617.218L556.505 618.727L556.985 617.895L555.362 616.617L553.898 617.218Z" fill="white"/>
<path d="M553.966 582.63L556.637 584.177L555.968 582.717L553.966 582.63Z" fill="white"/>
<path d="M560.28 572.25L732.164 473.167C742.276 467.338 750.494 472.095 750.484 483.772L750.447 487.629C750.437 499.305 742.202 513.547 732.089 519.376L560.206 618.46C557.425 620.061 555.174 618.758 555.176 615.549C555.179 612.339 557.436 608.437 560.216 606.834L732.1 507.751C736.661 505.121 740.374 498.7 740.379 493.433L740.416 489.576C740.421 484.309 736.715 482.165 732.153 484.794L560.269 583.877C557.489 585.479 555.237 584.176 555.24 580.967C555.243 577.755 557.5 573.854 560.28 572.25Z" fill="#D4ECFF"/>
<path d="M483.727 476.187L573.046 424.698L650.51 469.537L561.191 521.026L483.727 476.187Z" fill="white"/>
<path d="M555.176 615.549C555.179 612.338 557.436 608.437 560.216 606.834L732.1 507.75C736.661 505.121 740.374 498.699 740.379 493.433L740.416 489.575C740.418 486.127 738.825 484.03 736.45 483.722C737.215 484.727 737.664 486.163 737.661 487.981L737.625 491.84C737.62 497.107 733.906 503.528 729.346 506.158L557.462 605.241C554.681 606.843 552.424 610.746 552.422 613.956C552.421 616.389 553.714 617.718 555.551 617.527C555.313 616.985 555.176 616.326 555.176 615.549Z" fill="white"/>
<path d="M555.24 580.965C555.243 577.756 557.5 573.853 560.28 572.25L732.164 473.166C736.519 470.655 740.517 470.118 743.663 471.242C740.303 468.374 735.166 468.252 729.409 471.572L557.526 570.655C554.745 572.257 552.49 576.16 552.486 579.37C552.483 581.803 553.778 583.132 555.615 582.941C555.375 582.403 555.24 581.743 555.24 580.965Z" fill="white"/>
<path opacity="0.5" d="M262.11 520.567L214.954 493.342C212.06 491.671 212.423 488.752 215.764 486.824L261.298 460.536C264.64 458.608 269.695 458.398 272.589 460.069L319.745 487.292C322.639 488.963 322.276 491.882 318.934 493.811L273.401 520.098C270.06 522.028 265.004 522.237 262.11 520.567Z" fill="#173D7A"/>
<path d="M321.684 474.13V457.86L285.199 457.839L272.589 450.558C269.695 448.887 264.64 449.097 261.298 451.026L249.532 457.818L213.014 457.798V474.53C212.932 475.662 213.563 476.752 214.954 477.555L262.11 504.78C265.004 506.451 270.06 506.241 273.401 504.312L318.934 478.025C320.863 476.913 321.793 475.472 321.684 474.13Z" fill="#396CAA"/>
<path d="M267.351 449.44C265.233 449.491 263.034 450.025 261.298 451.027L249.532 457.819L213.014 457.799V474.532C212.932 475.663 213.563 476.754 214.954 477.556L262.11 504.781C263.501 505.584 265.391 505.948 267.351 505.901V449.44Z" fill="#396CAA"/>
<path d="M217.147 457.802L213.014 457.799V474.531C212.932 475.663 213.563 476.754 214.954 477.556L217.147 478.822V457.802Z" fill="#5793CE"/>
<path d="M262.836 505.137C265.332 506.207 268.943 506.147 271.863 505.034V486.035H262.836V505.137Z" fill="#5793CE"/>
<path d="M262.11 488.109L214.954 460.886C212.06 459.215 212.423 456.296 215.764 454.367L261.298 428.08C264.64 426.152 269.695 425.942 272.589 427.613L319.745 454.838C322.639 456.508 322.276 459.427 318.934 461.356L273.401 487.643C270.06 489.571 265.004 489.78 262.11 488.109Z" fill="#D4ECFF"/>
<path d="M318.935 458.153L273.402 484.44C270.06 486.369 265.005 486.578 262.111 484.907L214.955 457.683C214.31 457.31 213.835 456.874 213.511 456.401C212.517 458.001 212.967 459.736 214.955 460.884L262.111 488.109C265.005 489.78 270.061 489.57 273.402 487.642L318.935 461.354C321.532 459.855 322.32 457.761 321.19 456.117C320.736 456.846 319.982 457.548 318.935 458.153Z" fill="white"/>
<path d="M304.339 478.423C304.339 479.637 303.487 481.114 302.435 481.722C301.384 482.329 300.531 481.837 300.531 480.622C300.531 479.408 301.384 477.931 302.435 477.323C303.487 476.717 304.339 477.21 304.339 478.423Z" fill="#D4ECFF"/>
<path d="M310.468 474.887C310.468 476.1 309.615 477.577 308.564 478.185C307.512 478.793 306.66 478.3 306.66 477.085C306.66 475.871 307.512 474.394 308.564 473.787C309.615 473.179 310.468 473.671 310.468 474.887Z" fill="#D4ECFF"/>
<path d="M316.597 471.348C316.597 472.564 315.744 474.039 314.693 474.647C313.641 475.255 312.789 474.762 312.789 473.547C312.789 472.333 313.641 470.856 314.693 470.249C315.743 469.641 316.597 470.133 316.597 471.348Z" fill="#D4ECFF"/>
<path d="M264.899 471.23L242.832 458.491C241.478 457.709 241.649 456.343 243.212 455.44L264.519 443.139C266.083 442.237 268.449 442.139 269.803 442.92L291.87 455.66C293.224 456.442 293.055 457.807 291.49 458.711L270.183 471.012C268.618 471.915 266.253 472.012 264.899 471.23Z" fill="#5793CE"/>
<path d="M267.011 460.564L263.959 458.801C263.772 458.693 263.795 458.504 264.011 458.38L266.959 456.677C267.175 456.553 267.502 456.539 267.69 456.647L270.742 458.41C270.93 458.519 270.906 458.707 270.69 458.832L267.742 460.534C267.526 460.658 267.199 460.673 267.011 460.564Z" fill="#D4ECFF"/>
<path d="M242.832 458.491L242.895 458.526C242.997 458.453 243.093 458.377 243.212 458.309L264.519 446.008C266.083 445.104 268.449 445.008 269.803 445.789L291.807 458.492C293.055 457.599 293.121 456.383 291.87 455.66L269.803 442.92C268.449 442.139 266.083 442.237 264.519 443.139L243.212 455.44C241.647 456.343 241.477 457.709 242.832 458.491Z" fill="#396CAA"/>
<path opacity="0.5" d="M675.365 678.893L628.209 651.67C625.315 649.999 625.678 647.08 629.02 645.151L674.553 618.864C677.895 616.935 682.95 616.726 685.844 618.397L733 645.62C735.894 647.291 735.531 650.21 732.189 652.138L686.656 678.425C683.314 680.354 678.259 680.564 675.365 678.893Z" fill="#173D7A"/>
<path d="M734.939 632.457V616.187L698.455 616.166L685.844 608.886C682.95 607.215 677.895 607.424 674.553 609.355L662.787 616.147L626.27 616.126V632.859C626.187 633.99 626.819 635.081 628.209 635.884L675.365 663.109C678.259 664.779 683.315 664.57 686.657 662.641L732.191 636.354C734.117 635.24 735.047 633.798 734.939 632.457Z" fill="#396CAA"/>
<path d="M680.604 607.766C678.487 607.817 676.288 608.351 674.552 609.353L662.786 616.145L626.268 616.124V632.857C626.186 633.989 626.817 635.079 628.208 635.882L675.364 663.107C676.754 663.909 678.645 664.273 680.604 664.226V607.766Z" fill="#396CAA"/>
<path d="M630.403 616.129L626.27 616.126V632.859C626.187 633.991 626.819 635.081 628.209 635.884L630.403 637.15V616.129Z" fill="#5793CE"/>
<path d="M676.091 663.464C678.587 664.533 682.198 664.473 685.117 663.36V644.361H676.091V663.464Z" fill="#5793CE"/>
<path d="M675.365 646.435L628.209 619.211C625.315 617.54 625.678 614.621 629.02 612.692L674.553 586.405C677.895 584.476 682.95 584.267 685.844 585.938L733 613.161C735.894 614.832 735.531 617.751 732.189 619.679L686.656 645.966C683.314 647.897 678.259 648.106 675.365 646.435Z" fill="#D4ECFF"/>
<path d="M732.189 616.48L686.656 642.767C683.314 644.695 678.259 644.906 675.365 643.234L628.209 616.009C627.563 615.638 627.089 615.2 626.765 614.729C625.771 616.329 626.221 618.064 628.209 619.212L675.365 646.437C678.259 648.108 683.315 647.898 686.656 645.968L732.189 619.681C734.786 618.182 735.574 616.088 734.444 614.443C733.99 615.173 733.237 615.875 732.189 616.48Z" fill="white"/>
<path d="M717.595 636.75C717.595 637.965 716.742 639.441 715.691 640.049C714.639 640.656 713.787 640.164 713.787 638.949C713.787 637.735 714.639 636.258 715.691 635.65C716.741 635.044 717.595 635.536 717.595 636.75Z" fill="#D4ECFF"/>
<path d="M723.722 633.213C723.722 634.428 722.869 635.904 721.816 636.511C720.765 637.119 719.911 636.626 719.911 635.411C719.911 634.196 720.764 632.72 721.816 632.113C722.869 631.505 723.722 631.998 723.722 633.213Z" fill="#D4ECFF"/>
<path d="M729.85 629.675C729.85 630.889 728.998 632.366 727.946 632.973C726.895 633.581 726.041 633.088 726.041 631.873C726.041 630.658 726.894 629.182 727.946 628.575C728.998 627.967 729.85 628.46 729.85 629.675Z" fill="#D4ECFF"/>
<path d="M678.153 629.557L656.086 616.817C654.732 616.035 654.901 614.67 656.466 613.767L677.773 601.467C679.337 600.563 681.703 600.466 683.057 601.248L705.124 613.987C706.478 614.769 706.309 616.135 704.744 617.037L683.437 629.338C681.873 630.24 679.507 630.339 678.153 629.557Z" fill="#5793CE"/>
<path d="M680.265 618.89L677.213 617.128C677.026 617.019 677.049 616.83 677.265 616.706L680.213 615.004C680.429 614.879 680.756 614.865 680.944 614.974L683.996 616.736C684.183 616.845 684.16 617.033 683.944 617.158L680.996 618.86C680.78 618.986 680.453 618.999 680.265 618.89Z" fill="#D4ECFF"/>
<path d="M656.086 616.817L656.149 616.853C656.251 616.779 656.347 616.703 656.466 616.634L677.773 604.333C679.337 603.43 681.703 603.333 683.057 604.114L705.061 616.817C706.309 615.924 706.375 614.708 705.124 613.985L683.057 601.245C681.703 600.464 679.337 600.562 677.773 601.464L656.466 613.765C654.901 614.67 654.732 616.036 656.086 616.817Z" fill="#396CAA"/>
<path opacity="0.5" d="M302.435 570.187C306.043 568.106 311.892 568.106 315.501 570.187L484.023 667.438C487.63 669.519 487.63 672.894 484.023 674.975C480.415 677.056 474.565 677.056 470.957 674.975L302.435 577.724C298.826 575.643 298.826 572.268 302.435 570.187Z" fill="#173D7A"/>
<path d="M285.572 532.026C285.718 531.779 286.005 531.652 286.285 531.712L295.462 533.709L291.848 539.879L285.646 532.804C285.456 532.588 285.428 532.274 285.572 532.026Z" fill="#D4ECFF"/>
<path d="M289.191 536.578C289.201 535.249 290.143 533.641 291.295 532.986C291.828 532.684 292.306 532.647 292.671 532.816C303.274 532.73 313.703 535.531 322.845 540.924L323.507 541.315L312.11 560.777L308.745 558.538C301.621 553.797 295.618 547.55 291.154 540.233L289.713 537.871C289.389 537.631 289.186 537.193 289.191 536.578Z" fill="#DD6A2A"/>
<path d="M323.423 554.358C326.571 548.984 326.616 543.149 323.525 541.325C320.433 539.5 315.375 542.378 312.228 547.752C309.08 553.126 309.035 558.961 312.127 560.786C315.218 562.61 320.276 559.732 323.423 554.358Z" fill="#D4ECFF"/>
<path d="M379.754 603.074L312.11 560.776L323.508 541.314L393.221 580.078L379.754 603.074Z" fill="#D4ECFF"/>
<path d="M377.048 596.947C377.095 590.933 381.358 583.652 386.57 580.685C391.784 577.718 395.97 580.19 395.924 586.204C395.877 592.217 391.613 599.498 386.401 602.465C381.189 605.432 377.001 602.96 377.048 596.947Z" fill="#D4ECFF"/>
<path d="M380.908 599.224C380.954 593.21 385.218 585.93 390.43 582.963C395.643 579.995 399.83 582.467 399.783 588.481C399.736 594.495 395.473 601.775 390.26 604.742C385.049 607.708 380.861 605.238 380.908 599.224Z" fill="#D4ECFF"/>
<path d="M383.597 605.334L397.063 582.338L486.553 635.131L473.087 658.127L383.597 605.334Z" fill="#D4ECFF"/>
<path d="M470.398 652.021C470.445 646.007 474.708 638.727 479.92 635.76C485.134 632.792 489.32 635.264 489.274 641.278C489.227 647.292 484.963 654.572 479.752 657.539C474.538 660.506 470.352 658.035 470.398 652.021Z" fill="#D4ECFF"/>
<path d="M473.776 650.098C473.982 646.548 476.862 642.127 480.209 640.223C483.556 638.318 486.102 639.651 485.895 643.201C485.689 646.752 482.809 651.173 479.462 653.077C476.116 654.983 473.57 653.648 473.776 650.098Z" fill="#396CAA"/>
<path d="M376.369 596.544C376.416 590.531 380.679 583.25 385.892 580.284C387.992 579.09 389.918 578.79 391.476 579.236C389.784 577.461 387.008 577.252 383.849 579.049C378.636 582.016 374.373 589.297 374.326 595.309C374.299 598.901 375.788 601.216 378.096 601.876C376.996 600.723 376.351 598.914 376.369 596.544Z" fill="white"/>
<path d="M376.369 596.546C376.415 590.532 380.679 583.251 385.891 580.284C388.497 578.801 390.848 578.677 392.54 579.676L397.61 582.668L395.194 586.794C394.754 592.264 391.107 598.491 386.56 601.538L384.144 605.665L379.074 602.674C377.381 601.673 376.345 599.552 376.369 596.546Z" fill="#DD6A2A"/>
<path d="M381.439 599.536C381.486 593.522 385.749 586.242 390.962 583.276C396.174 580.309 400.362 582.781 400.315 588.794C400.269 594.808 396.005 602.089 390.793 605.054C385.581 608.02 381.392 605.551 381.439 599.536Z" fill="#D4ECFF"/>
<path d="M476.821 650.124C476.842 647.529 478.681 644.388 480.93 643.109C483.179 641.829 484.986 642.895 484.966 645.49C484.945 648.084 483.107 651.226 480.857 652.506C478.608 653.785 476.802 652.72 476.821 650.124Z" fill="#FF2C9C"/>
<path d="M476.821 650.125C476.842 647.529 478.681 644.389 480.93 643.109C482.056 642.469 483.069 642.415 483.799 642.847L502.767 654.038C505.497 655.648 506.409 659.175 504.804 661.914C503.2 664.654 499.686 665.57 496.956 663.959L477.988 652.768C477.258 652.338 476.811 651.422 476.821 650.125Z" fill="#DD6A2A"/>
<path d="M455.74 615.101L458.583 613.481C460.218 612.553 462.379 612.783 464.668 614.135L474.415 619.885C476.255 620.97 477.739 623.596 477.722 625.739L477.684 630.635C477.678 631.455 478.079 632.399 478.665 633.094L478.3 635.363L480.73 633.966L480.725 633.963C481.076 633.784 481.301 633.374 481.305 632.771L481.342 627.875C481.377 623.408 478.283 617.933 474.448 615.67L464.701 609.919C461.444 607.998 458.371 607.668 456.047 608.991L453.203 610.611C451.57 611.539 449.409 611.308 447.118 609.957L407.828 586.777C407.321 586.477 406.861 586.452 406.53 586.65V586.646L404.105 588.041L406.181 588.843C406.469 589.719 407.079 590.57 407.795 590.992L447.086 614.173C450.342 616.094 453.416 616.424 455.74 615.101Z" fill="#5793CE"/>
<path d="M456.122 614.896C457.756 613.967 459.917 614.198 462.206 615.549L471.953 621.3C473.793 622.385 475.275 625.01 475.26 627.153L475.222 632.051C475.213 633.214 476.016 634.637 477.016 635.227C478.016 635.816 478.834 635.35 478.843 634.187L478.881 629.291C478.916 624.824 475.822 619.349 471.986 617.086L462.239 611.335C458.983 609.414 455.91 609.084 453.585 610.407L450.742 612.027C449.109 612.955 446.948 612.724 444.657 611.373L405.367 588.193C404.367 587.603 403.549 588.069 403.54 589.232C403.531 590.396 404.334 591.819 405.334 592.408L444.625 615.589C447.882 617.51 450.955 617.84 453.279 616.518L456.122 614.896Z" fill="#5793CE"/>
<path d="M475.382 627.962L475.344 632.858C475.344 632.889 475.359 632.925 475.36 632.957C475.27 632.649 475.221 632.342 475.222 632.05L475.26 627.153C475.261 627.014 475.239 626.868 475.227 626.726C475.321 627.146 475.386 627.563 475.382 627.962Z" fill="white"/>
<path opacity="0.5" d="M519.729 414.276L626.902 476.131L691.329 438.948L584.266 377.03L519.729 414.276Z" fill="#173D7A"/>
<path d="M722.867 378.596L708.708 370.45L760.91 340.412C763.375 338.993 763.375 336.685 760.91 335.266L707.582 304.58C705.116 303.161 701.105 303.161 698.64 304.58L646.438 334.617L632.28 326.47L684.482 296.433C694.754 290.522 711.468 290.522 721.74 296.433L775.069 327.119C785.341 333.03 785.341 342.648 775.069 348.559L722.867 378.596Z" fill="#DD6A2A"/>
<path d="M745.712 382.183C745.712 374.639 741.109 365.876 735.433 362.609L640.854 308.186C638.312 306.723 635.989 306.62 634.195 307.619L634.189 307.615L521.263 373.018L630.467 455.032L741.72 390.674C742.063 390.518 742.396 390.338 742.702 390.106L742.704 390.105C744.563 388.703 745.712 385.952 745.712 382.183Z" fill="#D4ECFF"/>
<path d="M630.467 455.032L741.72 390.676C742.063 390.52 742.396 390.339 742.702 390.108L742.704 390.106C744.562 388.704 745.71 385.952 745.71 382.183C745.71 378.582 744.653 374.709 742.94 371.282L616.119 444.258L630.467 455.032Z" fill="#396CAA"/>
<path d="M623.355 454.74L528.775 400.318C523.099 397.051 518.497 388.288 518.497 380.745C518.497 373.202 523.099 369.733 528.775 373L623.355 427.422C629.031 430.689 633.633 439.452 633.633 446.995C633.633 454.54 629.031 458.007 623.355 454.74Z" fill="#5793CE"/>
<path d="M624.493 426.906L529.913 372.484C527.303 370.983 524.927 370.918 523.115 372.005C524.738 371.514 526.682 371.796 528.775 373L623.355 427.422C629.031 430.689 633.633 439.452 633.633 446.996V446.997C633.633 451.071 632.283 453.943 630.153 455.22C632.935 454.376 634.773 451.244 634.773 446.482V446.481C634.771 438.937 630.17 430.174 624.493 426.906Z" fill="white"/>
<path d="M609.189 436.387L597.818 429.849C596.686 429.198 595.769 427.451 595.769 425.948C595.769 424.444 596.686 423.752 597.818 424.404L609.189 430.942C610.32 431.593 611.237 433.34 611.237 434.843C611.237 436.347 610.32 437.037 609.189 436.387Z" fill="white"/>
<path d="M622.013 359.008C625.444 356.985 625.41 353.766 621.938 351.817C618.465 349.867 612.871 349.926 609.441 351.947C606.01 353.969 606.044 357.188 609.516 359.138C612.989 361.087 618.584 361.029 622.013 359.008Z" fill="#5793CE"/>
<path d="M641.058 369.702C644.489 367.681 644.455 364.461 640.983 362.511C637.51 360.562 631.915 360.62 628.485 362.641C625.055 364.664 625.089 367.882 628.561 369.832C632.032 371.783 637.628 371.724 641.058 369.702Z" fill="white"/>
<path d="M660.102 380.398C663.533 378.377 663.499 375.157 660.026 373.207C656.554 371.257 650.96 371.316 647.529 373.337C644.099 375.359 644.133 378.578 647.605 380.528C651.077 382.479 656.673 382.42 660.102 380.398Z" fill="white"/>
<path d="M412.925 536.508C412.925 536.508 408.065 534.047 405.082 537.711C402.097 541.375 397.833 550.025 397.7 555.87C397.568 561.714 402.306 561.32 405.123 559.937C407.939 558.554 416.167 546.568 416.666 544.221C417.165 541.873 416.079 538.697 415.287 538.076C414.493 537.453 412.925 536.508 412.925 536.508Z" fill="url(#paint0_linear)"/>
<path d="M413.985 535.332L414.21 540.388C414.258 541.463 413.719 542.487 412.787 543.018C411.938 543.5 410.706 543.871 409.039 543.603C405.379 543.012 405.052 541.962 404.792 536.908C404.528 531.854 413.985 535.332 413.985 535.332Z" fill="#D4ECFF"/>
<path d="M395.137 526.787C395.137 526.787 390.277 524.326 387.294 527.991C384.31 531.655 380.044 540.304 379.913 546.15C379.781 551.994 384.518 551.599 387.336 550.216C390.152 548.833 398.379 536.848 398.878 534.5C399.376 532.151 398.291 528.976 397.499 528.355C396.706 527.733 395.137 526.787 395.137 526.787Z" fill="url(#paint1_linear)"/>
<path d="M396.197 525.612L396.423 530.667C396.471 531.742 395.932 532.767 395 533.297C394.151 533.782 392.919 534.151 391.252 533.883C387.592 533.292 387.265 532.242 387.003 527.188C386.742 522.132 396.197 525.612 396.197 525.612Z" fill="#D4ECFF"/>
<path d="M439.555 432.801C438.117 409.303 414.214 436.259 414.214 436.259L397.855 452.362L383.123 468.613C380.246 471.787 378.907 476.072 379.463 480.327L385.423 525.896C385.717 528.146 387.635 529.806 389.895 529.788C390.534 529.783 391.265 529.724 392.103 529.594C397.419 528.763 397.028 523.686 397.028 523.686L395.938 481.066L426.876 462.338C426.875 462.338 440.992 456.299 439.555 432.801Z" fill="url(#paint2_linear)"/>
<path d="M457.341 441.755C455.903 418.256 432 445.212 432 445.212L415.639 461.315L400.908 477.566C398.031 480.74 396.692 485.025 397.248 489.28L403.208 534.849C403.502 537.099 405.42 538.759 407.68 538.741C408.318 538.736 409.05 538.677 409.888 538.547C415.204 537.716 414.813 532.641 414.813 532.641L413.755 491.247L444.662 471.292C444.661 471.291 458.779 465.253 457.341 441.755Z" fill="url(#paint3_linear)"/>
<path d="M443.201 366.326C461.322 373.871 460.96 384.628 460.96 384.628C460.96 384.628 457.41 424.064 458.622 450.403C459.128 461.414 400.368 462.253 409.13 432.879C419.463 398.245 415.59 370.206 420.427 365.977C425.263 361.748 438.512 364.374 443.201 366.326Z" fill="url(#paint4_linear)"/>
<path d="M449.031 375.863C448.083 379.557 443.263 381.505 438.263 380.212C433.265 378.918 429.98 374.875 430.928 371.181C431.876 367.486 436.696 365.538 441.696 366.832C446.694 368.125 449.978 372.168 449.031 375.863Z" fill="#B97C6A"/>
<path d="M441.773 380.293L438.439 383.928C438.006 384.401 437.8 385.039 437.873 385.675L440.165 405.58C440.23 406.138 440.076 406.699 439.736 407.145L432.562 416.57C432.245 416.987 431.589 416.873 431.431 416.372L427.525 404.027C427.377 403.56 427.392 403.057 427.565 402.599L434.436 384.521C434.586 384.125 434.62 383.694 434.533 383.279L433.528 378.486L441.773 380.293Z" fill="#D4ECFF"/>
<path fill-rule="evenodd" clip-rule="evenodd" d="M438.046 381.055C439.154 381.341 440.269 381.483 441.357 381.483C442.817 381.483 444.226 381.226 445.488 380.717C447.786 379.79 449.341 378.143 449.869 376.081C450.398 374.02 449.828 371.823 448.264 369.897C446.762 368.05 444.506 366.662 441.911 365.991C439.314 365.322 436.673 365.44 434.469 366.331C432.173 367.256 430.619 368.903 430.089 370.965C429.559 373.026 430.13 375.221 431.693 377.147C433.195 378.996 435.451 380.384 438.046 381.055ZM435.114 367.943C436.174 367.515 437.36 367.3 438.599 367.3C439.54 367.3 440.512 367.425 441.477 367.675C443.716 368.255 445.65 369.434 446.92 370.997C448.126 372.482 448.579 374.133 448.19 375.645C447.801 377.158 446.613 378.385 444.84 379.1C442.978 379.855 440.715 379.949 438.477 379.369C436.238 378.788 434.304 377.609 433.034 376.046C431.829 374.561 431.377 372.91 431.766 371.398C432.154 369.884 433.343 368.659 435.114 367.943Z" fill="#D4ECFF"/>
<path d="M435.934 365.505C435.934 365.505 436.091 366.235 435.778 372.001C435.679 373.813 442 375.508 443.634 373.867C445.269 372.226 444.615 370.52 445.007 364.349C445.398 358.179 435.934 365.505 435.934 365.505Z" fill="#B97C6A"/>
<path d="M445.006 364.349C445.006 364.349 443.449 370.069 435.775 372.263L435.892 367.065L445.006 364.349Z" fill="#C38674"/>
<path d="M449.287 358.582C452.176 351.411 448.728 343.245 441.587 340.344C434.445 337.443 426.314 340.905 423.425 348.077C420.536 355.248 423.984 363.413 431.125 366.314C438.267 369.215 446.398 365.754 449.287 358.582Z" fill="#B97C6A"/>
<path d="M439.567 353.835C439.567 353.835 431.886 357.139 426.569 357.177C421.251 357.215 422.423 352.743 422.423 352.743L438.21 350.453L439.567 353.835Z" fill="#C38674"/>
<path d="M424.983 354.706C424.983 354.706 431.673 351.853 437.543 353.043C438.923 353.323 440.202 354.063 441.089 355.16C441.38 355.518 441.746 355.845 442.162 355.94C443.203 356.176 444.907 351.84 446.93 351.741C448.953 351.643 450.303 353.081 448.644 355.747C446.986 358.413 447.547 361.399 448.31 361.825C449.073 362.252 458.52 355.632 451.38 341.428C444.24 327.224 424.75 335.269 421.927 338.148C421.927 338.148 418.956 340.748 416.539 338.434C416.539 338.434 413.829 358.813 424.983 354.706Z" fill="#151618"/>
<path d="M450.793 413.44V424.097C450.793 425.317 450.281 426.482 449.382 427.304L427.583 447.263L430.059 451.067L460.093 431.292C461.436 430.313 462.303 428.807 462.477 427.149L464.531 407.375L450.793 413.44Z" fill="#B97C6A"/>
<path d="M459.425 379.298C459.425 379.298 466.038 389.286 468.503 415.577C468.503 415.577 457.205 419.247 450.794 417.163C444.381 415.08 459.425 379.298 459.425 379.298Z" fill="url(#paint5_linear)"/>
<path d="M449.585 391.926C449.585 391.926 446.996 405.841 446.848 412.382C446.808 414.179 447.901 415.802 449.585 416.413V391.926Z" fill="#000D4B"/>
<path d="M443.93 461.119L439.112 460.481L408.009 442.448C407.011 441.87 405.271 441.942 404.119 442.609L382.08 455.382L379.167 454.995V457.908H379.169C379.15 458.292 379.367 458.66 379.838 458.933L415.086 479.369C416.084 479.947 417.824 479.876 418.976 479.208L442.977 465.297C443.625 464.922 443.948 464.438 443.929 463.984V461.119H443.93Z" fill="#5793CE"/>
<path d="M420.56 449.725L418.35 448.444H394.056L382.08 455.383L379.167 454.997V457.909H379.169C379.15 458.293 379.367 458.661 379.838 458.934L415.086 479.37C415.613 479.676 416.348 479.799 417.093 479.748L420.56 449.725Z" fill="#396CAA"/>
<path d="M380.459 455.168L379.165 454.997V457.909H379.168C379.149 458.293 379.366 458.661 379.837 458.934L380.457 459.295V455.168H380.459Z" fill="#5793CE"/>
<path d="M415.441 479.537C416.386 479.898 417.738 479.818 418.747 479.331V474.376H415.441V479.537Z" fill="#5793CE"/>
<path d="M415.086 476.461L379.838 456.025C378.841 455.447 378.966 454.437 380.118 453.769L404.119 439.858C405.27 439.191 407.011 439.118 408.009 439.696L443.258 460.132C444.254 460.709 444.13 461.719 442.978 462.387L418.976 476.298C417.824 476.966 416.083 477.038 415.086 476.461Z" fill="white"/>
<path d="M414.49 473.362L385.181 456.37C384.351 455.889 384.455 455.049 385.413 454.494L398.274 447.232C399.232 446.677 400.68 446.616 401.509 447.096L430.818 464.089C431.647 464.569 431.544 465.41 430.586 465.964L417.724 473.227C416.767 473.783 415.319 473.844 414.49 473.362Z" fill="#D4ECFF"/>
<path d="M405.481 439.187L405.117 441.629C404.806 443.71 404.86 445.83 405.275 447.891L405.709 450.044C405.954 451.258 406.91 452.2 408.123 452.421C409.071 452.594 409.966 451.925 410.074 450.964L410.656 445.743C410.656 445.743 411.985 447.493 412.628 447.493C413.269 447.493 411.909 442.264 410.456 439.305C409.005 436.347 405.481 439.187 405.481 439.187Z" fill="#B97C6A"/>
<path d="M417.429 400.372L413.646 407.889C412.752 409.666 412.226 411.607 412.099 413.595L410.457 439.307L405.481 439.188L403.222 410.313C403.152 409.422 403.196 408.525 403.351 407.644L405.931 393.001L417.429 400.372Z" fill="#B97C6A"/>
<path d="M413.893 478.423L410.937 474.549L379.856 456.479C378.859 455.9 378.053 454.347 378.055 453.012L378.082 427.459L376.295 425.117L377.974 424.141L377.976 424.144C378.297 423.935 378.725 423.941 379.194 424.214L414.417 444.693C415.414 445.272 416.22 446.824 416.219 448.16L416.189 475.989C416.188 476.739 415.931 477.263 415.529 477.472L413.893 478.423Z" fill="#173D7A"/>
<path d="M392.399 463.77L390.191 462.486L378.069 441.343L378.082 427.458L376.295 425.116L377.974 424.14L377.976 424.142C378.297 423.934 378.725 423.939 379.194 424.212L414.417 444.691C414.944 444.997 415.417 445.576 415.746 446.25L392.399 463.77Z" fill="#396CAA"/>
<path d="M377.088 426.157L376.295 425.117L377.974 424.141L377.976 424.144C378.297 423.935 378.725 423.941 379.194 424.214L379.815 424.574L377.088 426.157Z" fill="#5793CE"/>
<path d="M414.737 444.918C415.52 445.561 416.127 446.776 416.208 447.897L412.766 449.893L411.117 447.017L414.737 444.918Z" fill="#274F89"/>
<path d="M412.74 445.667L377.517 425.189C376.52 424.609 375.712 425.222 375.709 426.556L375.679 454.385C375.678 455.72 376.484 457.273 377.48 457.852L412.704 478.331C413.701 478.91 414.509 478.297 414.512 476.963L414.542 449.134C414.543 447.799 413.737 446.247 412.74 445.667Z" fill="#5793CE"/>
<path d="M430.059 451.066L429.494 452.24C428.844 453.592 427.822 454.73 426.549 455.517L423.05 457.682C421.962 458.357 420.583 458.411 419.479 457.766C419.439 457.742 419.4 457.719 419.36 457.694C418.248 456.994 418.147 455.391 419.062 454.447L422.717 450.673C422.717 450.673 420.663 452.253 420.088 451.617C419.666 451.15 422.08 448.874 423.933 448.8C425.786 448.725 427.58 447.263 427.58 447.263L430.059 451.066Z" fill="#B97C6A"/>
<path d="M420.789 365.922C420.789 365.922 407.386 380.567 401.979 394.002C401.979 394.002 406.563 402.294 417.782 405.547C429 408.801 420.789 365.922 420.789 365.922Z" fill="url(#paint6_linear)"/>
<path d="M415.257 404.678L417.429 383.604L412.31 403.35C413.222 403.827 414.21 404.271 415.257 404.678Z" fill="#000D4B"/>
<path d="M430.827 362.965L427.226 361.971C427.226 361.971 428.946 364.687 431.456 365.379C433.966 366.072 434.356 363.937 434.356 363.937L430.827 362.965Z" fill="white"/>
<path d="M450.065 357.177C450.065 358.29 449.167 359.192 448.059 359.192C446.951 359.192 446.053 358.29 446.053 357.177C446.053 356.064 446.951 355.163 448.059 355.163C449.167 355.163 450.065 356.064 450.065 357.177Z" fill="white"/>
<path opacity="0.5" d="M562.47 546.48C583.006 546.48 599.653 536.822 599.653 524.907C599.653 512.993 583.006 503.334 562.47 503.334C541.935 503.334 525.288 512.993 525.288 524.907C525.288 536.822 541.935 546.48 562.47 546.48Z" fill="#173D7A"/>
<path d="M604.771 506.457V494.521H602.528C600.514 491.037 597.162 487.757 592.38 484.983C575.86 475.398 549.076 475.398 532.557 484.983C527.775 487.757 524.423 491.039 522.409 494.521H520.17V506.393H520.173C520.144 512.695 524.269 519.004 532.558 523.813C549.079 533.398 575.862 533.398 592.382 523.814C600.642 519.021 604.772 512.738 604.771 506.457Z" fill="#12986F"/>
<path d="M562.47 519.064C585.833 519.064 604.772 508.075 604.772 494.52C604.772 480.965 585.833 469.977 562.47 469.977C539.107 469.977 520.168 480.965 520.168 494.52C520.168 508.075 539.107 519.064 562.47 519.064Z" fill="#007047"/>
<path d="M592.382 511.876C575.862 521.461 549.079 521.461 532.558 511.876C524.641 507.282 520.56 501.32 520.232 495.301C519.874 501.841 523.955 508.446 532.558 513.438C549.079 523.023 575.862 523.023 592.382 513.438C600.984 508.448 605.064 501.843 604.707 495.303C604.378 501.32 600.299 507.282 592.382 511.876Z" fill="white"/>
<path d="M542.081 502.646C541.37 502.233 540.964 501.671 540.967 501.08L541.01 485.089C541.012 483.87 542.721 482.882 544.823 482.884C546.926 482.884 548.624 483.875 548.624 485.097L548.589 498.357L586.883 493.645C588.941 493.391 590.961 494.154 591.398 495.347C591.835 496.54 590.52 497.713 588.464 497.966L545.565 503.246C544.439 503.384 543.268 503.221 542.375 502.8C542.272 502.752 542.173 502.701 542.081 502.646Z" fill="white"/>
<path opacity="0.5" d="M318.78 682.724L296.035 669.91L318.78 657.096L341.525 669.91L318.78 682.724Z" fill="#173D7A"/>
<path d="M341.525 653.641L318.78 666.455V640.828L341.525 628.014V653.641Z" fill="#B54202"/>
<path d="M318.78 640.827L296.036 628.013L318.78 615.199L341.523 628.013L318.78 640.827Z" fill="#DD6A2A"/>
<path d="M318.78 666.455L296.036 653.641V628.014L318.78 640.828V666.455Z" fill="#DD6A2A"/>
<defs>
<linearGradient id="paint0_linear" x1="416.792" y1="535.699" x2="393.502" y2="555.983" gradientUnits="userSpaceOnUse">
<stop stop-color="#000341"/>
<stop offset="1" stop-color="#213F7D"/>
</linearGradient>
<linearGradient id="paint1_linear" x1="399.004" y1="525.979" x2="375.714" y2="546.262" gradientUnits="userSpaceOnUse">
<stop stop-color="#000341"/>
<stop offset="1" stop-color="#213F7D"/>
</linearGradient>
<linearGradient id="paint2_linear" x1="439.658" y1="423.185" x2="348.525" y2="482.221" gradientUnits="userSpaceOnUse">
<stop stop-color="#000341"/>
<stop offset="1" stop-color="#213F7D"/>
</linearGradient>
<linearGradient id="paint3_linear" x1="457.444" y1="432.138" x2="366.311" y2="491.177" gradientUnits="userSpaceOnUse">
<stop stop-color="#000341"/>
<stop offset="1" stop-color="#213F7D"/>
</linearGradient>
<linearGradient id="paint4_linear" x1="460.96" y1="363.71" x2="381.02" y2="415.182" gradientUnits="userSpaceOnUse">
<stop stop-color="#000341"/>
<stop offset="1" stop-color="#213F7D"/>
</linearGradient>
<linearGradient id="paint5_linear" x1="468.503" y1="379.298" x2="437.362" y2="397.169" gradientUnits="userSpaceOnUse">
<stop stop-color="#000341"/>
<stop offset="1" stop-color="#213F7D"/>
</linearGradient>
<linearGradient id="paint6_linear" x1="423.688" y1="365.922" x2="390.188" y2="386.841" gradientUnits="userSpaceOnUse">
<stop stop-color="#000341"/>
<stop offset="1" stop-color="#213F7D"/>
</linearGradient>
</defs>
</svg>
