<svg width="150" height="150" viewBox="0 0 150 150" fill="none" xmlns="http://www.w3.org/2000/svg">
<path opacity="0.05" d="M75 150C116.421 150 150 116.421 150 75C150 33.5786 116.421 0 75 0C33.5786 0 0 33.5786 0 75C0 116.421 33.5786 150 75 150Z" fill="#213F7D"/>
<path d="M108.313 38H42.6874C40.0624 38 38 40.0626 38 42.6874V60.875C38 63.5 40.0626 65.5624 42.6874 65.5624H51.1249H99.2188H108.313C110.938 65.5624 113 63.4998 113 60.875V42.6874C113 40.1561 110.938 38 108.313 38Z" fill="white"/>
<path d="M99.7815 55.6251H105.688V48.0312H45.3125V55.6251H51.2187" fill="url(#paint0_linear)"/>
<path d="M99.7815 51.4062H51.5001L47.75 105.594C47.5624 108.781 50.0937 111.313 53.4689 111.406L97.5316 111.5C100.906 111.5 103.438 108.875 103.25 105.781L99.7815 51.4062Z" fill="#E1E1E1"/>
<path d="M59.2812 51.4062L56.375 111.406L68.8437 111.5L69.9689 51.4062H59.2812Z" fill="#213F7D"/>
<path d="M81.125 82.625L81.4063 106.344H77.0938L77 82.625H81.125Z" fill="white"/>
<path d="M80 51.4062L80.0938 62.2812L95.2813 62.375L94.7188 51.4062H80Z" fill="#FFD05B"/>
<path d="M86.75 58.625L86.6562 54.7812H82.5313L82.4375 51.4062H81.5939V55.5312H85.8126L85.9062 58.625H80.0938V59.3748H87.875L87.9688 62.2812H88.9064L88.8126 58.625H86.75Z" fill="#2B3B4E"/>
<path d="M94.8125 53.3748H90.8748L90.7811 51.4062H89.8437L89.9374 53.3748V53.75L90.125 56.75H88.25L88.3436 57.5H91.7187L91.9063 62.375H92.8437L92.5625 56.75H90.9686L90.8748 54.1249H94.9063L94.8125 53.3748Z" fill="#2B3B4E"/>
<path d="M97.5312 106.344L97.2501 100.062H93.9688L94.2501 106.344H97.5312Z" fill="#213F7D"/>
<path d="M90.0314 106.344L89.4689 89H86.6562L87.0314 106.344H90.0314Z" fill="#213F7D"/>
<path d="M96.9687 95L96.6876 89H93.5L93.7814 95H96.9687Z" fill="#213F7D"/>
<path d="M93.0312 78.5938L93.3124 84.2188H96.4062L96.125 78.5938H93.0312Z" fill="#213F7D"/>
<path d="M92.8438 74L95.9376 74.0937L95.6562 68.6562H92.6562L92.8438 74Z" fill="#213F7D"/>
<defs>
<linearGradient id="paint0_linear" x1="105.688" y1="48.0313" x2="104.143" y2="62.0882" gradientUnits="userSpaceOnUse">
<stop stop-color="#0A0A0E"/>
<stop offset="1" stop-color="#213F7D"/>
</linearGradient>
</defs>
</svg>
