<svg width="150" height="150" viewBox="0 0 150 150" fill="none" xmlns="http://www.w3.org/2000/svg">
<path opacity="0.05" d="M75 150C116.421 150 150 116.421 150 75C150 33.5786 116.421 0 75 0C33.5786 0 0 33.5786 0 75C0 116.421 33.5786 150 75 150Z" fill="#213F7D"/>
<path d="M48.646 56.9004H86.9484V106.146H48.646V56.9004Z" fill="#F5F5F5"/>
<path d="M48.646 53.0697V56.8999H86.9484V53.0697C86.9484 50.6522 84.9886 48.6924 82.5711 48.6924H53.0233C50.6058 48.6924 48.646 50.6522 48.646 53.0697Z" fill="#355391"/>
<path d="M86.9481 109.977V106.146H48.646V109.977C48.646 112.394 50.6058 114.354 53.0233 114.354H82.5708C84.9883 114.354 86.9481 112.394 86.9481 109.977Z" fill="#355391"/>
<path d="M82.5707 115H53.0236C50.2537 115 48 112.746 48 109.976V53.0704C48 50.3006 50.2537 48.0469 53.0236 48.0469H82.5707C85.3406 48.0469 87.5943 50.3006 87.5943 53.0704V109.976C87.5943 112.746 85.3406 115 82.5707 115ZM53.0236 49.3388C50.9659 49.3388 49.2919 51.0128 49.2919 53.0704V109.976C49.2919 112.034 50.9659 113.708 53.0236 113.708H82.5707C84.6284 113.708 86.3024 112.034 86.3024 109.976V53.0704C86.3024 51.0128 84.6284 49.3388 82.5707 49.3388H53.0236Z" fill="#3762CC"/>
<path d="M71.08 112.439H64.5139C63.6073 112.439 62.8726 111.704 62.8726 110.797V109.703C62.8726 108.796 63.6077 108.062 64.5139 108.062H71.08C71.9866 108.062 72.7214 108.797 72.7214 109.703V110.797C72.7214 111.704 71.9866 112.439 71.08 112.439Z" fill="#A4C9FF"/>
<path d="M71.9008 54.1643H63.693C62.9376 54.1643 62.3252 53.552 62.3252 52.7965C62.3252 52.0411 62.9376 51.4287 63.693 51.4287H71.9008C72.6562 51.4287 73.2686 52.0411 73.2686 52.7965C73.2686 53.552 72.6562 54.1643 71.9008 54.1643Z" fill="#E0EBFC"/>
<path d="M86.9484 57.5463H48.646C48.2894 57.5463 48 57.2569 48 56.9003V53.0704C48 50.3006 50.2537 48.0469 53.0236 48.0469H82.5707C85.3406 48.0469 87.5943 50.3006 87.5943 53.0704V56.9003C87.5943 57.2569 87.3049 57.5463 86.9484 57.5463ZM49.2919 56.2543H86.3024V53.0704C86.3024 51.0128 84.6284 49.3388 82.5707 49.3388H53.0236C50.9659 49.3388 49.2919 51.0128 49.2919 53.0704V56.2543Z" fill="#213F7D"/>
<path d="M82.5707 115H53.0236C50.2537 115 48 112.746 48 109.976V53.0704C48 50.3006 50.2537 48.0469 53.0236 48.0469H82.5707C85.3406 48.0469 87.5943 50.3006 87.5943 53.0704V109.976C87.5943 112.746 85.3406 115 82.5707 115ZM53.0236 49.3388C50.9659 49.3388 49.2919 51.0128 49.2919 53.0704V109.976C49.2919 112.034 50.9659 113.708 53.0236 113.708H82.5707C84.6284 113.708 86.3024 112.034 86.3024 109.976V53.0704C86.3024 51.0128 84.6284 49.3388 82.5707 49.3388H53.0236Z" fill="#213F7D"/>
<path d="M82.5707 115H53.0236C50.2537 115 48 112.747 48 109.977V106.147C48 105.79 48.2894 105.501 48.646 105.501H86.9484C87.3049 105.501 87.5943 105.79 87.5943 106.147V109.977C87.5943 112.747 85.3406 115 82.5707 115ZM49.2919 106.793V109.977C49.2919 112.034 50.9659 113.708 53.0236 113.708H82.5707C84.6284 113.708 86.3024 112.034 86.3024 109.977V106.793H49.2919Z" fill="#213F7D"/>
<path d="M67.7972 93.4001C74.3566 93.4001 79.674 88.0827 79.674 81.5233C79.674 74.9639 74.3566 69.6465 67.7972 69.6465C61.2378 69.6465 55.9204 74.9639 55.9204 81.5233C55.9204 88.0827 61.2378 93.4001 67.7972 93.4001Z" fill="#8F2D56"/>
<path d="M67.7973 90.0037C72.4809 90.0037 76.2777 86.2069 76.2777 81.5234C76.2777 76.8398 72.4809 73.043 67.7973 73.043C63.1137 73.043 59.3169 76.8398 59.3169 81.5234C59.3169 86.2069 63.1137 90.0037 67.7973 90.0037Z" fill="#A4C9FF"/>
<path d="M67.7972 94.0462C60.8919 94.0462 55.2744 88.4283 55.2744 81.5234C55.2744 74.6185 60.8923 69.001 67.7972 69.001C74.7021 69.001 80.3196 74.6188 80.3196 81.5234C80.3196 88.4283 74.7021 94.0462 67.7972 94.0462ZM67.7972 70.2926C61.6044 70.2926 56.5663 75.3307 56.5663 81.5231C56.5663 87.7155 61.6048 92.7539 67.7972 92.7539C73.9896 92.7539 79.0277 87.7155 79.0277 81.5231C79.0277 75.3307 73.9899 70.2926 67.7972 70.2926Z" fill="#213F7D"/>
<path d="M89.8802 53.2256C89.3179 53.0221 89.014 52.4685 89.1212 51.8781C89.2678 51.0723 89.1448 50.2381 88.7104 49.5101C88.276 48.7821 87.6003 48.2776 86.8216 48.0241C86.2512 47.8384 85.9082 47.308 85.9961 46.7163C86.1217 45.8721 87.0428 45.2881 87.859 45.5475C89.199 45.9735 90.3624 46.8339 91.1062 48.0799C91.8497 49.326 92.0545 50.7587 91.7932 52.1404C91.6343 52.9824 90.6828 53.516 89.8802 53.2256Z" fill="#355391"/>
<path d="M94.8928 55.0388L94.8918 55.0384C94.2662 54.812 93.9694 54.1596 94.1794 53.5169C94.9245 51.2338 94.7578 48.7536 93.5027 46.6501C92.2476 44.5465 90.1441 43.222 87.7812 42.7938C87.1155 42.6733 86.6828 42.1023 86.7803 41.444L86.7806 41.4427C86.8969 40.6608 87.7008 40.0946 88.4918 40.2368C91.5507 40.7861 94.2746 42.4982 95.8989 45.22C97.5231 47.9417 97.736 51.1521 96.767 54.1054C96.5158 54.8692 95.636 55.3078 94.8928 55.0388Z" fill="#A4C9FF"/>
<path d="M99.8496 56.8326L99.848 56.832C99.2105 56.6014 98.9036 55.9267 99.1475 55.2788C100.57 51.499 100.395 47.3113 98.2942 43.7905C96.1932 40.2697 92.5911 38.1278 88.5891 37.5842C87.9031 37.4912 87.4551 36.9008 87.5549 36.23L87.5552 36.2283C87.6676 35.4716 88.4285 34.9074 89.2027 35.0127C93.9395 35.6567 98.2034 38.193 100.69 42.3607C103.177 46.5284 103.384 51.4854 101.702 55.9599C101.427 56.6915 100.569 57.0929 99.8496 56.8326Z" fill="#8F2D56"/>
</svg>
