<svg width="150" height="150" viewBox="0 0 150 150" fill="none" xmlns="http://www.w3.org/2000/svg">
<path opacity="0.05" d="M75 150C116.421 150 150 116.421 150 75C150 33.5786 116.421 0 75 0C33.5786 0 0 33.5786 0 75C0 116.421 33.5786 150 75 150Z" fill="#213F7D"/>
<path d="M75.1807 105.507C90.0964 105.507 102.188 93.4153 102.188 78.4995C102.188 63.5838 90.0964 51.4922 75.1807 51.4922C60.2649 51.4922 48.1733 63.5838 48.1733 78.4995C48.1733 93.4153 60.2649 105.507 75.1807 105.507Z" fill="#E1E1E1"/>
<path d="M75.1802 102.065C62.186 102.065 51.6143 91.4937 51.6143 78.4995C51.6143 65.5053 62.1858 54.9336 75.1802 54.9336C88.1745 54.9336 98.7461 65.5051 98.7461 78.4995C98.7461 91.4939 88.1744 102.065 75.1802 102.065Z" fill="#F5F5F5"/>
<path d="M103.284 50.3056C96.3978 43.4192 87.4425 39.3545 77.8201 38.6887L82.6842 33.8246L80.8593 32L72.7213 40.1381L80.8593 48.2761L82.684 46.4515L77.4876 41.2551C96.965 42.5399 112.419 58.7927 112.419 78.5898C112.419 99.2228 95.633 116.009 75 116.009C54.367 116.009 37.5808 99.223 37.5808 78.5898C37.5808 77.7599 37.6083 76.9207 37.6625 76.0961L35.0873 75.9268C35.0294 76.8078 35 77.7038 35 78.5898C35 89.2741 39.1607 99.319 46.7158 106.874C54.2709 114.429 64.3157 118.59 75 118.59C85.6843 118.59 95.7292 114.429 103.284 106.874C110.839 99.3188 115 89.2741 115 78.5898C115 67.9054 110.839 57.8604 103.284 50.3056Z" fill="#213F7D"/>
<path d="M44.1128 57.4608L41.9841 56.002C41.483 56.7331 41.0006 57.4894 40.5508 58.2501L42.7718 59.5641C43.1928 58.8526 43.644 58.145 44.1128 57.4608Z" fill="#213F7D"/>
<path d="M47.1987 53.5435L45.2817 51.8154C44.6891 52.4728 44.1109 53.1586 43.5635 53.8535L45.5906 55.4505C46.1032 54.8002 46.644 54.1588 47.1987 53.5435Z" fill="#213F7D"/>
<path d="M38.3197 71.1526L35.79 70.6426C35.6149 71.51 35.4673 72.3952 35.3506 73.2734L37.9087 73.6132C38.018 72.7918 38.1561 71.9639 38.3197 71.1526Z" fill="#213F7D"/>
<path d="M50.7747 50.0697L49.1033 48.1035C48.4294 48.6765 47.7659 49.2796 47.1309 49.8964L48.9291 51.7474C49.5234 51.17 50.1442 50.6058 50.7747 50.0697Z" fill="#213F7D"/>
<path d="M41.5738 61.7517L39.27 60.5889C38.8706 61.3802 38.4933 62.1943 38.1484 63.0086L40.5249 64.0147C40.8474 63.2534 41.2004 62.492 41.5738 61.7517Z" fill="#213F7D"/>
<path d="M39.6304 66.3425L37.1919 65.498C36.9022 66.3342 36.6372 67.1918 36.4043 68.0465L38.8941 68.725C39.1121 67.9259 39.3598 67.1245 39.6304 66.3425Z" fill="#213F7D"/>
<path d="M75.18 106.797C90.7831 106.797 103.477 94.1032 103.477 78.5002C103.477 62.8971 90.7831 50.2031 75.18 50.2031C59.577 50.2031 46.8828 62.897 46.8828 78.5C46.8828 94.103 59.5768 106.797 75.18 106.797ZM75.18 52.7836C89.3601 52.7836 100.896 64.3199 100.896 78.5C100.896 92.6801 89.3601 104.216 75.18 104.216C61.0001 104.216 49.4636 92.6801 49.4636 78.5C49.4636 64.3199 61 52.7836 75.18 52.7836Z" fill="#213F7D"/>
<path d="M76.2901 55.7939H73.7095V58.3746H76.2901V55.7939Z" fill="#213F7D"/>
<path d="M76.2901 98.46H73.7095V101.041H76.2901V98.46Z" fill="#213F7D"/>
<path d="M54.9566 77.127H52.376V79.7076H54.9566V77.127Z" fill="#213F7D"/>
<path d="M97.6236 77.127H95.043V79.7076H97.6236V77.127Z" fill="#213F7D"/>
<path d="M83.5685 84.7306L76.2906 77.4526V63.1914H73.71V78.5217L81.7437 86.5554L83.5685 84.7306Z" fill="#213F7D"/>
</svg>
