<svg width="150" height="150" viewBox="0 0 150 150" fill="none" xmlns="http://www.w3.org/2000/svg">
<path opacity="0.05" d="M75 150C116.421 150 150 116.421 150 75C150 33.5786 116.421 0 75 0C33.5786 0 0 33.5786 0 75C0 116.421 33.5786 150 75 150Z" fill="#213F7D"/>
<path d="M110.119 57.7326L95.6899 43.2764V101.207H115V69.4704C115 65.0637 113.243 60.8392 110.119 57.7326Z" fill="#FFB782"/>
<path d="M46.278 90.6508L35.3701 62.3337C34.2753 59.4911 35.6916 56.298 38.5357 55.2027L90.0211 35.3711C92.8637 34.2763 96.0568 35.6925 97.1516 38.5367L108.06 66.8538C109.154 69.6964 107.738 72.8895 104.894 73.9848L53.4101 93.8164C50.5659 94.9112 47.3744 93.4934 46.278 90.6508Z" fill="#DE4C3C"/>
<path d="M101.082 48.7373L39.3506 72.6657L43.4611 83.3361L105.196 59.4188L101.082 48.7373Z" fill="#7A4930"/>
<path d="M35.0005 70.862V40.5173C35.0005 37.4704 37.4709 35 40.5178 35H95.6898C98.7367 35 101.207 37.4704 101.207 40.5173V70.862C101.207 73.9089 98.7367 76.3793 95.6898 76.3793H40.5178C37.4709 76.3793 35.0005 73.9089 35.0005 70.862Z" fill="#213F7D"/>
<path d="M95.69 35H89.828L48.4487 76.3793H95.69C98.7369 76.3793 101.207 73.9089 101.207 70.862V40.5173C101.207 37.4704 98.7369 35 95.69 35Z" fill="#0D2B69"/>
<path d="M40.5181 57.0684H46.0354V59.827H40.5181V57.0684Z" fill="#E1E1E1"/>
<path d="M40.5181 65.3447H46.0354V68.1034H40.5181V65.3447Z" fill="#E1E1E1"/>
<path d="M65.3452 65.3447H70.8625V68.1034H65.3452V65.3447Z" fill="#E1E1E1"/>
<path d="M48.7939 57.0684H54.3107V59.827H48.7939V57.0684Z" fill="#E1E1E1"/>
<path d="M57.0693 57.0684H62.5866V59.827H57.0693V57.0684Z" fill="#E1E1E1"/>
<path d="M65.3452 57.0684H70.8625V59.827H65.3452V57.0684Z" fill="#E1E1E1"/>
<path d="M91.5518 40.5176H94.3104V44.6556H91.5518V40.5176Z" fill="#E1E1E1"/>
<path d="M86.0347 40.5176H88.7933V44.6556H86.0347V40.5176Z" fill="#E1E1E1"/>
<path d="M80.5176 40.5176H83.2762V44.6556H80.5176V40.5176Z" fill="#E1E1E1"/>
<path d="M75.0005 40.5176H77.7586V44.6556H75.0005V40.5176Z" fill="#E1E1E1"/>
<path d="M90.1729 101.207H115V115H90.1729V101.207Z" fill="#213F7D"/>
<path d="M86.1242 59.9167C83.7847 57.5856 79.9988 57.5925 77.6678 59.932C75.4137 62.1939 75.3356 65.8283 77.4899 68.1858L88.7932 80.5169C85.3958 86.4628 85.541 93.7949 89.1695 99.602L90.1725 101.206H108.103V81.8962L86.1242 59.9167Z" fill="#FFB782"/>
<path d="M94.3105 105.345H97.0692V108.103H94.3105V105.345Z" fill="white"/>
<path d="M40.5181 49.3452V42.7246C40.5181 41.5052 41.5057 40.5176 42.7251 40.5176H49.3457C50.565 40.5176 51.5522 41.5052 51.5522 42.7246V49.3452C51.5522 50.5646 50.565 51.5522 49.3457 51.5522H42.7251C41.5057 51.5522 40.5181 50.5646 40.5181 49.3452Z" fill="#FDB62F"/>
<path d="M40.5181 44.6553H44.656V47.4139H40.5181V44.6553Z" fill="#FD7B2F"/>
<path d="M47.4146 44.6553H51.552V47.4139H47.4146V44.6553Z" fill="#FD7B2F"/>
<path d="M106.724 81.8966C106.359 81.8966 106.007 81.7515 105.749 81.4923L100.232 75.975C99.7025 75.4276 99.7178 74.5545 100.267 74.0245C100.802 73.5088 101.649 73.5088 102.182 74.0245L107.7 79.5418C108.238 80.0813 108.238 80.9544 107.7 81.4923C107.44 81.7515 107.09 81.8966 106.724 81.8966Z" fill="#F2A46F"/>
</svg>
