<svg width="150" height="150" viewBox="0 0 150 150" fill="none" xmlns="http://www.w3.org/2000/svg">
<path opacity="0.05" d="M75 150C116.421 150 150 116.421 150 75C150 33.5786 116.421 0 75 0C33.5786 0 0 33.5786 0 75C0 116.421 33.5786 150 75 150Z" fill="#213F7D"/>
<path d="M114.164 64.8369L94.1632 44.8365C93.0472 43.7209 91.2381 43.7212 90.1225 44.8372C89.5869 45.3729 89.2861 46.0992 89.2859 46.8567V55.4282H69.2856C67.7075 55.4282 66.4283 56.7075 66.4283 58.2855C66.4283 59.8635 67.7075 61.1427 69.2856 61.1427H92.1432C93.7212 61.1427 95.0004 59.8635 95.0004 58.2855V53.7538L108.104 66.8569L95.0004 79.96V75.4284C95.0004 73.8504 93.7212 72.5712 92.1432 72.5712H60.714V63.9996C60.7137 62.4216 59.4342 61.1427 57.8563 61.1431C57.0989 61.1432 56.3725 61.4441 55.8368 61.9796L35.8366 81.98C34.7211 83.0958 34.7211 84.9043 35.8366 86.02L55.837 106.02C56.3727 106.556 57.0992 106.857 57.857 106.858C58.2325 106.859 58.6046 106.785 58.9512 106.64C60.0186 106.198 60.7144 105.156 60.714 104V95.4288H80.7144C82.2924 95.4288 83.5716 94.1496 83.5716 92.5715C83.5716 90.9935 82.2924 89.7143 80.7144 89.7143H57.857C56.2789 89.7143 54.9997 90.9935 54.9997 92.5715V97.1031L41.8966 84L54.9997 70.8969V75.4284C54.9997 77.0065 56.2789 78.2857 57.857 78.2857H89.2859V86.8572C89.2863 88.4353 90.5658 89.7141 92.1437 89.7138C92.901 89.7136 93.6274 89.4128 94.1632 88.8772L114.164 68.8769C115.279 67.7611 115.279 65.9525 114.164 64.8369Z" fill="url(#paint0_linear)"/>
<defs>
<linearGradient id="paint0_linear" x1="115" y1="44" x2="60.0606" y2="124.056" gradientUnits="userSpaceOnUse">
<stop stop-color="#0A0A0E"/>
<stop offset="1" stop-color="#213F7D"/>
</linearGradient>
</defs>
</svg>
