<svg width="150" height="150" viewBox="0 0 150 150" fill="none" xmlns="http://www.w3.org/2000/svg">
<path opacity="0.05" d="M75 150C116.421 150 150 116.421 150 75C150 33.5786 116.421 0 75 0C33.5786 0 0 33.5786 0 75C0 116.421 33.5786 150 75 150Z" fill="#213F7D"/>
<path d="M55.6658 99.9422L115 65.2012L97.3166 34.9997L37.9824 69.7408L55.6658 99.9422Z" fill="#31978C"/>
<path d="M92.7542 41.6035L45.9818 68.9901C46.9992 70.7275 46.3746 72.9843 44.5874 74.0307L55.1599 92.0872C56.9473 91.0407 59.221 91.6005 60.2381 93.3379L107.011 65.9513C105.993 64.2139 106.618 61.9573 108.405 60.9107L97.8325 42.8542C96.0449 43.901 93.7715 43.3409 92.7542 41.6035Z" fill="#44C4A1"/>
<path d="M84.6348 62.7037C81.3035 57.0141 74.9591 54.5353 70.4643 57.1671C65.9695 59.7988 65.0264 66.5446 68.3577 72.2342C71.6891 77.9238 78.0334 80.4027 82.5282 77.7709C87.023 75.1391 87.9661 68.3933 84.6348 62.7037Z" fill="#31978C"/>
<path d="M99.5446 56.1077C100.723 56.1077 101.678 55.1525 101.678 53.9742C101.678 52.796 100.723 51.8408 99.5446 51.8408C98.3663 51.8408 97.4111 52.796 97.4111 53.9742C97.4111 55.1525 98.3663 56.1077 99.5446 56.1077Z" fill="#31978C"/>
<path d="M53.444 83.1057C54.6222 83.1057 55.5774 82.1505 55.5774 80.9723C55.5774 79.794 54.6222 78.8389 53.444 78.8389C52.2657 78.8389 51.3105 79.794 51.3105 80.9723C51.3105 82.1505 52.2657 83.1057 53.444 83.1057Z" fill="#3EA69B"/>
<path d="M80.9139 76.0247L80.0584 74.5635C78.1199 75.448 76.0521 75.6822 73.8572 75.2657L74.2988 72.6689C75.9898 72.9868 77.4825 72.8914 78.7813 72.3824L76.5075 68.4992C74.7884 69.0224 73.4065 69.1951 72.3623 69.018C71.3181 68.8409 70.4581 68.1753 69.7824 67.0213C69.1068 65.8672 68.9564 64.6877 69.3341 63.4801C69.7124 62.2731 70.5289 61.2581 71.7848 60.4332L71.1987 59.4323L72.479 58.6826L73.0765 59.7032C74.6071 58.9513 76.2876 58.6388 78.1193 58.7673L77.896 61.3708C76.6475 61.2596 75.4681 61.4306 74.3539 61.8851L76.557 65.6478L76.6172 65.6125C78.3629 65.0749 79.7753 64.9019 80.8543 65.0936C81.9354 65.2852 82.8171 65.9654 83.5004 67.1325C84.1842 68.3003 84.3275 69.4939 83.9292 70.7114C83.5318 71.9306 82.6731 72.9703 81.3504 73.8345L82.194 75.2751L80.9139 76.0247ZM71.937 63.9321C71.7721 64.4311 71.8216 64.9041 72.0833 65.3513C72.345 65.7984 72.6857 66.0736 73.1049 66.177C73.523 66.2821 74.1775 66.2346 75.0659 66.0372L73.0383 62.5743C72.4688 62.9799 72.1015 63.4322 71.937 63.9321ZM81.2897 70.2412C81.4834 69.7166 81.4442 69.22 81.1706 68.7525C80.8973 68.2858 80.5338 68.0012 80.0803 67.8991C79.6252 67.798 78.9278 67.862 77.9873 68.09L80.0964 71.6923C80.698 71.2515 81.0949 70.7676 81.2897 70.2412Z" fill="#44C4A1"/>
<path d="M79.5736 85.9443L91.0952 79.1982L73.4118 48.9968L61.8902 55.7429L79.5736 85.9443Z" fill="#F6C358"/>
<path d="M80.4281 85.4485L81.3091 84.9326L63.6257 54.7312L62.7446 55.247L80.4281 85.4485Z" fill="white"/>
<path d="M89.3612 80.2112L90.2422 79.6953L72.5588 49.4939L71.6778 50.0097L89.3612 80.2112Z" fill="white"/>
<path d="M46.2776 103.076L113.793 90.0957L107.186 55.7298L39.6704 68.7104L46.2776 103.076Z" fill="#3EA69B"/>
<path d="M47.7892 97.6928L43.0713 73.1472C44.4273 72.8866 45.3152 71.5762 45.0546 70.2202L102.755 59.1299C103.015 60.4859 104.326 61.3738 105.682 61.1132L110.4 85.6588C109.044 85.9194 108.156 87.2299 108.416 88.5859L50.7162 99.6762C50.4556 98.3201 49.1452 97.4321 47.7892 97.6928Z" fill="#44C4A1"/>
<path d="M85.9929 77.6219C84.7481 71.1477 79.5929 66.6965 74.4783 67.6799C69.3638 68.6632 66.2266 74.7087 67.4713 81.1828C68.7161 87.657 73.8713 92.1081 78.9859 91.1248C84.1005 90.1415 87.2376 84.096 85.9929 77.6219Z" fill="#3EA69B"/>
<path d="M102.962 76.4953C104.14 76.4953 105.095 75.5402 105.095 74.3619C105.095 73.1837 104.14 72.2285 102.962 72.2285C101.784 72.2285 100.829 73.1837 100.829 74.3619C100.829 75.5402 101.784 76.4953 102.962 76.4953Z" fill="#3EA69B"/>
<path d="M50.5055 86.5793C51.6837 86.5793 52.6389 85.6242 52.6389 84.4459C52.6389 83.2677 51.6837 82.3125 50.5055 82.3125C49.3272 82.3125 48.3721 83.2677 48.3721 84.4459C48.3721 85.6242 49.3272 86.5793 50.5055 86.5793Z" fill="#3EA69B"/>
<path d="M62.9227 109.134C62.9227 112.376 56.6721 115.004 48.9614 115.004C41.2507 115.004 35 112.376 35 109.134V104.332H62.9227V109.134Z" fill="#F6C358"/>
<path d="M48.9615 110.196C56.6723 110.196 62.9231 107.569 62.9231 104.329C62.9231 101.089 56.6723 98.4619 48.9615 98.4619C41.2508 98.4619 35 101.089 35 104.329C35 107.569 41.2508 110.196 48.9615 110.196Z" fill="#FCD462"/>
<path d="M48.9616 99.6094C42.2322 99.6094 36.7769 101.724 36.7769 104.333C36.7769 106.941 42.2322 109.056 48.9616 109.056C55.691 109.056 61.1463 106.941 61.1463 104.333C61.1463 101.724 55.691 99.6094 48.9616 99.6094ZM48.9616 108.531C42.98 108.531 38.1308 106.651 38.1308 104.333C38.1308 102.014 42.98 100.134 48.9616 100.134C54.9432 100.134 59.7924 102.014 59.7924 104.333C59.7924 106.652 54.9432 108.531 48.9616 108.531Z" fill="#DC8744"/>
<path d="M48.5154 107.596V107.022C46.6595 106.948 44.9936 106.662 43.5195 106.164L45.0019 105.479C46.1388 105.862 47.309 106.09 48.5154 106.164V104.637C46.985 104.495 45.8645 104.309 45.1539 104.078C44.4432 103.847 44.0879 103.504 44.0879 103.05C44.0879 102.596 44.4961 102.225 45.3159 101.936C46.1356 101.648 47.2015 101.49 48.5154 101.464V101.07H49.8143V101.472C51.3033 101.514 52.7114 101.711 54.0385 102.062L52.7181 102.787C51.824 102.54 50.8572 102.388 49.8145 102.33V103.81H49.8757C51.4324 103.952 52.576 104.143 53.3065 104.384C54.0387 104.626 54.4039 104.976 54.4039 105.435C54.4039 105.895 53.9841 106.269 53.1446 106.557C52.305 106.846 51.1961 107.003 49.8145 107.03V107.596H48.5154ZM47.0825 102.515C46.7372 102.633 46.5653 102.78 46.5653 102.956C46.5653 103.132 46.7009 103.271 46.9719 103.373C47.2412 103.476 47.7569 103.574 48.5154 103.668V102.306C47.9055 102.327 47.4279 102.397 47.0825 102.515ZM51.3578 105.967C51.7363 105.846 51.9264 105.694 51.9264 105.51C51.9264 105.327 51.7776 105.181 51.4802 105.074C51.1811 104.966 50.6259 104.865 49.8145 104.771V106.187C50.4638 106.161 50.9778 106.088 51.3578 105.967Z" fill="#DC8744"/>
<path d="M62.9227 103.303C62.9227 106.545 56.6721 109.173 48.9614 109.173C41.2507 109.173 35 106.545 35 103.303V98.501H62.9227V103.303Z" fill="#F6C358"/>
<path d="M48.9615 104.371C56.6723 104.371 62.9231 101.744 62.9231 98.5037C62.9231 95.2635 56.6723 92.6367 48.9615 92.6367C41.2508 92.6367 35 95.2635 35 98.5037C35 101.744 41.2508 104.371 48.9615 104.371Z" fill="#FCD462"/>
<path d="M48.9616 93.7773C42.2322 93.7773 36.7769 95.892 36.7769 98.5007C36.7769 101.109 42.2322 103.224 48.9616 103.224C55.691 103.224 61.1463 101.109 61.1463 98.5007C61.1463 95.892 55.691 93.7773 48.9616 93.7773ZM48.9616 102.699C42.98 102.699 38.1308 100.819 38.1308 98.5006C38.1308 96.1818 42.98 94.3019 48.9616 94.3019C54.9432 94.3019 59.7924 96.1818 59.7924 98.5006C59.7924 100.82 54.9432 102.699 48.9616 102.699Z" fill="#DC8744"/>
<path d="M48.5154 101.763V101.189C46.6595 101.115 44.9936 100.829 43.5195 100.331L45.0019 99.6461C46.1388 100.029 47.309 100.257 48.5154 100.331V98.8036C46.985 98.662 45.8645 98.4756 45.1539 98.2446C44.4432 98.0137 44.0879 97.6712 44.0879 97.2174C44.0879 96.7634 44.4961 96.3923 45.3159 96.1032C46.1356 95.8146 47.2015 95.6574 48.5154 95.631V95.2373H49.8143V95.6387C51.3033 95.681 52.7114 95.8776 54.0385 96.2294L52.7181 96.9537C51.824 96.7071 50.8572 96.5549 49.8145 96.497V97.9769H49.8757C51.4324 98.1188 52.576 98.3104 53.3065 98.5516C54.0387 98.7932 54.4039 99.1436 54.4039 99.6026C54.4039 100.062 53.9841 100.436 53.1446 100.724C52.305 101.013 51.1961 101.171 49.8145 101.197V101.764H48.5154V101.763ZM47.0825 96.6822C46.7372 96.8 46.5653 96.9472 46.5653 97.123C46.5653 97.2988 46.7009 97.4379 46.9719 97.54C47.2412 97.6425 47.7569 97.7409 48.5154 97.8353V96.4732C47.9055 96.4945 47.4279 96.564 47.0825 96.6822ZM51.3578 100.134C51.7363 100.013 51.9264 99.8613 51.9264 99.6775C51.9264 99.4939 51.7776 99.3482 51.4802 99.2406C51.1811 99.133 50.6259 99.0321 49.8145 98.9375V100.354C50.4638 100.328 50.9778 100.255 51.3578 100.134Z" fill="#DC8744"/>
<path d="M62.9227 97.4708C62.9227 100.713 56.6721 103.341 48.9614 103.341C41.2507 103.341 35 100.713 35 97.4708V92.6689H62.9227V97.4708Z" fill="#F6C358"/>
<path d="M48.9615 98.5368C56.6723 98.5368 62.9231 95.91 62.9231 92.6697C62.9231 89.4295 56.6723 86.8027 48.9615 86.8027C41.2508 86.8027 35 89.4295 35 92.6697C35 95.91 41.2508 98.5368 48.9615 98.5368Z" fill="#FCD462"/>
<path d="M48.9616 87.9463C42.2322 87.9463 36.7769 90.061 36.7769 92.6697C36.7769 95.2784 42.2322 97.3931 48.9616 97.3931C55.691 97.3931 61.1463 95.2784 61.1463 92.6697C61.1463 90.061 55.691 87.9463 48.9616 87.9463ZM48.9616 96.8683C42.98 96.8683 38.1308 94.9885 38.1308 92.6697C38.1308 90.3509 42.98 88.4711 48.9616 88.4711C54.9432 88.4711 59.7924 90.3509 59.7924 92.6697C59.7924 94.9885 54.9432 96.8683 48.9616 96.8683Z" fill="#DC8744"/>
<path d="M48.5154 95.9323V95.3576C46.6595 95.2842 44.9936 94.9982 43.5195 94.4998L45.0019 93.815C46.1388 94.1982 47.309 94.4262 48.5154 94.4998V92.9725C46.985 92.8309 45.8645 92.6445 45.1539 92.4136C44.4432 92.1826 44.0879 91.8401 44.0879 91.3863C44.0879 90.9325 44.4961 90.5613 45.3159 90.2722C46.1356 89.9836 47.2015 89.8264 48.5154 89.8V89.4062H49.8143V89.8076C51.3033 89.85 52.7114 90.0466 54.0385 90.3983L52.7181 91.1226C51.824 90.8761 50.8572 90.7239 49.8145 90.6659V92.1458H49.8757C51.4324 92.2878 52.576 92.4793 53.3065 92.7206C54.0387 92.9621 54.4039 93.3125 54.4039 93.7716C54.4039 94.2309 53.9841 94.6051 53.1446 94.8934C52.305 95.1823 51.1961 95.3395 49.8145 95.3659V95.9325H48.5154V95.9323ZM47.0825 90.851C46.7372 90.9688 46.5653 91.116 46.5653 91.2918C46.5653 91.4676 46.7009 91.6066 46.9719 91.7088C47.2412 91.8113 47.7569 91.9096 48.5154 92.004V90.642C47.9055 90.6633 47.4279 90.7328 47.0825 90.851ZM51.3578 94.3028C51.7363 94.1824 51.9264 94.0302 51.9264 93.8464C51.9264 93.6628 51.7776 93.5171 51.4802 93.4096C51.1811 93.302 50.6259 93.2011 49.8145 93.1065V94.5232C50.4638 94.4972 50.9778 94.4234 51.3578 94.3028Z" fill="#DC8744"/>
<path d="M62.9227 91.6388C62.9227 94.8806 56.6721 97.5089 48.9614 97.5089C41.2507 97.5089 35 94.8808 35 91.6388V86.8369H62.9227V91.6388Z" fill="#F6C358"/>
<path d="M48.9615 92.7038C56.6723 92.7038 62.9231 90.077 62.9231 86.8367C62.9231 83.5965 56.6723 80.9697 48.9615 80.9697C41.2508 80.9697 35 83.5965 35 86.8367C35 90.077 41.2508 92.7038 48.9615 92.7038Z" fill="#FCD462"/>
<path d="M48.9616 82.1133C42.2322 82.1133 36.7769 84.228 36.7769 86.8367C36.7769 89.4454 42.2322 91.5601 48.9616 91.5601C55.691 91.5601 61.1463 89.4454 61.1463 86.8367C61.1463 84.228 55.691 82.1133 48.9616 82.1133ZM48.9616 91.0353C42.98 91.0353 38.1308 89.1555 38.1308 86.8367C38.1308 84.5179 42.98 82.638 48.9616 82.638C54.9432 82.638 59.7924 84.5179 59.7924 86.8367C59.7924 89.1555 54.9432 91.0353 48.9616 91.0353Z" fill="#DC8744"/>
<path d="M92.3651 109.134C92.3651 112.376 86.1144 115.004 78.4037 115.004C70.693 115.004 64.4424 112.376 64.4424 109.134V104.332H92.3651V109.134Z" fill="#F6C358"/>
<path d="M78.4024 110.196C86.1132 110.196 92.364 107.569 92.364 104.329C92.364 101.089 86.1132 98.4619 78.4024 98.4619C70.6917 98.4619 64.4409 101.089 64.4409 104.329C64.4409 107.569 70.6917 110.196 78.4024 110.196Z" fill="#FCD462"/>
<path d="M78.4035 99.6094C71.6741 99.6094 66.2188 101.724 66.2188 104.333C66.2188 106.941 71.6741 109.056 78.4035 109.056C85.1329 109.056 90.5882 106.941 90.5882 104.333C90.5882 101.724 85.133 99.6094 78.4035 99.6094ZM78.4035 108.531C72.4219 108.531 67.5727 106.651 67.5727 104.333C67.5727 102.014 72.4219 100.134 78.4035 100.134C84.3851 100.134 89.2343 102.014 89.2343 104.333C89.2343 106.652 84.3851 108.531 78.4035 108.531Z" fill="#DC8744"/>
<path d="M77.9573 107.596V107.022C76.1014 106.948 74.4355 106.662 72.9614 106.164L74.4438 105.479C75.5807 105.862 76.7509 106.09 77.9573 106.164V104.637C76.4269 104.495 75.3064 104.309 74.5958 104.078C73.8851 103.847 73.5298 103.504 73.5298 103.05C73.5298 102.596 73.938 102.225 74.7577 101.936C75.5775 101.648 76.6434 101.49 77.9573 101.464V101.07H79.2562V101.472C80.7452 101.514 82.1533 101.711 83.4804 102.062L82.16 102.787C81.2659 102.54 80.2991 102.388 79.2564 102.33V103.81H79.3176C80.8743 103.952 82.0179 104.143 82.7484 104.384C83.4805 104.626 83.8458 104.976 83.8458 105.435C83.8458 105.895 83.426 106.269 82.5865 106.557C81.7469 106.846 80.6379 107.003 79.2564 107.03V107.596H77.9573ZM76.5244 102.515C76.179 102.633 76.0072 102.78 76.0072 102.956C76.0072 103.132 76.1428 103.271 76.4138 103.373C76.6831 103.476 77.1988 103.574 77.9573 103.668V102.306C77.3474 102.327 76.8698 102.397 76.5244 102.515ZM80.7999 105.967C81.1783 105.846 81.3685 105.694 81.3685 105.51C81.3685 105.327 81.2197 105.181 80.9223 105.074C80.6231 104.966 80.0679 104.865 79.2565 104.771V106.187C79.9058 106.161 80.4197 106.088 80.7999 105.967Z" fill="#DC8744"/>
<path d="M92.3651 103.303C92.3651 106.545 86.1144 109.173 78.4037 109.173C70.693 109.173 64.4424 106.545 64.4424 103.303V98.501H92.3651V103.303Z" fill="#F6C358"/>
<path d="M78.4024 104.371C86.1132 104.371 92.364 101.744 92.364 98.5037C92.364 95.2635 86.1132 92.6367 78.4024 92.6367C70.6917 92.6367 64.4409 95.2635 64.4409 98.5037C64.4409 101.744 70.6917 104.371 78.4024 104.371Z" fill="#FCD462"/>
<path d="M78.4035 93.7773C71.6741 93.7773 66.2188 95.892 66.2188 98.5007C66.2188 101.109 71.6741 103.224 78.4035 103.224C85.1329 103.224 90.5882 101.109 90.5882 98.5007C90.5882 95.892 85.133 93.7773 78.4035 93.7773ZM78.4035 102.699C72.4219 102.699 67.5727 100.819 67.5727 98.5006C67.5727 96.1818 72.4219 94.3019 78.4035 94.3019C84.3851 94.3019 89.2343 96.1818 89.2343 98.5006C89.2343 100.82 84.3851 102.699 78.4035 102.699Z" fill="#DC8744"/>
</svg>
