<svg width="483" height="905" viewBox="0 0 483 905" fill="none" xmlns="http://www.w3.org/2000/svg">
<g opacity="0.05">
<path d="M482.962 542.468C482.994 502.35 469.67 463.363 445.092 431.656C420.513 399.949 386.08 377.325 347.221 367.354C346.336 344.988 342.508 322.836 335.834 301.471H392.589C404.573 301.471 416.066 296.711 424.541 288.236C433.015 279.762 437.776 268.269 437.776 256.284V118.585C451.974 114.919 464.348 106.2 472.578 94.0636C480.809 81.9267 484.33 67.2048 482.482 52.6575C480.634 38.1101 473.545 24.736 462.542 15.0421C451.538 5.3482 437.378 0 422.713 0C408.049 0 393.888 5.3482 382.885 15.0421C371.882 24.736 364.792 38.1101 362.944 52.6575C361.097 67.2048 364.618 81.9267 372.848 94.0636C381.078 106.2 393.452 114.919 407.651 118.585V256.284C407.651 260.279 406.064 264.11 403.239 266.935C400.415 269.76 396.583 271.347 392.589 271.347H324.658C305.363 228.867 274.84 192.459 236.38 166.046C197.92 139.634 152.98 124.218 106.405 121.462V90.5994C106.405 78.6151 101.645 67.1216 93.1705 58.6474C84.6963 50.1733 73.2029 45.4125 61.2186 45.4125H-1.16934C-4.83542 31.2139 -13.554 18.8398 -25.6909 10.6096C-37.8277 2.37938 -52.5496 -1.14187 -67.097 0.705888C-81.6443 2.55365 -95.0184 9.64355 -104.712 20.6466C-114.406 31.6497 -119.754 45.8106 -119.754 60.4748C-119.754 75.139 -114.406 89.2999 -104.712 100.303C-95.0184 111.306 -81.6443 118.396 -67.097 120.244C-52.5496 122.091 -37.8277 118.57 -25.6909 110.34C-13.554 102.11 -4.83542 89.7357 -1.16934 75.5371H61.2186C65.2134 75.5371 69.0446 77.124 71.8693 79.9487C74.694 82.7734 76.2809 86.6046 76.2809 90.5994V121.357C22.9766 124.592 -27.9948 144.357 -69.5452 177.904C-111.096 211.45 -141.16 257.111 -155.558 308.535C-173.288 303.827 -191.557 301.452 -209.902 301.471C-214.993 301.471 -219.964 301.878 -224.965 302.239V226.16C-224.965 214.176 -229.725 202.682 -238.2 194.208C-246.674 185.734 -258.167 180.973 -270.152 180.973H-330.401C-334.395 180.973 -338.227 179.386 -341.051 176.561C-343.876 173.737 -345.463 169.906 -345.463 165.911V118.585C-331.264 114.919 -318.89 106.2 -310.66 94.0636C-302.43 81.9267 -298.909 67.2048 -300.756 52.6575C-302.604 38.1101 -309.694 24.736 -320.697 15.0421C-331.7 5.3482 -345.861 0 -360.525 0C-375.189 0 -389.35 5.3482 -400.353 15.0421C-411.356 24.736 -418.446 38.1101 -420.294 52.6575C-422.142 67.2048 -418.621 81.9267 -410.39 94.0636C-402.16 106.2 -389.786 114.919 -375.587 118.585V165.911C-375.587 177.895 -370.827 189.389 -362.353 197.863C-353.878 206.337 -342.385 211.098 -330.401 211.098H-270.152C-266.157 211.098 -262.326 212.684 -259.501 215.509C-256.676 218.334 -255.089 222.165 -255.089 226.16V306.472C-305.77 317.71 -350.524 347.246 -380.783 389.426C-411.042 431.607 -424.68 483.466 -419.084 535.075C-413.488 586.684 -389.052 634.415 -350.456 669.129C-311.859 703.844 -261.814 723.101 -209.902 723.215H-194.84V813.589C-194.84 817.584 -196.427 821.415 -199.252 824.239C-202.076 827.064 -205.908 828.651 -209.902 828.651H-302.415C-306.081 814.453 -314.8 802.078 -326.936 793.848C-339.073 785.618 -353.795 782.097 -368.343 783.944C-382.89 785.792 -396.264 792.882 -405.958 803.885C-415.652 814.888 -421 829.049 -421 843.713C-421 858.378 -415.652 872.538 -405.958 883.542C-396.264 894.545 -382.89 901.635 -368.343 903.482C-353.795 905.33 -339.073 901.809 -326.936 893.579C-314.8 885.348 -306.081 872.974 -302.415 858.776H-209.902C-197.918 858.776 -186.425 854.015 -177.95 845.541C-169.476 837.067 -164.716 825.573 -164.716 813.589V723.215H16.0318V785.603C1.83319 789.269 -10.541 797.988 -18.7711 810.125C-27.0014 822.261 -30.5226 836.983 -28.6749 851.531C-26.8271 866.078 -19.7372 879.452 -8.7341 889.146C2.26898 898.84 16.4298 904.188 31.0941 904.188C45.7583 904.188 59.9192 898.84 70.9222 889.146C81.9253 879.452 89.0152 866.078 90.863 851.531C92.7108 836.983 89.1895 822.261 80.9592 810.125C72.729 797.988 60.3549 789.269 46.1563 785.603V723.215H272.091V813.589C272.091 825.573 276.851 837.067 285.325 845.541C293.8 854.015 305.293 858.776 317.277 858.776H364.618C368.367 872.845 377.115 885.066 389.224 893.15C401.334 901.234 415.975 904.627 430.407 902.693C444.838 900.76 458.07 893.632 467.624 882.646C477.179 871.659 482.402 857.567 482.314 843.007C482.227 828.447 476.836 814.418 467.15 803.547C457.464 792.675 444.148 785.707 429.694 783.947C415.241 782.187 400.641 785.755 388.629 793.984C376.617 802.213 368.017 814.538 364.437 828.651H317.277C313.283 828.651 309.451 827.064 306.627 824.239C303.802 821.415 302.215 817.584 302.215 813.589V723.215C350.136 723.163 396.08 704.104 429.966 670.218C463.851 636.333 482.911 590.389 482.962 542.468ZM392.589 60.4748C392.589 54.5167 394.355 48.6925 397.666 43.7385C400.976 38.7845 405.681 34.9234 411.185 32.6433C416.69 30.3633 422.747 29.7667 428.59 30.9291C434.434 32.0914 439.802 34.9605 444.015 39.1735C448.228 43.3865 451.097 48.7542 452.259 54.5978C453.421 60.4414 452.825 66.4984 450.545 72.003C448.265 77.5075 444.404 82.2123 439.45 85.5225C434.496 88.8326 428.671 90.5994 422.713 90.5994C414.724 90.5994 407.061 87.4255 401.412 81.7761C395.763 76.1266 392.589 68.4643 392.589 60.4748ZM-59.2796 90.5994C-65.2377 90.5994 -71.062 88.8326 -76.0159 85.5225C-80.9699 82.2123 -84.831 77.5075 -87.1111 72.003C-89.3911 66.4984 -89.9877 60.4414 -88.8253 54.5978C-87.663 48.7542 -84.7939 43.3865 -80.5809 39.1735C-76.3679 34.9605 -71.0002 32.0914 -65.1566 30.9291C-59.313 29.7667 -53.256 30.3633 -47.7514 32.6433C-42.2469 34.9234 -37.5421 38.7845 -34.232 43.7385C-30.9218 48.6925 -29.1551 54.5167 -29.1551 60.4748C-29.1551 68.4643 -32.3289 76.1266 -37.9783 81.7761C-43.6278 87.4255 -51.2901 90.5994 -59.2796 90.5994ZM-390.65 60.4748C-390.65 54.5167 -388.883 48.6925 -385.573 43.7385C-382.263 38.7845 -377.558 34.9234 -372.053 32.6433C-366.549 30.3633 -360.492 29.7667 -354.648 30.9291C-348.805 32.0914 -343.437 34.9605 -339.224 39.1735C-335.011 43.3865 -332.142 48.7542 -330.979 54.5978C-329.817 60.4414 -330.414 66.4984 -332.694 72.003C-334.974 77.5075 -338.835 82.2123 -343.789 85.5225C-348.743 88.8326 -354.567 90.5994 -360.525 90.5994C-368.515 90.5994 -376.177 87.4255 -381.826 81.7761C-387.476 76.1266 -390.65 68.4643 -390.65 60.4748ZM-360.525 873.838C-366.483 873.838 -372.308 872.071 -377.262 868.761C-382.215 865.451 -386.077 860.746 -388.357 855.242C-390.637 849.737 -391.233 843.68 -390.071 837.836C-388.909 831.993 -386.039 826.625 -381.826 822.412C-377.613 818.199 -372.246 815.33 -366.402 814.168C-360.559 813.005 -354.502 813.602 -348.997 815.882C-343.492 818.162 -338.788 822.023 -335.478 826.977C-332.167 831.931 -330.401 837.755 -330.401 843.713C-330.401 851.703 -333.574 859.365 -339.224 865.015C-344.873 870.664 -352.536 873.838 -360.525 873.838ZM61.2186 843.713C61.2186 849.671 59.4519 855.496 56.1417 860.45C52.8316 865.404 48.1267 869.265 42.6222 871.545C37.1177 873.825 31.0606 874.421 25.217 873.259C19.3734 872.097 14.0058 869.228 9.79279 865.015C5.5798 860.802 2.71069 855.434 1.54834 849.59C0.385956 843.747 0.982544 837.69 3.2626 832.185C5.54266 826.681 9.40378 821.976 14.3577 818.666C19.3117 815.356 25.136 813.589 31.0941 813.589C39.0836 813.589 46.7459 816.763 52.3954 822.412C58.0448 828.062 61.2186 835.724 61.2186 843.713ZM418.662 813.86C420.005 813.681 421.358 813.591 422.713 813.589C430.526 813.598 438.03 816.642 443.641 822.078C449.253 827.515 452.532 834.919 452.788 842.728C453.043 850.537 450.255 858.139 445.011 863.931C439.768 869.723 432.479 873.251 424.683 873.771C416.887 874.291 409.195 871.761 403.229 866.717C397.262 861.672 393.49 854.507 392.706 846.733C391.923 838.96 394.191 831.186 399.031 825.052C403.87 818.919 410.904 814.906 418.646 813.86H418.662ZM46.1563 693.091V632.841C46.1563 628.847 44.5694 625.016 41.7447 622.191C38.92 619.366 35.0888 617.779 31.0941 617.779C27.0993 617.779 23.2681 619.366 20.4434 622.191C17.6187 625.016 16.0318 628.847 16.0318 632.841V693.091H-164.716V602.717C-164.716 598.722 -166.302 594.891 -169.127 592.066C-171.952 589.242 -175.783 587.655 -179.778 587.655C-183.773 587.655 -187.604 589.242 -190.429 592.066C-193.253 594.891 -194.84 598.722 -194.84 602.717V693.091H-209.902C-253.836 693.053 -296.249 677.004 -329.203 647.949C-362.157 618.894 -383.391 578.824 -388.931 535.242C-394.471 491.659 -383.937 447.551 -359.301 411.175C-334.665 374.799 -297.616 348.649 -255.089 337.621V406.907C-255.089 410.902 -253.502 414.733 -250.678 417.558C-247.853 420.383 -244.022 421.97 -240.027 421.97C-236.032 421.97 -232.201 420.383 -229.376 417.558C-226.552 414.733 -224.965 410.902 -224.965 406.907V332.364C-219.979 331.942 -214.993 331.596 -209.902 331.596C-189.379 331.539 -168.998 335.013 -149.653 341.868C-147.624 342.591 -145.463 342.871 -143.317 342.687C-141.171 342.504 -139.089 341.863 -137.211 340.806C-135.334 339.75 -133.705 338.303 -132.435 336.563C-131.164 334.824 -130.282 332.832 -129.846 330.722C-119.667 282.491 -94.032 238.897 -56.832 206.554C-19.632 174.212 27.1028 154.887 76.2809 151.511V241.222C76.2809 245.217 77.8678 249.048 80.6925 251.873C83.5172 254.698 87.3484 256.284 91.3432 256.284C95.338 256.284 99.1691 254.698 101.994 251.873C104.819 249.048 106.405 245.217 106.405 241.222V151.617C144.829 154.187 181.958 166.536 214.267 187.491C246.576 208.446 272.993 237.311 291.009 271.347H241.966C237.971 271.347 234.14 272.934 231.315 275.758C228.491 278.583 226.904 282.414 226.904 286.409C226.904 290.404 228.491 294.235 231.315 297.06C234.14 299.884 237.971 301.471 241.966 301.471H304.098C312.763 325.637 317.22 351.11 317.277 376.783V379.494C317.276 383.017 318.509 386.429 320.763 389.137C323.017 391.845 326.148 393.677 329.613 394.315C366.603 401.098 399.718 421.472 422.447 451.433C445.176 481.394 455.875 518.773 452.441 556.223C449.007 593.672 431.688 628.482 403.889 653.809C376.089 679.137 339.822 693.149 302.215 693.091V557.53C302.215 553.535 300.628 549.704 297.803 546.879C294.979 544.055 291.148 542.468 287.153 542.468C283.158 542.468 279.327 544.055 276.502 546.879C273.677 549.704 272.091 553.535 272.091 557.53V693.091H46.1563Z" fill="url(#paint0_linear)"/>
<path d="M31.0944 346.658C7.3581 346.618 -16.1521 351.27 -38.0849 360.345C-60.0177 369.421 -79.9408 382.742 -96.709 399.542C-98.1114 400.937 -99.2252 402.595 -99.9868 404.421C-100.748 406.247 -101.143 408.205 -101.148 410.184C-101.158 414.179 -99.58 418.015 -96.7617 420.847C-93.9434 423.68 -90.1154 425.276 -86.1198 425.286C-82.1243 425.296 -78.2884 423.718 -75.4561 420.9C-47.189 392.651 -8.86123 376.782 31.102 376.782C71.0651 376.782 109.393 392.651 137.66 420.9C139.054 422.334 140.719 423.476 142.559 424.26C144.398 425.044 146.376 425.453 148.376 425.465C150.375 425.476 152.357 425.09 154.206 424.327C156.055 423.564 157.733 422.441 159.143 421.023C160.553 419.605 161.666 417.921 162.419 416.068C163.171 414.215 163.546 412.231 163.523 410.231C163.501 408.232 163.08 406.257 162.286 404.421C161.492 402.586 160.34 400.927 158.898 399.542C142.131 382.74 122.208 369.419 100.275 360.343C78.3416 351.268 54.831 346.617 31.0944 346.658Z" fill="url(#paint1_linear)"/>
<path d="M31.0939 406.907C15.2631 406.862 -0.419464 409.958 -15.0455 416.015C-29.6716 422.073 -42.9505 430.972 -54.1134 442.198C-56.8571 445.038 -58.3753 448.843 -58.341 452.792C-58.3067 456.742 -56.7226 460.52 -53.9299 463.312C-51.1373 466.105 -47.3594 467.689 -43.4102 467.723C-39.4609 467.758 -35.6561 466.239 -32.8153 463.496C-24.4232 455.102 -14.4598 448.444 -3.49413 443.901C7.47151 439.359 19.2246 437.02 31.0939 437.02C42.9632 437.02 54.7164 439.359 65.682 443.901C76.6476 448.444 86.611 455.102 95.0032 463.496C96.3926 464.934 98.0547 466.082 99.8923 466.871C101.73 467.661 103.706 468.076 105.706 468.094C107.706 468.111 109.69 467.73 111.541 466.972C113.392 466.215 115.074 465.097 116.488 463.682C117.902 462.268 119.021 460.586 119.778 458.735C120.535 456.884 120.916 454.901 120.899 452.901C120.882 450.901 120.466 448.924 119.677 447.087C118.887 445.249 117.74 443.587 116.301 442.198C105.137 430.974 91.8582 422.075 77.2324 416.018C62.6066 409.96 46.9245 406.863 31.0939 406.907Z" fill="url(#paint2_linear)"/>
<path d="M31.0934 467.156C23.1802 467.14 15.3422 468.693 8.03322 471.725C0.724192 474.758 -5.91077 479.21 -11.4877 484.824C-14.2314 487.665 -15.7496 491.47 -15.7153 495.419C-15.6809 499.369 -14.0969 503.146 -11.3042 505.939C-8.51153 508.732 -4.73372 510.316 -0.784434 510.35C3.16485 510.384 6.96962 508.866 9.8104 506.123C15.5365 500.634 23.1617 497.57 31.0934 497.57C39.0252 497.57 46.6502 500.634 52.3764 506.123C55.2172 508.866 59.022 510.384 62.9712 510.35C66.9205 510.316 70.6983 508.732 73.491 505.939C76.2837 503.146 77.8677 499.369 77.9021 495.419C77.9364 491.47 76.4182 487.665 73.6745 484.824C68.0966 479.212 61.4614 474.76 54.1526 471.728C46.8438 468.695 39.0064 467.141 31.0934 467.156Z" fill="url(#paint3_linear)"/>
<path d="M31.0938 587.654C47.7311 587.654 61.2184 574.167 61.2184 557.53C61.2184 540.892 47.7311 527.405 31.0938 527.405C14.4565 527.405 0.969238 540.892 0.969238 557.53C0.969238 574.167 14.4565 587.654 31.0938 587.654Z" fill="url(#paint4_linear)"/>
</g>
<defs>
<linearGradient id="paint0_linear" x1="44.4995" y1="948.291" x2="19.0593" y2="6.80793" gradientUnits="userSpaceOnUse">
<stop stop-color="#006DF0"/>
<stop offset="1" stop-color="#00E7F0"/>
</linearGradient>
<linearGradient id="paint1_linear" x1="8624.04" y1="5464.49" x2="8584.36" y2="535.273" gradientUnits="userSpaceOnUse">
<stop stop-color="#006DF0"/>
<stop offset="1" stop-color="#00E7F0"/>
</linearGradient>
<linearGradient id="paint2_linear" x1="5836.72" y1="4380.63" x2="5801.42" y2="553.554" gradientUnits="userSpaceOnUse">
<stop stop-color="#006DF0"/>
<stop offset="1" stop-color="#00E7F0"/>
</linearGradient>
<linearGradient id="paint3_linear" x1="3056.19" y1="3272.42" x2="3022.49" y2="570.954" gradientUnits="userSpaceOnUse">
<stop stop-color="#006DF0"/>
<stop offset="1" stop-color="#00E7F0"/>
</linearGradient>
<linearGradient id="paint4_linear" x1="1971.18" y1="4440.47" x2="1869.41" y2="674.534" gradientUnits="userSpaceOnUse">
<stop stop-color="#006DF0"/>
<stop offset="1" stop-color="#00E7F0"/>
</linearGradient>
</defs>
</svg>
