<svg width="365" height="186" viewBox="0 0 365 186" fill="none" xmlns="http://www.w3.org/2000/svg">
<path opacity="0.05" d="M364.81 237.264C364.619 239.286 364.247 241.288 363.699 243.247C362.456 247.774 360.574 252.114 358.109 256.145C343.832 280.257 315.902 294.187 287.765 299.854C259.627 305.522 230.593 304.304 201.871 305.587C163.152 307.307 124.492 313.626 85.7291 311.606C67.3541 310.616 49.1375 307.76 31.3791 303.086C-54.2332 303.086 -12.3822 176.566 -7.45817 128.6C-5.33304 107.935 -2.85248 86.2741 9.33554 69.1845C23.7524 48.935 49.2761 38.846 74.252 34.4608C99.2278 30.0755 124.914 30.2977 149.779 25.2604C190.349 17.0201 229.572 -5.21427 270.475 1.11998C310.63 7.33242 343.21 44.3348 343.188 83.673C343.188 111.289 330.238 138.747 337.672 166.248C344.136 190.137 367.327 211.29 364.81 237.264Z" fill="#213F7D"/>
</svg>
